<svg width="46" height="58" viewBox="0 0 46 58" fill="none" xmlns="http://www.w3.org/2000/svg">
<rect width="6" height="7" transform="matrix(1 9.64302e-08 7.99543e-08 -1 7 33)" fill="#E31E25"/>
<rect width="7" height="7" transform="matrix(1 9.64302e-08 7.99543e-08 -1 0 33)" fill="#E31E25"/>
<rect width="7" height="7" transform="matrix(1 9.64302e-08 7.99543e-08 -1 13.0005 33)" fill="#E31E25"/>
<rect width="6" height="5" transform="matrix(1 8.03585e-08 9.59452e-08 -1 10 38)" fill="#E31E25"/>
<rect width="32" height="6" transform="matrix(1 9.64302e-08 7.99543e-08 -1 4 26)" fill="#E31E25"/>
<rect width="6" height="6" transform="matrix(1 9.64302e-08 7.99543e-08 -1 36 26)" fill="#E31E25"/>
<rect width="6" height="7" transform="matrix(1 9.64302e-08 7.99543e-08 -1 20 20)" fill="#E31E25"/>
<rect width="7" height="6" transform="matrix(1 9.64302e-08 7.99543e-08 -1 23 13)" fill="#E31E25"/>
<rect width="6" height="7" transform="matrix(1 9.64302e-08 7.99543e-08 -1 20 7)" fill="#E31E25"/>
<rect width="5" height="5" transform="matrix(1 9.64302e-08 7.99543e-08 -1 20 48)" fill="#E31E25"/>
<rect width="26" height="5" transform="matrix(1 9.64302e-08 7.99543e-08 -1 10 53)" fill="#E31E25"/>
<rect width="41" height="5" transform="matrix(1 9.64302e-08 7.99543e-08 -1 2 58)" fill="#E31E25"/>
<rect width="6" height="7" transform="matrix(1 9.64302e-08 7.99543e-08 -1 20 33)" fill="#E31E25"/>
<rect width="7" height="7" transform="matrix(1 9.64302e-08 7.99543e-08 -1 13.0005 20)" fill="#E31E25"/>
<rect width="7" height="6" transform="matrix(1 9.64302e-08 7.99543e-08 -1 15.9995 13)" fill="#E31E25"/>
<rect width="7" height="7" transform="matrix(1 9.64302e-08 7.99543e-08 -1 25.9995 33)" fill="#E31E25"/>
<rect width="7" height="7" transform="matrix(1 9.64302e-08 7.99543e-08 -1 25.9995 20)" fill="#E31E25"/>
<rect width="6" height="5" transform="matrix(1 8.03585e-08 9.59452e-08 -1 30 38)" fill="#E31E25"/>
<rect width="6" height="5" transform="matrix(1 8.03585e-08 9.59452e-08 -1 25.9995 38)" fill="#E31E25"/>
<rect width="6" height="5" transform="matrix(1 8.03585e-08 9.59452e-08 -1 14 38)" fill="#E31E25"/>
<rect width="6" height="7" transform="matrix(1 9.64302e-08 7.99543e-08 -1 33 33)" fill="#E31E25"/>
<rect width="7" height="7" transform="matrix(1 9.64302e-08 7.99543e-08 -1 39 33)" fill="#E31E25"/>
</svg>
