<svg width="48" height="48" viewBox="0 0 48 48" fill="none" xmlns="http://www.w3.org/2000/svg">
<path d="M9.6 9.6H38.4V38.4H9.6V9.6Z" fill="white"/>
<path d="M40.8 12H48V36.8H40.8V12Z" fill="white"/>
<path d="M36.8 1.08404e-06V7.2L12 7.2V0L36.8 1.08404e-06Z" fill="white"/>
<path d="M36.8 40.8V48H12V40.8H36.8Z" fill="white"/>
<path d="M0 12H7.2V36.8H0V12Z" fill="white"/>
<path d="M0 1.08404e-06H9.6V9.6H0V1.08404e-06Z" fill="white"/>
<path d="M38.4 1.08404e-06H48V9.6H38.4V1.08404e-06Z" fill="white"/>
<path d="M38.4 38.4H48V48H38.4V38.4Z" fill="white"/>
<path d="M0 38.4H9.6V48H0V38.4Z" fill="white"/>
</svg>
