<svg width="111" height="111" viewBox="0 0 111 111" fill="none" xmlns="http://www.w3.org/2000/svg">
<rect x="21" y="72.2939" width="5.07344" height="40.5875" transform="rotate(-90 21 72.2939)" fill="#7B231F" stroke="#7B231F" stroke-width="2"/>
<rect x="51.4414" y="77.3643" width="5.07344" height="5.07344" transform="rotate(-90 51.4414 77.3643)" fill="#7B231F" stroke="#7B231F" stroke-width="2"/>
<rect width="5.07344" height="5.07344" transform="matrix(-1.71716e-07 -1 -1 1.71716e-07 46.3672 57.0732)" fill="#7B231F" stroke="#7B231F" stroke-width="2"/>
<rect x="46.3691" y="82.4385" width="5.07344" height="5.07344" transform="rotate(-90 46.3691 82.4385)" fill="#7B231F" stroke="#7B231F" stroke-width="2"/>
<rect width="5.07344" height="5.07344" transform="matrix(-1.71716e-07 -1 -1 1.71716e-07 51.4395 62.1475)" fill="#7B231F" stroke="#7B231F" stroke-width="2"/>
<rect x="41.2969" y="87.5107" width="5.07344" height="5.07344" transform="rotate(-90 41.2969 87.5107)" fill="#7B231F" stroke="#7B231F" stroke-width="2"/>
<rect width="5.07344" height="5.07344" transform="matrix(-1.71716e-07 -1 -1 1.71716e-07 56.5137 67.2197)" fill="#7B231F" stroke="#7B231F" stroke-width="2"/>
<rect width="5.07344" height="40.5875" transform="matrix(3.12908e-09 -1 -1 -3.12908e-09 89.5879 44.2939)" fill="#E51E24" stroke="#E51E24" stroke-width="2"/>
<rect width="5.07344" height="5.07344" transform="matrix(3.12908e-09 -1 -1 -3.12908e-09 59.1465 49.3643)" fill="#E51E24" stroke="#E51E24" stroke-width="2"/>
<rect x="64.2207" y="29.0732" width="5.07344" height="5.07344" transform="rotate(-90 64.2207 29.0732)" fill="#E51E24" stroke="#E51E24" stroke-width="2"/>
<rect width="5.07344" height="5.07344" transform="matrix(3.12908e-09 -1 -1 -3.12908e-09 64.2188 54.4385)" fill="#E51E24" stroke="#E51E24" stroke-width="2"/>
<rect x="59.1484" y="34.1475" width="5.07344" height="5.07344" transform="rotate(-90 59.1484 34.1475)" fill="#E51E24" stroke="#E51E24" stroke-width="2"/>
<rect width="5.07344" height="5.07344" transform="matrix(3.12908e-09 -1 -1 -3.12908e-09 69.293 59.5107)" fill="#E51E24" stroke="#E51E24" stroke-width="2"/>
<rect x="54.0742" y="39.2197" width="5.07344" height="5.07344" transform="rotate(-90 54.0742 39.2197)" fill="#E51E24" stroke="#E51E24" stroke-width="2"/>
</svg>
