<svg width="111" height="111" viewBox="0 0 111 111" fill="none" xmlns="http://www.w3.org/2000/svg">
<path d="M63.7885 88L63.7885 45.6L70 45.6L70 88L63.7885 88Z" fill="#E51E24"/>
<path d="M45.6896 88L45.6896 35L51.9011 35L51.9011 88L45.6896 88Z" fill="#E51E24"/>
<path d="M36.4438 88L36.4438 53.55L42.6552 53.55L42.6552 88L36.4438 88Z" fill="#E51E24"/>
<path d="M18 88L18 64.15L24.2115 64.15L24.2115 88L18 88Z" fill="#E51E24"/>
<rect x="78.6953" y="47.4424" width="2.48011" height="19.8747" transform="rotate(-135 78.6953 47.4424)" fill="#7B231F" stroke="#7B231F" stroke-width="2"/>
<rect x="90.9883" y="38.6548" width="2.48011" height="2.48434" transform="rotate(-135 90.9883 38.6548)" fill="#7B231F" stroke="#7B231F" stroke-width="2"/>
<rect width="2.48011" height="2.48434" transform="matrix(-0.707107 -0.707107 -0.707107 0.707107 82.2168 33.3975)" fill="#7B231F" stroke="#7B231F" stroke-width="2"/>
<rect x="90.9863" y="42.1655" width="2.48011" height="2.48434" transform="rotate(-135 90.9863 42.1655)" fill="#7B231F" stroke="#7B231F" stroke-width="2"/>
<rect width="2.48011" height="2.48434" transform="matrix(-0.707107 -0.707107 -0.707107 0.707107 85.7285 33.3955)" fill="#7B231F" stroke="#7B231F" stroke-width="2"/>
<rect x="90.9824" y="45.6758" width="2.48011" height="2.48434" transform="rotate(-135 90.9824 45.6758)" fill="#7B231F" stroke="#7B231F" stroke-width="2"/>
<rect width="2.48011" height="2.48434" transform="matrix(-0.707107 -0.707107 -0.707107 0.707107 89.2383 33.3921)" fill="#7B231F" stroke="#7B231F" stroke-width="2"/>
<rect width="2.48011" height="19.8747" transform="matrix(-0.707107 -0.707107 -0.707107 0.707107 92.7637 14.0151)" fill="#E51E24" stroke="#E51E24" stroke-width="2"/>
<rect width="2.48011" height="2.48434" transform="matrix(-0.707107 -0.707107 -0.707107 0.707107 83.9746 26.3081)" fill="#E51E24" stroke="#E51E24" stroke-width="2"/>
<rect x="78.7188" y="17.5366" width="2.48011" height="2.48434" transform="rotate(-135 78.7188 17.5366)" fill="#E51E24" stroke="#E51E24" stroke-width="2"/>
<rect width="2.48011" height="2.48434" transform="matrix(-0.707107 -0.707107 -0.707107 0.707107 87.4863 26.3052)" fill="#E51E24" stroke="#E51E24" stroke-width="2"/>
<rect x="78.7168" y="21.0474" width="2.48011" height="2.48434" transform="rotate(-135 78.7168 21.0474)" fill="#E51E24" stroke="#E51E24" stroke-width="2"/>
<rect width="2.48011" height="2.48434" transform="matrix(-0.707107 -0.707107 -0.707107 0.707107 90.9961 26.3022)" fill="#E51E24" stroke="#E51E24" stroke-width="2"/>
<rect x="78.7129" y="24.5576" width="2.48011" height="2.48434" transform="rotate(-135 78.7129 24.5576)" fill="#E51E24" stroke="#E51E24" stroke-width="2"/>
</svg>
