<svg width="47" height="39" viewBox="0 0 47 39" fill="none" xmlns="http://www.w3.org/2000/svg">
<path d="M21.15 28.9998H25.85V38.3998H21.15V28.9998Z" fill="white"/>
<path d="M28.2 31.3498V36.0498H18.8V31.3498H28.2Z" fill="white"/>
<path d="M32.9 21.9498H37.6V28.9998H32.9V21.9498Z" fill="white"/>
<path d="M14.1 21.9498H9.4V28.9998H14.1V21.9498Z" fill="white"/>
<path d="M4.7 14.8998H0V24.2998H4.7V14.8998Z" fill="white"/>
<path d="M42.3 14.8998H47V24.2998H42.3V14.8998Z" fill="white"/>
<path d="M5.48333 10.1998H0.783333V19.5998H5.48333V10.1998Z" fill="white"/>
<path d="M41.5167 10.1998H46.2167V19.5998H41.5167V10.1998Z" fill="white"/>
<path d="M9.4 7.8498H4.7V14.8998H9.4V7.8498Z" fill="white"/>
<path d="M37.6 7.8498H42.3V14.8998H37.6V7.8498Z" fill="white"/>
<path d="M11.75 5.4998H7.05V12.5498H11.75V5.4998Z" fill="white"/>
<path d="M35.25 5.4998H39.95V12.5498H35.25V5.4998Z" fill="white"/>
<path d="M16.45 3.1498H9.4V10.1998H16.45V3.1498Z" fill="white"/>
<path d="M30.55 3.1498H37.6V10.1998H30.55V3.1498Z" fill="white"/>
<path d="M32.9 0.799805H14.1V7.8498H32.9V0.799805Z" fill="white"/>
<path d="M28.2 17.2498H32.9V24.2998H28.2V17.2498Z" fill="white"/>
<path d="M18.8 17.2498H14.1V24.2998H18.8V17.2498Z" fill="white"/>
<path d="M18.8 14.8998H28.2V21.9498H18.8V14.8998Z" fill="white"/>
<path d="M32.9 19.5998H35.25V21.9498H32.9V19.5998Z" fill="white"/>
<path d="M14.1 19.5998H11.75V21.9498H14.1V19.5998Z" fill="white"/>
</svg>
