<svg width="45" height="45" viewBox="0 0 45 45" fill="none" xmlns="http://www.w3.org/2000/svg">
<path d="M22.8814 0H35.8475V3.75H22.8814V0Z" fill="white"/>
<path d="M19.8305 3H32.7966V6.75H19.8305V3Z" fill="white"/>
<path d="M19.8305 5.25H28.9831V24.75H19.8305V5.25Z" fill="white"/>
<path d="M23.6441 12.75H32.7966V24.75H23.6441V12.75Z" fill="white"/>
<path d="M38.1356 12.75H45V21.75H38.1356V12.75Z" fill="white"/>
<path d="M41.1864 9.75H45V12.75H41.1864V9.75Z" fill="white"/>
<path d="M32.0339 15.75H41.1864V24.75H32.0339V15.75Z" fill="white"/>
<path d="M16.7797 18.75H25.9322V27.75H16.7797V18.75Z" fill="white"/>
<path d="M13.7288 21.75H22.8814V30.75H13.7288V21.75Z" fill="white"/>
<path d="M10.678 24.75H19.8305V33.75H10.678V24.75Z" fill="white"/>
<path d="M7.62712 27.75H16.7797V36.75H7.62712V27.75Z" fill="white"/>
<path d="M4.57627 30.75H13.7288V39.75H4.57627V30.75Z" fill="white"/>
<path d="M2.28814 33H11.4407V42H2.28814V33Z" fill="white"/>
<path d="M0 36H9.15254V45H0V36Z" fill="white"/>
</svg>
