<svg width="111" height="111" viewBox="0 0 111 111" fill="none" xmlns="http://www.w3.org/2000/svg">
<path d="M23.4992 49.7355H29.5114V55.6903H23.4992V49.7355Z" fill="#E51E24"/>
<path d="M17.487 43.3226H23.4992V49.7355H17.487V43.3226Z" fill="#E51E24"/>
<path d="M23.4992 37.3677H29.5114V43.3226H23.4992V37.3677Z" fill="#E51E24"/>
<path d="M29.5114 43.3226H35.9862V49.7355H29.5114V43.3226Z" fill="#E51E24"/>
<path d="M35.5237 41.0323H41.9984V47.4452H35.5237V41.0323Z" fill="#E51E24"/>
<path d="M21.6493 52.9419H27.6615V58.8968H21.6493V52.9419Z" fill="#E51E24"/>
<path d="M19.3369 56.6065H25.3491V62.5613H19.3369V56.6065Z" fill="#E51E24"/>
<path d="M16.562 62.1032H23.0367V68.5161H16.562V62.1032Z" fill="#E51E24"/>
<path d="M40.1485 38.2839H46.6232V44.2387H40.1485V38.2839Z" fill="#E51E24"/>
<path d="M45.2358 35.0774H51.248V41.4903H45.2358V35.0774Z" fill="#E51E24"/>
<path d="M55.8728 44.2387H61.8851V50.1935H55.8728V44.2387Z" fill="#E51E24"/>
<path d="M23.4992 71.7226H29.5114V77.6774H23.4992V71.7226Z" fill="#E51E24"/>
<path d="M34.1362 82.2581H40.1485V88.671H34.1362V82.2581Z" fill="#E51E24"/>
<path d="M68.8223 56.6065H75.297V62.5613H68.8223V56.6065Z" fill="#E51E24"/>
<path d="M49.3981 38.2839H55.8728V44.2387H49.3981V38.2839Z" fill="#E51E24"/>
<path d="M17.487 65.7677H23.4992V71.7226H17.487V65.7677Z" fill="#E51E24"/>
<path d="M60.0351 47.4452H66.0474V53.4H60.0351V47.4452Z" fill="#E51E24"/>
<path d="M27.6615 74.471H34.1362V80.8839H27.6615V74.471Z" fill="#E51E24"/>
<path d="M38.2986 85.4645H44.7733V91.4194H38.2986V85.4645Z" fill="#E51E24"/>
<path d="M42.4609 88.2129H48.4731V94.6258H42.4609V88.2129Z" fill="#E51E24"/>
<path d="M48.0107 90.0452H54.4854V96H48.0107V90.0452Z" fill="#E51E24"/>
<path d="M54.4854 89.5871H60.4976V95.5419H54.4854V89.5871Z" fill="#E51E24"/>
<path d="M54.4854 86.3806H60.4976V92.7935H54.4854V86.3806Z" fill="#E51E24"/>
<path d="M60.4976 85.4645H66.5099V91.4194H60.4976V85.4645Z" fill="#E51E24"/>
<path d="M65.5849 81.3419H72.0596V87.2968H65.5849V81.3419Z" fill="#E51E24"/>
<path d="M70.2097 77.2194H76.2219V83.6323H70.2097V77.2194Z" fill="#E51E24"/>
<path d="M73.4471 72.6387H79.4593V78.5935H73.4471V72.6387Z" fill="#E51E24"/>
<path d="M76.2219 68.0581H82.2342V74.0129H76.2219V68.0581Z" fill="#E51E24"/>
<path d="M78.9968 62.5613H85.0091V68.5161H78.9968V62.5613Z" fill="#E51E24"/>
<path d="M52.6355 84.5484H58.6477V90.5032H52.6355V84.5484Z" fill="#E51E24"/>
<path d="M63.2725 78.1355H69.7472V84.0903H63.2725V78.1355Z" fill="#E51E24"/>
<path d="M72.5221 70.8064H78.5343V76.7613H72.5221V70.8064Z" fill="#E51E24"/>
<path d="M48.0107 80.4258H54.4854V86.8387H48.0107V80.4258Z" fill="#E51E24"/>
<path d="M58.6477 74.0129H65.1224V80.4258H58.6477V74.0129Z" fill="#E51E24"/>
<path d="M66.5099 68.0581H72.5221V74.0129H66.5099V68.0581Z" fill="#E51E24"/>
<path d="M60.9601 64.3935H66.9723V70.8064H60.9601V64.3935Z" fill="#E51E24"/>
<path d="M72.9846 57.9806H79.4593V63.9355H72.9846V57.9806Z" fill="#E51E24"/>
<path d="M52.6355 41.4903H58.6477V47.4452H52.6355V41.4903Z" fill="#E51E24"/>
<path d="M20.2618 68.5161H26.7366V74.929H20.2618V68.5161Z" fill="#E51E24"/>
<path d="M37.8361 55.2323H43.8483V61.6452H37.8361V55.2323Z" fill="#E51E24"/>
<path d="M41.9984 60.271H48.0107V66.2258H41.9984V60.271Z" fill="#E51E24"/>
<path d="M49.8606 51.5677H55.8728V57.9806H49.8606V51.5677Z" fill="#E51E24"/>
<path d="M33.6738 57.5226H40.1485V63.9355H33.6738V57.5226Z" fill="#E51E24"/>
<path d="M49.3981 42.8645H55.8728V49.2774H49.3981V42.8645Z" fill="#E51E24"/>
<path d="M29.5114 62.1032H35.5237V68.5161H29.5114V62.1032Z" fill="#E51E24"/>
<path d="M34.5987 66.6839H41.0735V72.6387H34.5987V66.6839Z" fill="#E51E24"/>
<path d="M45.2358 47.4452H51.248V53.4H45.2358V47.4452Z" fill="#E51E24"/>
<path d="M25.3491 66.6839H31.3614V72.6387H25.3491V66.6839Z" fill="#E51E24"/>
<path d="M41.0735 51.5677H47.0857V57.9806H41.0735V51.5677Z" fill="#E51E24"/>
<path d="M66.0474 53.4H72.0596V59.8129H66.0474V53.4Z" fill="#E51E24"/>
<path d="M63.2725 50.1935H69.2847V56.6065H63.2725V50.1935Z" fill="#E51E24"/>
<path d="M79.4593 56.6065H85.4715V62.5613H79.4593V56.6065Z" fill="#E51E24"/>
<path d="M11.0122 37.3677H17.487V43.3226H11.0122V37.3677Z" fill="#E51E24"/>
<path d="M5 31.4129H11.0122V37.3677H5V31.4129Z" fill="#E51E24"/>
<path d="M5 25H11.0122V31.4129H5V25Z" fill="#E51E24"/>
<path d="M11.0122 25H17.487V31.4129H11.0122V25Z" fill="#E51E24"/>
<path d="M17.487 31.4129H23.4992V37.3677H17.487V31.4129Z" fill="#E51E24"/>
<path d="M99.4309 51.625H106V58.0795H99.4309V51.625Z" fill="#E51E24"/>
<path d="M90.3984 70.9886H96.9675V77.4432H90.3984V70.9886Z" fill="#E51E24"/>
<path d="M80.5447 35.4886H87.1138V41.9432H80.5447V35.4886Z" fill="#E51E24"/>
</svg>
