<svg width="25" height="21" viewBox="0 0 25 21" fill="none" xmlns="http://www.w3.org/2000/svg">
<path d="M19.1039 20.1093H22.4263V20.9836H19.1039V20.1093Z" fill="#1F91CF"/>
<path d="M17.4426 19.235H22.4263V20.1093H17.4426V19.235Z" fill="#1F91CF"/>
<path d="M15.7814 18.3607H22.4263V19.235H15.7814V18.3607Z" fill="#1F91CF"/>
<path d="M14.1202 17.4864H22.4263V18.3607H14.1202V17.4864Z" fill="#1F91CF"/>
<path d="M12.459 16.612H23.2569V17.4864H12.459V16.612Z" fill="#1F91CF"/>
<path d="M10.7978 15.7377H23.2569V16.612H10.7978V15.7377Z" fill="#1F91CF"/>
<path d="M9.96723 14.8634H23.2569V15.7377H9.96723V14.8634Z" fill="#1F91CF"/>
<path d="M9.96723 13.9891H23.2569V14.8634H9.96723V13.9891Z" fill="#1F91CF"/>
<path d="M10.7978 13.1148H23.2569V13.9891H10.7978V13.1148Z" fill="#1F91CF"/>
<path d="M11.6284 12.2405H24.0875V13.1148H11.6284V12.2405Z" fill="#1F91CF"/>
<path d="M12.459 11.3661H24.0875V12.2405H12.459V11.3661Z" fill="#1F91CF"/>
<path d="M13.2896 10.4918H24.0875V11.3661H13.2896V10.4918Z" fill="#1F91CF"/>
<path d="M14.1202 9.6175H24.0875V10.4918H14.1202V9.6175Z" fill="#1F91CF"/>
<path d="M14.9508 8.74318H24.0875V9.6175H14.9508V8.74318Z" fill="#1F91CF"/>
<path d="M15.7814 7.86886H24.0875V8.74318H15.7814V7.86886Z" fill="#1F91CF"/>
<path d="M16.612 6.99455H24.9181V7.86886H16.612V6.99455Z" fill="#1F91CF"/>
<path d="M17.4426 6.12023H24.9181V6.99455H17.4426V6.12023Z" fill="#1F91CF"/>
<path d="M18.2733 5.24591H24.9181V6.12023H18.2733V5.24591Z" fill="#1F91CF"/>
<path d="M9.96723 5.24591H17.4426V6.12023H9.96723V5.24591Z" fill="#1F91CF"/>
<path d="M7.47542 6.12023H16.612V6.99455H7.47542V6.12023Z" fill="#1F91CF"/>
<path d="M5.81422 6.99455H14.9508V7.86886H5.81422V6.99455Z" fill="#1F91CF"/>
<path d="M4.15301 7.86886H14.1202V8.74318H4.15301V7.86886Z" fill="#1F91CF"/>
<path d="M2.49181 8.74318H13.2896V9.6175H2.49181V8.74318Z" fill="#1F91CF"/>
<path d="M0.830602 9.6175H12.459V10.4918H0.830602V9.6175Z" fill="#1F91CF"/>
<path d="M0 10.4918H11.6284V11.3661H0V10.4918Z" fill="#1F91CF"/>
<path d="M1.6612 11.3661H10.7978V12.2405H1.6612V11.3661Z" fill="#1F91CF"/>
<path d="M3.32241 12.2405H9.13663V13.1148H3.32241V12.2405Z" fill="#1F91CF"/>
<path d="M11.6284 4.37159H24.9181V5.24591H11.6284V4.37159Z" fill="#1F91CF"/>
<path d="M13.2896 3.49727H24.9181V4.37159H13.2896V3.49727Z" fill="#1F91CF"/>
<path d="M14.9508 2.62295H24.9181V3.49727H14.9508V2.62295Z" fill="#1F91CF"/>
<path d="M16.612 1.74864H24.9181V2.62295H16.612V1.74864Z" fill="#1F91CF"/>
<path d="M18.2733 0.874318H24.9181V1.74864H18.2733V0.874318Z" fill="#1F91CF"/>
<path d="M20.7651 0H24.9181V0.874318H20.7651V0Z" fill="#1F91CF"/>
</svg>
