<svg width="24" height="24" viewBox="0 0 24 24" fill="none" xmlns="http://www.w3.org/2000/svg">
<rect x="14.8672" y="19.7617" width="2.32489" height="2.32489" fill="#D9D9D9"/>
<rect x="11.3799" y="18.5986" width="3.48734" height="2.32489" fill="#D9D9D9"/>
<rect x="9.05566" y="17.4375" width="8.13712" height="2.32489" fill="#2FB844"/>
<rect x="5.56738" y="16.2744" width="8.13712" height="1.16245" fill="#2FB844"/>
<rect x="4.40527" y="17.4375" width="4.64978" height="1.16245" fill="#2FB844"/>
<rect x="4.40527" y="18.5986" width="2.32489" height="1.16245" fill="#D9D9D9"/>
<rect x="4.40527" y="15.1113" width="6.97468" height="1.16245" fill="#2FB844"/>
<rect x="4.40527" y="13.9502" width="5.81223" height="1.16245" fill="#2FB844"/>
<rect x="3.24316" y="12.7871" width="5.81223" height="1.16245" fill="#2FB844"/>
<rect x="3.24316" y="11.624" width="4.64978" height="1.16245" fill="#2FB844"/>
<rect x="3.24316" y="10.4619" width="3.48734" height="1.16245" fill="#2FB844"/>
<rect x="3.24316" y="9.2998" width="2.32489" height="1.16245" fill="#2FB844"/>
<rect x="6.72949" y="4.65039" width="11.6245" height="1.16245" fill="#2FB844"/>
<rect x="7.89258" y="3.4873" width="9.29957" height="1.16245" fill="#2FB844"/>
<rect x="10.2168" y="2.32422" width="4.64978" height="1.16245" fill="#2FB844"/>
<rect x="11.3799" y="5.81152" width="8.13712" height="1.16245" fill="#2FB844"/>
<rect width="8.13712" height="1.16245" transform="matrix(1 0 0 -1 11.3799 8.13672)" fill="#2FB844"/>
<rect width="8.13712" height="1.16245" transform="matrix(1 0 0 -1 11.3799 9.2998)" fill="#2FB844"/>
<rect width="10.462" height="1.16245" transform="matrix(1 0 0 -1 10.2178 10.4619)" fill="#2FB844"/>
<rect width="10.462" height="1.16245" transform="matrix(1 0 0 -1 10.2168 11.624)" fill="#2FB844"/>
<rect width="10.462" height="1.16245" transform="matrix(1 0 0 -1 10.2178 12.7871)" fill="#2FB844"/>
<rect width="1.16245" height="1.16245" transform="matrix(1 0 0 -1 12.542 13.9502)" fill="#2FB844"/>
<rect width="2.32489" height="1.16245" transform="matrix(1 0 0 -1 18.3545 13.9502)" fill="#2FB844"/>
<rect width="1.16245" height="3.48734" transform="matrix(1 0 0 -1 18.3545 17.4375)" fill="#2FB844"/>
<rect width="1.16245" height="3.48734" transform="matrix(1 0 0 -1 17.1924 18.5986)" fill="#2FB844"/>
<rect width="3.48734" height="1.16245" transform="matrix(1 0 0 -1 13.7041 17.4375)" fill="#2FB844"/>
<rect x="5.56738" y="4.65039" width="1.16245" height="2.32489" fill="#2FB844"/>
<rect x="4.40527" y="5.81152" width="1.16245" height="3.48734" fill="#2FB844"/>
<rect width="2.32489" height="2.32489" transform="matrix(-1 0 0 1 11.3799 19.7617)" fill="#D9D9D9"/>
<rect x="9.05566" y="20.9238" width="5.81223" height="2.32489" fill="#D9D9D9"/>
<rect x="9.05469" width="5.81223" height="2.32489" fill="#D9D9D9"/>
<rect width="2.32489" height="2.32489" transform="matrix(1 0 0 -1 14.8672 3.4873)" fill="#D9D9D9"/>
<rect width="2.32489" height="2.32489" transform="matrix(1 0 0 -1 7.89258 3.4873)" fill="#D9D9D9"/>
<rect x="17.1924" y="18.5986" width="2.32489" height="2.32489" fill="#D9D9D9"/>
<rect width="2.32489" height="2.32489" transform="matrix(-1 0 0 1 9.05469 18.5986)" fill="#D9D9D9"/>
<rect width="2.32489" height="2.32489" transform="matrix(1 0 0 -1 17.1924 4.65039)" fill="#D9D9D9"/>
<rect width="2.32489" height="2.32489" transform="matrix(1 0 0 -1 5.56738 4.65039)" fill="#D9D9D9"/>
<rect width="2.62295" height="2.62295" transform="matrix(1 0 0 -1 3.54004 5.24609)" fill="#D9D9D9"/>
<rect x="19.5166" y="13.9502" width="2.32489" height="3.48734" fill="#D9D9D9"/>
<rect x="13.7041" y="13.9502" width="2.32489" height="2.32489" fill="#D9D9D9"/>
<rect width="2.32489" height="2.32489" transform="matrix(-1 0 0 1 4.40527 13.9502)" fill="#D9D9D9"/>
<rect width="2.32489" height="3.48734" transform="matrix(1 0 0 -1 19.5166 9.2998)" fill="#D9D9D9"/>
<rect x="19.5166" y="5.81152" width="2.32489" height="3.48734" fill="#D9D9D9"/>
<rect x="2.08008" y="5.81152" width="2.32489" height="3.48734" fill="#D9D9D9"/>
<rect x="20.6797" y="9.2998" width="2.32489" height="4.64978" fill="#D9D9D9"/>
<rect x="0.917969" y="9.2998" width="2.32489" height="4.64978" fill="#D9D9D9"/>
<rect x="20.6797" y="17.4375" width="1.16245" height="2.32489" transform="rotate(90 20.6797 17.4375)" fill="#D9D9D9"/>
<rect x="17.1924" y="15.1113" width="1.16245" height="2.32489" transform="rotate(90 17.1924 15.1113)" fill="#D9D9D9"/>
<rect x="18.3545" y="13.9502" width="1.16245" height="3.48734" transform="rotate(90 18.3545 13.9502)" fill="#D9D9D9"/>
<rect x="13.7041" y="13.9502" width="1.16245" height="3.48734" transform="rotate(90 13.7041 13.9502)" fill="#D9D9D9"/>
<rect x="12.542" y="12.7871" width="1.16245" height="3.48734" transform="rotate(90 12.542 12.7871)" fill="#D9D9D9"/>
<rect x="11.3799" y="11.624" width="1.16245" height="3.48734" transform="rotate(90 11.3799 11.624)" fill="#D9D9D9"/>
<rect x="10.2178" y="10.4619" width="1.16245" height="3.48734" transform="rotate(90 10.2178 10.4619)" fill="#D9D9D9"/>
<rect x="10.2178" y="9.2998" width="1.16245" height="4.64978" transform="rotate(90 10.2178 9.2998)" fill="#D9D9D9"/>
<rect x="11.3799" y="8.13672" width="1.16245" height="5.81223" transform="rotate(90 11.3799 8.13672)" fill="#D9D9D9"/>
<rect x="11.3799" y="6.97461" width="1.16245" height="5.81223" transform="rotate(90 11.3799 6.97461)" fill="#D9D9D9"/>
<rect x="11.3799" y="5.81152" width="1.16245" height="4.64978" transform="rotate(90 11.3799 5.81152)" fill="#D9D9D9"/>
<rect x="13.7051" y="15.1113" width="1.16245" height="2.32489" transform="rotate(90 13.7051 15.1113)" fill="#D9D9D9"/>
<rect x="18.3545" y="12.7871" width="1.16245" height="4.64978" transform="rotate(90 18.3545 12.7871)" fill="#D9D9D9"/>
<rect x="17.1924" y="11.624" width="1.16245" height="2.32489" transform="rotate(90 17.1924 11.624)" fill="#D9D9D9"/>
<rect width="1.16245" height="2.32489" transform="matrix(4.37114e-08 1 1 -4.37114e-08 3.24316 16.2744)" fill="#D9D9D9"/>
<rect width="1.16245" height="2.32489" transform="matrix(4.37114e-08 1 1 -4.37114e-08 2.08008 17.4375)" fill="#D9D9D9"/>
<rect width="1.16245" height="2.32489" transform="matrix(4.37114e-08 1 1 -4.37114e-08 2.08008 18.5986)" fill="#D9D9D9"/>
<rect width="1.16245" height="5.81223" transform="matrix(4.37114e-08 1 1 -4.37114e-08 0.917969 19.7617)" fill="#D9D9D9"/>
<rect width="1.16245" height="4.64978" transform="matrix(4.37114e-08 1 1 -4.37114e-08 0.917969 20.9238)" fill="#D9D9D9"/>
<rect width="1.16245" height="3.48734" transform="matrix(4.37114e-08 1 1 -4.37114e-08 0.917969 22.0859)" fill="#D9D9D9"/>
<rect width="1.16245" height="2.32489" transform="matrix(-4.37114e-08 -1 -1 4.37114e-08 20.6797 5.81152)" fill="#D9D9D9"/>
<rect width="1.16245" height="2.32489" transform="matrix(-4.37114e-08 -1 -1 4.37114e-08 5.56738 5.81152)" fill="#D9D9D9"/>
</svg>
