<svg width="1831" height="782" viewBox="0 0 1831 782" fill="none" xmlns="http://www.w3.org/2000/svg">
<rect x="1664" y="161" width="16" height="45" fill="white"/>
<rect x="1695" y="175.5" width="16" height="45" transform="rotate(90 1695 175.5)" fill="white"/>
<rect x="125.912" y="79.5" width="6.75556" height="19" fill="white"/>
<rect x="139" y="85.6222" width="6.75556" height="19" transform="rotate(90 139 85.6222)" fill="white"/>
<rect x="1709.66" y="617.5" width="7.17778" height="22" fill="white" stroke="black"/>
<rect x="1724.5" y="624.911" width="7.17778" height="22" transform="rotate(90 1724.5 624.911)" fill="white" stroke="black"/>
<rect x="1118" y="704" width="11" height="11" fill="white"/>
<rect x="1293" width="16" height="15" fill="white"/>
<rect x="1815" y="610" width="16" height="15" fill="white"/>
<rect x="1116" y="116" width="8" height="7" fill="white"/>
<rect x="413" y="586" width="16" height="15" fill="white"/>
<rect x="1497" y="594" width="16" height="15" fill="white"/>
<rect x="1322" y="767" width="16" height="15" fill="white"/>
<rect x="62.9111" y="225" width="6.75556" height="19" fill="white"/>
<rect x="76" y="231.122" width="6.75556" height="19" transform="rotate(90 76 231.122)" fill="white"/>
<rect x="5.28906" y="585" width="6.04444" height="17" fill="white"/>
<rect x="17" y="590.478" width="6.04444" height="17" transform="rotate(90 17 590.478)" fill="white"/>
</svg>
