<svg width="89" height="106" viewBox="0 0 89 106" fill="none" xmlns="http://www.w3.org/2000/svg">
<rect x="89" y="8" width="88" height="5" transform="rotate(90 89 8)" fill="#D9D9D9"/>
<rect x="4" y="8" width="88" height="4" transform="rotate(90 4 8)" fill="#D9D9D9"/>
<rect x="79" y="4" width="70" height="4" transform="rotate(-180 79 4)" fill="#D9D9D9"/>
<rect x="79.0376" y="106" width="69.5619" height="4.60952" transform="rotate(-180 79.0376 106)" fill="#D9D9D9"/>
<rect width="8.21067" height="9.14159" transform="matrix(-1 0 0 1 36.2104 51)" fill="white"/>
<rect width="10" height="9" transform="matrix(-1 0 0 1 53.6831 51)" fill="white"/>
<rect x="9" y="68.5664" width="8.21067" height="9.14159" fill="white"/>
<rect x="9" y="59.4248" width="8.21067" height="9.14159" fill="white"/>
<rect x="9" y="50.2832" width="8.21067" height="9.14159" fill="white"/>
<rect x="9" y="41.1411" width="8.21067" height="9.14159" fill="white"/>
<rect x="17.2114" y="32" width="8.21067" height="9.14159" fill="white"/>
<rect x="25.4214" y="32" width="8.21067" height="9.14159" fill="white"/>
<rect x="33.6318" y="32" width="8.21067" height="9.14159" fill="white"/>
<rect x="41.8433" y="32" width="22.5794" height="9.14159" fill="white"/>
<rect x="31" y="23" width="22.5794" height="9.14159" fill="white"/>
<rect x="65.4482" y="41.1411" width="8.21067" height="9.14159" fill="white"/>
<rect x="65.4482" y="50.2832" width="8.21067" height="9.14159" fill="white"/>
<rect x="65.4482" y="59.4248" width="8.21067" height="9.14159" fill="white"/>
<rect x="65.4482" y="68.5664" width="8.21067" height="9.14159" fill="white"/>
<rect x="65.4482" y="77.708" width="8.21067" height="9.14159" fill="white"/>
<rect x="9.99707" y="82.5308" width="62.4158" height="9.23487" fill="white"/>
<rect x="20.1582" y="91.7651" width="46.449" height="9.23487" fill="white"/>
<rect x="13.1045" y="73.7896" width="53.3694" height="9.14159" fill="white"/>
<rect x="9" y="77.708" width="8.21067" height="9.14159" fill="white"/>
<rect width="8.21067" height="9.14159" transform="matrix(-1 0 0 1 62.3696 77.708)" fill="black"/>
<rect x="9.47607" y="101.391" width="5.02857" height="5.02857" transform="rotate(-180 9.47607 101.391)" fill="#D9D9D9"/>
<rect x="84.0664" y="101.391" width="5.02857" height="5.02857" transform="rotate(-180 84.0664 101.391)" fill="#D9D9D9"/>
<rect x="9" y="8" width="5" height="4" transform="rotate(-180 9 8)" fill="#D9D9D9"/>
<rect x="84" y="8" width="5" height="4" transform="rotate(-180 84 8)" fill="#D9D9D9"/>
</svg>
