<svg width="28" height="45" viewBox="0 0 28 45" fill="none" xmlns="http://www.w3.org/2000/svg">
<rect x="14.1431" y="19.5715" width="5.85714" height="11.7143" transform="rotate(90 14.1431 19.5715)" fill="white" stroke="white" stroke-width="3"/>
<rect x="14.1431" y="13.7144" width="5.85714" height="5.85714" transform="rotate(90 14.1431 13.7144)" fill="white" stroke="white" stroke-width="3"/>
<rect width="5.85714" height="5.85714" transform="matrix(4.37114e-08 1 1 -4.37114e-08 20 37.1428)" fill="white" stroke="white" stroke-width="3"/>
<rect x="20" y="7.85718" width="5.85714" height="5.85714" transform="rotate(90 20 7.85718)" fill="white" stroke="white" stroke-width="3"/>
<rect width="5.85714" height="5.85714" transform="matrix(4.37114e-08 1 1 -4.37114e-08 14.1431 31.2856)" fill="white" stroke="white" stroke-width="3"/>
<rect x="25.8574" y="2" width="5.85714" height="5.85714" transform="rotate(90 25.8574 2)" fill="white" stroke="white" stroke-width="3"/>
<rect width="5.85714" height="5.85714" transform="matrix(4.37114e-08 1 1 -4.37114e-08 8.28613 25.4285)" fill="white" stroke="white" stroke-width="3"/>
</svg>
