<svg width="42" height="16" viewBox="0 0 42 16" fill="none" xmlns="http://www.w3.org/2000/svg">
<path d="M41.7686 0H40.5401V1.26571H41.7686V0Z" fill="white"/>
<path d="M7.37096 0H6.14248V1.26571H7.37096V0Z" fill="white"/>
<path d="M40.5401 1.26571H39.3116V2.53142H40.5401V1.26571Z" fill="white"/>
<path d="M6.14248 1.26571H4.91399V2.53142H6.14248V1.26571Z" fill="white"/>
<path d="M39.3116 2.53142H38.0831V3.79714H39.3116V2.53142Z" fill="white"/>
<path d="M4.91399 2.53142H3.68551V3.79714H4.91399V2.53142Z" fill="white"/>
<path d="M38.0831 3.79714H36.8546V5.06285H38.0831V3.79714Z" fill="white"/>
<path d="M3.68551 3.79714H2.45702V5.06285H3.68551V3.79714Z" fill="white"/>
<path d="M36.8546 5.06285H35.6261V6.32856H36.8546V5.06285Z" fill="white"/>
<path d="M2.45702 5.06285H1.22854V6.32856H2.45702V5.06285Z" fill="white"/>
<path d="M6.14248 10.1257H4.91399V11.3914H6.14248V10.1257Z" fill="white"/>
<path d="M24.5698 10.1257H23.3413V11.3914H24.5698V10.1257Z" fill="white"/>
<path d="M7.37096 11.3914H6.14248V12.6571H7.37096V11.3914Z" fill="white"/>
<path d="M25.7982 11.3914H24.5698V12.6571H25.7982V11.3914Z" fill="white"/>
<path d="M8.59945 12.6571H7.37096V13.9228H8.59945V12.6571Z" fill="white"/>
<path d="M27.0267 12.6571H25.7982V13.9228H27.0267V12.6571Z" fill="white"/>
<path d="M35.6261 6.32856H34.3976V7.59427H35.6261V6.32856Z" fill="white"/>
<path d="M35.6261 8.85998H19.2463V10.1257H35.6261V8.85998Z" fill="white"/>
<path d="M16.3799 8.85998H5.34058e-05V10.1257H16.3799V8.85998Z" fill="white"/>
<path d="M16.3799 10.1257H7.37096V11.3914H16.3799V10.1257Z" fill="white"/>
<path d="M34.8071 10.1257H25.7982V11.3914H34.8071V10.1257Z" fill="white"/>
<path d="M3.68551 10.1257H0.819042V11.3914H3.68551V10.1257Z" fill="white"/>
<path d="M22.1128 10.1257H19.2463V11.3914H22.1128V10.1257Z" fill="white"/>
<path d="M4.91399 11.3914H2.04753V12.6571H4.91399V11.3914Z" fill="white"/>
<path d="M23.3413 11.3914H20.4748V12.6571H23.3413V11.3914Z" fill="white"/>
<path d="M6.55198 12.6571H3.68551V13.9228H6.55198V12.6571Z" fill="white"/>
<path d="M24.9793 12.6571H22.1128V13.9228H24.9793V12.6571Z" fill="white"/>
<path d="M14.7419 11.3914H8.59945V12.6571H14.7419V11.3914Z" fill="white"/>
<path d="M33.1692 11.3914H27.0267V12.6571H33.1692V11.3914Z" fill="white"/>
<path d="M13.5134 12.6571H9.82794V13.9228H13.5134V12.6571Z" fill="white"/>
<path d="M31.9407 12.6571H28.2552V13.9228H31.9407V12.6571Z" fill="white"/>
<path d="M12.2849 13.9228H4.91399V15.1885H12.2849V13.9228Z" fill="white"/>
<path d="M30.7122 13.9228H23.3413V15.1885H30.7122V13.9228Z" fill="white"/>
<path d="M1.22854 6.32856H5.34058e-05V7.59427H1.22854V6.32856Z" fill="white"/>
<path d="M35.6261 7.59427H5.34058e-05V8.85998H35.6261V7.59427Z" fill="white"/>
</svg>
