<svg width="43" height="52" viewBox="0 0 43 52" fill="none" xmlns="http://www.w3.org/2000/svg">
<rect x="24" width="8" height="7" fill="#E31E25"/>
<rect x="21" y="4" width="8" height="7" fill="#E31E25"/>
<rect x="17" y="7" width="8" height="7" fill="#E31E25"/>
<rect x="14" y="10" width="8" height="7" fill="#E31E25"/>
<rect x="10" y="14" width="8" height="7" fill="#E31E25"/>
<rect x="10" y="45" width="18" height="7" fill="#E31E25"/>
<rect x="7" y="17" width="8" height="7" fill="#E31E25"/>
<rect x="7" y="41" width="8" height="7" fill="#E31E25"/>
<rect x="13" y="41" width="18" height="7" fill="#E31E25"/>
<rect x="4" y="21" width="20" height="7" fill="#E31E25"/>
<rect x="4" y="37" width="8" height="7" fill="#E31E25"/>
<rect x="10" y="37" width="25" height="7" fill="#E31E25"/>
<rect y="34" width="38" height="7" fill="#E31E25"/>
<rect x="35" y="31" width="8" height="7" fill="#E31E25"/>
<rect x="30" y="21" width="8" height="7" fill="#E31E25"/>
<rect x="27" y="25" width="8" height="7" fill="#E31E25"/>
<rect x="21" y="17" width="8" height="7" fill="#E31E25"/>
<rect x="25" y="13" width="8" height="7" fill="#E31E25"/>
<rect x="2.99951" y="7" width="8" height="7" fill="#E31E25"/>
<rect x="7.99951" y="2" width="8" height="7" fill="#E31E25"/>
<rect x="5" y="28" width="26" height="7" fill="#E31E25"/>
<rect y="24" width="8" height="17" fill="#E31E25"/>
</svg>
