<svg width="81" height="53" viewBox="0 0 81 53" fill="none" xmlns="http://www.w3.org/2000/svg">
<rect width="4.6087" height="4.6087" transform="matrix(5.27188e-08 -1 -1 -3.6243e-08 14.1245 53)" fill="#E31E25"/>
<rect width="4.6087" height="4.6087" transform="matrix(5.27188e-08 -1 -1 -3.6243e-08 75.1895 53)" fill="#E31E25"/>
<rect width="4.6087" height="4.6087" transform="matrix(5.27188e-08 -1 -1 -3.6243e-08 14.1245 39.1738)" fill="#E31E25"/>
<rect width="4.6087" height="4.6087" transform="matrix(5.27188e-08 -1 -1 -3.6243e-08 75.1895 39.1738)" fill="#E31E25"/>
<rect width="4.6087" height="40.3261" transform="matrix(7.68816e-08 -1 -1 -2.48523e-08 60.2109 39.1738)" fill="#E31E25"/>
<rect width="4.6087" height="4.6087" transform="matrix(5.27188e-08 -1 -1 -3.6243e-08 30.2544 39.1738)" fill="#E31E25"/>
<rect width="4.6087" height="4.6087" transform="matrix(1 9.64302e-08 7.99543e-08 -1 0.297852 48.3914)" fill="#E31E25"/>
<rect width="4.6087" height="4.6087" transform="matrix(1 9.64302e-08 7.99543e-08 -1 61.3633 48.3914)" fill="#E31E25"/>
<rect width="38.0218" height="4.6087" transform="matrix(1 1.75328e-08 4.39749e-07 -1 21.0371 48.3914)" fill="#E31E25"/>
<rect width="4.6087" height="4.6087" transform="matrix(1 9.64302e-08 7.99543e-08 -1 14.1245 48.3914)" fill="#E31E25"/>
<rect width="4.6087" height="4.6087" transform="matrix(1 9.64302e-08 7.99543e-08 -1 75.1895 48.3914)" fill="#E31E25"/>
<rect width="4.6087" height="4.6087" transform="matrix(5.27188e-08 -1 -1 -3.6243e-08 9.51514 53)" fill="#E31E25"/>
<rect width="4.6087" height="4.6087" transform="matrix(5.27188e-08 -1 -1 -3.6243e-08 70.5811 53)" fill="#E31E25"/>
<rect width="4.6087" height="4.6087" transform="matrix(5.27188e-08 -1 -1 -3.6243e-08 9.51514 39.1738)" fill="#E31E25"/>
<rect width="4.6087" height="4.6087" transform="matrix(5.27188e-08 -1 -1 -3.6243e-08 6.05908 23.0435)" fill="#E31E25"/>
<rect width="4.6087" height="4.6087" transform="matrix(5.27188e-08 -1 -1 -3.6243e-08 10.6675 18.4348)" fill="#E31E25"/>
<rect width="4.6087" height="4.6087" transform="matrix(5.27188e-08 -1 -1 -3.6243e-08 15.2759 13.826)" fill="#E31E25"/>
<rect width="4.6087" height="4.6087" transform="matrix(5.27188e-08 -1 -1 -3.6243e-08 65.9717 18.4348)" fill="#E31E25"/>
<rect width="4.6087" height="4.6087" transform="matrix(5.27188e-08 -1 -1 -3.6243e-08 62.5151 18.4348)" fill="#E31E25"/>
<rect width="4.6087" height="4.6087" transform="matrix(5.27188e-08 -1 -1 -3.6243e-08 65.9717 13.826)" fill="#E31E25"/>
<rect width="4.6087" height="4.6087" transform="matrix(5.27188e-08 -1 -1 -3.6243e-08 70.5811 18.4348)" fill="#E31E25"/>
<rect width="4.6087" height="4.6087" transform="matrix(5.27188e-08 -1 -1 -3.6243e-08 70.5811 13.826)" fill="#E31E25"/>
<rect width="4.6087" height="4.6087" transform="matrix(5.27188e-08 -1 -1 -3.6243e-08 75.1895 18.4348)" fill="#E31E25"/>
<rect width="4.6087" height="4.6087" transform="matrix(5.27188e-08 -1 -1 -3.6243e-08 75.1895 13.826)" fill="#E31E25"/>
<rect width="4.6087" height="4.6087" transform="matrix(5.27188e-08 -1 -1 -3.6243e-08 19.8848 9.21741)" fill="#E31E25"/>
<path d="M55.0264 4.60864L55.0264 -5.43594e-05L19.885 -5.56331e-05L19.885 4.60864L55.0264 4.60864Z" fill="#E31E25"/>
<path d="M55.0264 9.21741L55.0264 4.60871L36.0155 4.60871L36.0155 9.21741L55.0264 9.21741Z" fill="#E31E25"/>
<path d="M55.0264 13.826L55.0264 9.21735L31.4068 9.21735L31.4068 13.826L55.0264 13.826Z" fill="#E31E25"/>
<path d="M55.0264 18.4348L55.0264 13.8261L27.9503 13.8261L27.9503 18.4348L55.0264 18.4348Z" fill="#E31E25"/>
<path d="M80.374 23.0435L80.374 18.4348L23.3414 18.4348L23.3414 23.0435L80.374 23.0435Z" fill="#E31E25"/>
<rect width="4.6087" height="4.6087" transform="matrix(5.27188e-08 -1 -1 -3.6243e-08 70.5811 39.1738)" fill="#E31E25"/>
<rect width="4.6087" height="5.76087" transform="matrix(5.27188e-08 -1 -1 -3.6243e-08 25.646 39.1738)" fill="#E31E25"/>
<rect width="4.6087" height="4.6087" transform="matrix(1 9.64302e-08 7.99543e-08 -1 61.3633 43.7826)" fill="#E31E25"/>
<rect width="4.6087" height="4.6087" transform="matrix(1 9.64302e-08 7.99543e-08 -1 0.297852 43.7826)" fill="#E31E25"/>
<rect width="38.0218" height="4.6087" transform="matrix(1 1.75328e-08 4.39749e-07 -1 21.0371 43.7826)" fill="#E31E25"/>
<rect width="40.3261" height="4.6087" transform="matrix(1 1.75328e-08 4.39749e-07 -1 19.8848 35.7174)" fill="#E31E25"/>
<path d="M1.4502 31.1086L80.3742 31.1086L80.3742 23.0434L1.4502 23.0434L1.4502 31.1086Z" fill="#E31E25"/>
<rect width="4.6087" height="4.6087" transform="matrix(1 9.64302e-08 7.99543e-08 -1 14.1245 43.7826)" fill="#E31E25"/>
<rect width="4.6087" height="4.6087" transform="matrix(1 9.64302e-08 7.99543e-08 -1 75.1895 43.7826)" fill="#E31E25"/>
<rect width="3.45652" height="17.2826" transform="matrix(5.27188e-08 -1 -1 -3.6243e-08 42.9282 44.9348)" fill="black"/>
<rect width="4.6087" height="4.6087" transform="matrix(5.27188e-08 -1 -1 -3.6243e-08 33.7109 27.6522)" fill="black"/>
</svg>
