<svg width="64" height="53" viewBox="0 0 64 53" fill="none" xmlns="http://www.w3.org/2000/svg">
<rect x="0.946289" y="15.0304" width="5.72586" height="5.01013" fill="#E31E25"/>
<rect width="5.72586" height="5.01013" transform="matrix(-1 0 0 1 63.2153 15.0304)" fill="#E31E25"/>
<rect width="5.72586" height="5.01013" transform="matrix(-1 0 0 1 23.8496 15.0304)" fill="#E31E25"/>
<rect width="5.72586" height="5.01013" transform="matrix(-1 0 0 1 23.8496 10.0203)" fill="#E31E25"/>
<rect width="5.72586" height="5.01013" transform="matrix(-1 0 0 1 29.5757 15.0304)" fill="#E31E25"/>
<rect width="5.72586" height="5.01013" transform="matrix(-1 0 0 1 35.3018 15.0304)" fill="#E31E25"/>
<rect width="5.72586" height="5.01013" transform="matrix(-1 0 0 1 35.3018 10.0203)" fill="#E31E25"/>
<rect width="5.72586" height="5.01013" transform="matrix(-1 0 0 1 41.0278 15.0304)" fill="#E31E25"/>
<rect width="5.72586" height="5.01013" transform="matrix(-1 0 0 1 46.7529 15.0304)" fill="#E31E25"/>
<rect width="5.72586" height="5.01013" transform="matrix(-1 0 0 1 46.7529 10.0203)" fill="#E31E25"/>
<rect x="3.80908" y="20.0405" width="5.72586" height="5.01013" fill="#E31E25"/>
<rect width="5.72586" height="5.01013" transform="matrix(-1 0 0 1 60.3521 20.0405)" fill="#E31E25"/>
<rect x="9.53516" y="20.0405" width="5.72586" height="5.01013" fill="#E31E25"/>
<rect x="9.53516" y="15.0304" width="5.72586" height="5.01013" fill="#E31E25"/>
<rect x="9.53516" y="10.0203" width="5.72586" height="5.01013" fill="#E31E25"/>
<rect x="9.53516" y="5.01013" width="5.72586" height="5.01013" fill="#E31E25"/>
<rect x="15.2612" width="5.72586" height="5.01013" fill="#E31E25"/>
<rect x="20.9868" width="5.72586" height="5.01013" fill="#E31E25"/>
<rect x="26.7129" width="5.72586" height="5.01013" fill="#E31E25"/>
<rect x="32.439" width="15.7461" height="5.01013" fill="#E31E25"/>
<rect x="48.9004" y="5.01013" width="5.72586" height="5.01013" fill="#E31E25"/>
<rect x="48.9004" y="10.0203" width="5.72586" height="5.01013" fill="#E31E25"/>
<rect x="48.9004" y="15.0304" width="5.72586" height="5.01013" fill="#E31E25"/>
<rect x="48.9004" y="20.0405" width="5.72586" height="5.01013" fill="#E31E25"/>
<rect x="48.9004" y="25.0507" width="5.72586" height="5.01013" fill="#E31E25"/>
<rect x="40.5981" y="37.8162" width="6.0735" height="15.1838" fill="#E31E25"/>
<rect width="6.0735" height="15.1838" transform="matrix(-1 0 0 1 25.7314 37.8162)" fill="#E31E25"/>
<rect x="46.3242" y="47.9388" width="5.72586" height="5.01013" fill="#E31E25"/>
<rect width="5.72586" height="5.01013" transform="matrix(-1 0 0 1 20.0059 47.9388)" fill="#E31E25"/>
<rect x="10.2305" y="27.6937" width="43.5268" height="5.06125" fill="#E31E25"/>
<rect x="17.3164" y="32.755" width="32.392" height="5.06125" fill="#E31E25"/>
<rect x="12.3979" y="22.9034" width="37.2181" height="5.01013" fill="#E31E25"/>
<rect x="9.53516" y="25.0507" width="5.72586" height="5.01013" fill="#E31E25"/>
<rect width="5.72586" height="5.01013" transform="matrix(-1 0 0 1 38.1646 25.0507)" fill="black"/>
<rect width="5.72586" height="5.01013" transform="matrix(-1 0 0 1 46.7529 25.0507)" fill="black"/>
</svg>
