<svg width="102" height="54" viewBox="0 0 102 54" fill="none" xmlns="http://www.w3.org/2000/svg">
<rect width="5.31194" height="4.64795" transform="matrix(-1 0 0 1 5.44678 15.6099)" fill="#E31E25"/>
<rect width="5.31194" height="4.64795" transform="matrix(-1 0 0 1 12.6367 15.6099)" fill="#E31E25"/>
<rect width="5.31194" height="4.64795" transform="matrix(-1 0 0 1 19.8271 15.6099)" fill="#E31E25"/>
<rect width="5.31194" height="4.64795" transform="matrix(-1 0 0 1 5.44678 23.0751)" fill="#E31E25"/>
<rect width="5.31194" height="4.64795" transform="matrix(-1 0 0 1 5.44678 30.5403)" fill="#E31E25"/>
<rect width="5.31194" height="4.64795" transform="matrix(-1 0 0 1 12.6367 23.0751)" fill="#E31E25"/>
<rect width="5.31194" height="4.64795" transform="matrix(-1 0 0 1 12.6367 30.5403)" fill="#E31E25"/>
<rect width="5.31194" height="4.64795" transform="matrix(-1 0 0 1 19.8271 23.0751)" fill="#E31E25"/>
<rect width="5.31194" height="4.64795" transform="matrix(-1 0 0 1 19.8271 30.5403)" fill="#E31E25"/>
<rect width="5.31194" height="4.64795" transform="matrix(-1 0 0 1 87.146 15.61)" fill="#E31E25"/>
<rect width="5.31194" height="4.64795" transform="matrix(-1 0 0 1 94.3364 15.61)" fill="#E31E25"/>
<rect width="5.31194" height="4.64795" transform="matrix(-1 0 0 1 101.527 15.61)" fill="#E31E25"/>
<rect width="5.31194" height="4.64795" transform="matrix(-1 0 0 1 87.146 23.0752)" fill="#E31E25"/>
<rect width="5.31194" height="4.64795" transform="matrix(-1 0 0 1 87.146 30.5404)" fill="#E31E25"/>
<rect width="5.31194" height="4.64795" transform="matrix(-1 0 0 1 94.3364 23.0752)" fill="#E31E25"/>
<rect width="5.31194" height="4.64795" transform="matrix(-1 0 0 1 94.3364 30.5404)" fill="#E31E25"/>
<rect width="5.31194" height="4.64795" transform="matrix(-1 0 0 1 101.527 23.0752)" fill="#E31E25"/>
<rect width="5.31194" height="4.64795" transform="matrix(-1 0 0 1 101.527 30.5404)" fill="#E31E25"/>
<rect width="5.31194" height="4.64795" transform="matrix(-1 0 0 1 75.7446 18.2848)" fill="#E31E25"/>
<rect width="5.31194" height="4.64795" transform="matrix(-1 0 0 1 78.6943 18.2848)" fill="#E31E25"/>
<rect width="5.31194" height="4.64795" transform="matrix(-1 0 0 1 78.6943 14.6708)" fill="#E31E25"/>
<rect width="5.31194" height="4.64795" transform="matrix(-1 0 0 1 75.7446 27.5808)" fill="#E31E25"/>
<rect width="5.31194" height="4.64795" transform="matrix(-1 0 0 1 78.6943 27.5808)" fill="#E31E25"/>
<rect width="5.31194" height="4.64795" transform="matrix(-1 0 0 1 78.6943 31.5741)" fill="#E31E25"/>
<rect width="5.31194" height="4.64795" transform="matrix(-1 0 0 1 75.7446 22.9329)" fill="#E31E25"/>
<rect width="5.31194" height="4.64795" transform="matrix(-1 0 0 1 78.6943 22.9329)" fill="#E31E25"/>
<rect width="5.31194" height="4.64795" transform="matrix(-1 0 0 1 73.0889 22.9327)" fill="#E31E25"/>
<rect width="5.31194" height="4.64795" transform="matrix(-1 0 0 1 68.3643 22.9327)" fill="#E31E25"/>
<rect x="26.561" y="18.2848" width="5.31194" height="4.64795" fill="#E31E25"/>
<rect x="23.6113" y="18.2848" width="5.31194" height="4.64795" fill="#E31E25"/>
<rect x="23.6113" y="14.6708" width="5.31194" height="4.64795" fill="#E31E25"/>
<rect x="26.561" y="27.5808" width="5.31194" height="4.64795" fill="#E31E25"/>
<rect x="23.6113" y="27.5808" width="5.31194" height="4.64795" fill="#E31E25"/>
<rect x="23.6113" y="31.5741" width="5.31194" height="4.64795" fill="#E31E25"/>
<rect x="26.561" y="22.9329" width="5.31194" height="4.64795" fill="#E31E25"/>
<rect x="23.6113" y="22.9329" width="5.31194" height="4.64795" fill="#E31E25"/>
<rect x="29.2168" y="22.9327" width="5.31194" height="4.64795" fill="#E31E25"/>
<rect x="33.9409" y="22.9327" width="5.31194" height="4.64795" fill="#E31E25"/>
<rect x="36.7583" width="26.2941" height="4.69537" fill="#E31E25"/>
<rect x="36.9395" y="7.81384" width="26.0461" height="37.3327" fill="#E31E25"/>
<rect width="3.7563" height="3.7563" transform="matrix(-1 0 0 1 46.1489 17.488)" fill="black"/>
<rect width="3.7563" height="3.7563" transform="matrix(-1 0 0 1 46.1489 22.1835)" fill="black"/>
<rect x="36.7583" y="48.6193" width="26.2941" height="4.69537" fill="#E31E25"/>
</svg>
