<svg width="30" height="35" viewBox="0 0 30 35" fill="none" xmlns="http://www.w3.org/2000/svg">
<rect x="25.4902" y="1.8822" width="2.56438" height="23.9342" fill="black" stroke="black" stroke-width="2.06852"/>
<rect x="28.0547" y="23.2521" width="2.56438" height="26.4986" transform="rotate(90 28.0547 23.2521)" fill="black" stroke="black" stroke-width="2.06852"/>
<rect x="6.68506" y="20.6877" width="2.56438" height="2.56438" transform="rotate(90 6.68506 20.6877)" fill="black" stroke="black" stroke-width="2.06852"/>
<rect width="2.56438" height="2.56438" transform="matrix(4.37114e-08 1 1 -4.37114e-08 9.24951 30.9453)" fill="black" stroke="black" stroke-width="2.06852"/>
<rect x="9.24951" y="18.1233" width="2.56438" height="2.56438" transform="rotate(90 9.24951 18.1233)" fill="black" stroke="black" stroke-width="2.06852"/>
<rect width="2.56438" height="2.56438" transform="matrix(4.37114e-08 1 1 -4.37114e-08 6.68506 28.3809)" fill="black" stroke="black" stroke-width="2.06852"/>
<rect x="11.8135" y="15.559" width="2.56438" height="2.56438" transform="rotate(90 11.8135 15.559)" fill="black" stroke="black" stroke-width="2.06852"/>
<rect width="2.56438" height="2.56438" transform="matrix(4.37114e-08 1 1 -4.37114e-08 4.12061 25.8164)" fill="black" stroke="black" stroke-width="2.06852"/>
</svg>
