<svg width="25" height="19" viewBox="0 0 25 19" fill="none" xmlns="http://www.w3.org/2000/svg">
<path d="M4.19054 0H6.11442V1.89857H4.19054V0Z" fill="#D9D9D9"/>
<path d="M15.7338 0H17.6577V1.89857H15.7338V0Z" fill="#D9D9D9"/>
<path d="M6.11442 0H8.0383V1.89857H6.11442V0Z" fill="#D9D9D9"/>
<path d="M17.6577 0H19.5816V1.89857H17.6577V0Z" fill="#D9D9D9"/>
<path d="M8.0383 0H9.96218V1.89857H8.0383V0Z" fill="#D9D9D9"/>
<path d="M19.5816 0H21.5055V1.89857H19.5816V0Z" fill="#D9D9D9"/>
<path d="M9.96218 1.89857H11.8861V3.79714H9.96218V1.89857Z" fill="#D9D9D9"/>
<path d="M11.8861 3.79714H13.81V5.6957H11.8861V3.79714Z" fill="#D9D9D9"/>
<path d="M0.342773 5.6957H2.26666V7.59427H0.342773V5.6957Z" fill="#D9D9D9"/>
<path d="M24.3913 5.6957H22.4674V7.59427H24.3913V5.6957Z" fill="#D9D9D9"/>
<path d="M2.26666 7.59427H4.19054V9.49284H2.26666V7.59427Z" fill="#D9D9D9"/>
<path d="M22.4674 7.59427H20.5435V9.49284H22.4674V7.59427Z" fill="#D9D9D9"/>
<path d="M4.19054 9.49284H6.11442V11.3914H4.19054V9.49284Z" fill="#D9D9D9"/>
<path d="M20.5435 9.49284H18.6197V11.3914H20.5435V9.49284Z" fill="#D9D9D9"/>
<path d="M6.11442 11.3914H8.0383V13.29H6.11442V11.3914Z" fill="#D9D9D9"/>
<path d="M18.6197 11.3914H16.6958V13.29H18.6197V11.3914Z" fill="#D9D9D9"/>
<path d="M8.0383 13.29H9.96218V15.1885H8.0383V13.29Z" fill="#D9D9D9"/>
<path d="M16.6958 13.29H14.7719V15.1885H16.6958V13.29Z" fill="#D9D9D9"/>
<path d="M9.96218 15.1885H11.8861V17.0871H9.96218V15.1885Z" fill="#D9D9D9"/>
<path d="M14.7719 15.1885H12.848V17.0871H14.7719V15.1885Z" fill="#D9D9D9"/>
<path d="M10.9241 17.0871H12.848V18.9857H10.9241V17.0871Z" fill="#D9D9D9"/>
<path d="M0.342773 3.79714H2.26666V5.6957H0.342773V3.79714Z" fill="#D9D9D9"/>
<path d="M24.3913 3.79714H22.4674V5.6957H24.3913V3.79714Z" fill="#D9D9D9"/>
<path d="M13.81 1.89857H15.7338V3.79714H13.81V1.89857Z" fill="#D9D9D9"/>
<path d="M2.26666 1.89857H4.19054V3.79714H2.26666V1.89857Z" fill="#D9D9D9"/>
<path d="M22.4674 1.89857H20.5435V3.79714H22.4674V1.89857Z" fill="#D9D9D9"/>
</svg>
