<svg width="73" height="98" viewBox="0 0 73 98" fill="none" xmlns="http://www.w3.org/2000/svg">
<path d="M0.0839844 60.6465L36.1464 24.584L38.2677 26.7054L2.2053 62.7678L0.0839844 60.6465Z" fill="#D9D9D9"/>
<path d="M72.916 61.3536L36.8535 25.2911L34.7322 27.4125L70.7947 63.4749L72.916 61.3536Z" fill="#D9D9D9"/>
<path d="M4.32662 60.6465L38.2677 26.7054L40.3891 28.8267L6.44795 62.7678L4.32662 60.6465Z" fill="#D9D9D9"/>
<path d="M68.6733 61.3536L34.7322 27.4125L32.6109 29.5338L66.552 63.4749L68.6733 61.3536Z" fill="#D9D9D9"/>
<path d="M8.56927 60.6465L40.3891 28.8267L42.5104 30.948L10.6906 62.7678L8.56927 60.6465Z" fill="#D9D9D9"/>
<path d="M64.4307 61.3536L32.6109 29.5338L30.4896 31.6551L62.3094 63.4749L64.4307 61.3536Z" fill="#D9D9D9"/>
<path d="M12.8119 60.6465L42.5104 30.948L44.6317 33.0693L14.9332 62.7678L12.8119 60.6465Z" fill="#D9D9D9"/>
<path d="M60.1881 61.3536L30.4896 31.6551L28.3683 33.7764L58.0667 63.4749L60.1881 61.3536Z" fill="#D9D9D9"/>
<path d="M17.0545 60.6465L44.6317 33.0693L46.753 35.1906L19.1759 62.7678L17.0545 60.6465Z" fill="#D9D9D9"/>
<path d="M55.9454 61.3536L28.3683 33.7764L26.2469 35.8977L53.8241 63.4749L55.9454 61.3536Z" fill="#D9D9D9"/>
<path d="M21.2972 60.6465L46.753 35.1906L48.8744 37.312L23.4185 62.7678L21.2972 60.6465Z" fill="#D9D9D9"/>
<path d="M51.7028 61.3536L26.2469 35.8977L24.1256 38.0191L49.5815 63.4749L51.7028 61.3536Z" fill="#D9D9D9"/>
<path d="M0.0839844 36.0625L36.1464 5.47767e-05L38.2677 2.12138L2.2053 38.1838L0.0839844 36.0625Z" fill="#D9D9D9"/>
<path d="M72.916 36.7696L36.8535 0.707159L34.7322 2.82848L70.7947 38.8909L72.916 36.7696Z" fill="#D9D9D9"/>
<path d="M4.32662 36.0625L38.2677 2.12138L40.3891 4.2427L6.44795 38.1838L4.32662 36.0625Z" fill="#D9D9D9"/>
<path d="M68.6733 36.7696L34.7322 2.82848L32.6109 4.9498L66.552 38.8909L68.6733 36.7696Z" fill="#D9D9D9"/>
<path d="M8.56927 36.0625L40.3891 4.2427L42.5104 6.36402L10.6906 38.1838L8.56927 36.0625Z" fill="#D9D9D9"/>
<path d="M64.4307 36.7696L32.6109 4.9498L30.4896 7.07112L62.3094 38.8909L64.4307 36.7696Z" fill="#D9D9D9"/>
<path d="M12.8119 36.0625L42.5104 6.36402L44.6317 8.48534L14.9332 38.1838L12.8119 36.0625Z" fill="#D9D9D9"/>
<path d="M60.1881 36.7696L30.4896 7.07112L28.3683 9.19244L58.0667 38.8909L60.1881 36.7696Z" fill="#D9D9D9"/>
<path d="M17.0545 36.0625L44.6317 8.48534L46.753 10.6067L19.1759 38.1838L17.0545 36.0625Z" fill="#D9D9D9"/>
<path d="M55.9454 36.7696L28.3683 9.19244L26.2469 11.3138L53.8241 38.8909L55.9454 36.7696Z" fill="#D9D9D9"/>
<path d="M21.2972 36.0625L46.753 10.6067L48.8744 12.728L23.4185 38.1838L21.2972 36.0625Z" fill="#D9D9D9"/>
<path d="M51.7028 36.7696L26.2469 11.3138L24.1256 13.4351L49.5815 38.8909L51.7028 36.7696Z" fill="#D9D9D9"/>
</svg>
