<svg width="44" height="44" viewBox="0 0 44 44" fill="none" xmlns="http://www.w3.org/2000/svg">
<path d="M0 0H4.4V28.6H0V0Z" fill="#D9D9D9"/>
<path d="M39.6 0H44V28.6H39.6V0Z" fill="#D9D9D9"/>
<path d="M39.6 0V4.4L4.4 4.4L4.4 0H39.6Z" fill="#D9D9D9"/>
<path d="M22 35.2H17.6L17.6 8.8L22 8.8L22 35.2Z" fill="#D9D9D9"/>
<path d="M19.8 33H15.4L15.4 8.8L19.8 8.8L19.8 33Z" fill="#D9D9D9"/>
<path d="M17.6 30.8H13.2L13.2 8.8H17.6V30.8Z" fill="#D9D9D9"/>
<path d="M15.4 28.6H11L11 8.8H15.4V28.6Z" fill="#D9D9D9"/>
<path d="M13.2 26.4H8.8L8.8 8.8H13.2V26.4Z" fill="#D9D9D9"/>
<path d="M6.6 30.8H2.2L2.2 26.4H6.6L6.6 30.8Z" fill="#D9D9D9"/>
<path d="M37.4 30.8H41.8V26.4H37.4V30.8Z" fill="#D9D9D9"/>
<path d="M13.2 37.4H8.8V33H13.2V37.4Z" fill="#D9D9D9"/>
<path d="M30.8 37.4H35.2V33H30.8V37.4Z" fill="#D9D9D9"/>
<path d="M8.8 33H4.4L4.4 28.6H8.8L8.8 33Z" fill="#D9D9D9"/>
<path d="M35.2 33H39.6V28.6H35.2V33Z" fill="#D9D9D9"/>
<path d="M15.4 39.6H11V35.2H15.4V39.6Z" fill="#D9D9D9"/>
<path d="M28.6 39.6H33V35.2H28.6V39.6Z" fill="#D9D9D9"/>
<path d="M11 35.2H6.6V30.8H11L11 35.2Z" fill="#D9D9D9"/>
<path d="M33 35.2H37.4V30.8H33V35.2Z" fill="#D9D9D9"/>
<path d="M17.6 41.8H13.2V37.4H17.6V41.8Z" fill="#D9D9D9"/>
<path d="M26.4 41.8H30.8V37.4H26.4V41.8Z" fill="#D9D9D9"/>
<path d="M28.6 44H15.4V39.6H28.6V44Z" fill="#D9D9D9"/>
</svg>
