<svg width="111" height="111" viewBox="0 0 111 111" fill="none" xmlns="http://www.w3.org/2000/svg">
<rect x="53.2012" y="27" width="5.07344" height="40.5875" fill="#E51E24" stroke="#E51E24" stroke-width="2"/>
<rect x="76.0137" y="79.9272" width="5.07344" height="40.5875" transform="rotate(90 76.0137 79.9272)" fill="#E51E24" stroke="#E51E24" stroke-width="2"/>
<rect width="5" height="19" transform="matrix(1 -1.28005e-07 -1.28005e-07 -1 76 82.0005)" fill="#E51E24" stroke="#E51E24" stroke-width="2"/>
<rect width="5" height="19" transform="matrix(1 -1.28005e-07 -1.28005e-07 -1 30 82.0005)" fill="#E51E24" stroke="#E51E24" stroke-width="2"/>
<rect x="48.1309" y="57.4419" width="5.07344" height="5.07344" fill="#E51E24" stroke="#E51E24" stroke-width="2"/>
<rect width="5.07344" height="5.07344" transform="matrix(1 -1.28005e-07 -1.28005e-07 -1 68.4219 52.3672)" fill="#E51E24" stroke="#E51E24" stroke-width="2"/>
<rect x="43.0566" y="52.3691" width="5.07344" height="5.07344" fill="#E51E24" stroke="#E51E24" stroke-width="2"/>
<rect width="5.07344" height="5.07344" transform="matrix(1 -1.28005e-07 -1.28005e-07 -1 63.3477 57.4404)" fill="#E51E24" stroke="#E51E24" stroke-width="2"/>
<rect x="37.9844" y="47.2959" width="5.07344" height="5.07344" fill="#E51E24" stroke="#E51E24" stroke-width="2"/>
<rect width="5.07344" height="5.07344" transform="matrix(1 -1.28005e-07 -1.28005e-07 -1 58.2754 62.5142)" fill="#E51E24" stroke="#E51E24" stroke-width="2"/>
</svg>
