<svg width="111" height="111" viewBox="0 0 111 111" fill="none" xmlns="http://www.w3.org/2000/svg">
<path d="M27 57.0396H32.1818V81.9901H27V57.0396Z" fill="#E51E24"/>
<path d="M27 54.9604H32.1818V29.3168H27V54.9604Z" fill="#E51E24"/>
<path d="M61.7922 81.9901V77.8317H84V81.9901H61.7922Z" fill="#E51E24"/>
<path d="M56.6104 29.3168V34.1683L84 34.1683V29.3168L56.6104 29.3168Z" fill="#E51E24"/>
<path d="M54.3896 77.8317V81.9901H27V77.8317H54.3896Z" fill="#E51E24"/>
<path d="M50.6883 72.9802V77.8317H45.5065V72.9802H50.6883Z" fill="#E51E24"/>
<path d="M60.3117 25.1584V30.0099L65.4935 30.0099V25.1584H60.3117Z" fill="#E51E24"/>
<path d="M41.0649 86.1485V91H46.2468V86.1485H41.0649Z" fill="#E51E24"/>
<path d="M69.9351 38.3267V43.1782H65.4935V38.3267H69.9351Z" fill="#E51E24"/>
<path d="M46.2468 68.8218V73.6733H41.0649V68.8218H46.2468Z" fill="#E51E24"/>
<path d="M65.4935 21V25.8515H69.9351V21L65.4935 21Z" fill="#E51E24"/>
<path d="M45.5065 81.9901V86.8416H50.6883V81.9901H45.5065Z" fill="#E51E24"/>
<path d="M65.4935 34.1683V39.0198H60.3117V34.1683H65.4935Z" fill="#E51E24"/>
<path d="M50.6883 34.1683V29.3168L27 29.3168V34.1683L50.6883 34.1683Z" fill="#E51E24"/>
<path d="M78.8182 57.0396H84V81.9901H78.8182V57.0396Z" fill="#E51E24"/>
<path d="M78.8182 54.9604H84V29.3168L78.8182 29.3168V54.9604Z" fill="#E51E24"/>
</svg>
