<svg width="27" height="25" viewBox="0 0 27 25" fill="none" xmlns="http://www.w3.org/2000/svg">
<path d="M19.2399 16.0188H24.4858V17.7986H19.2399V16.0188Z" fill="white"/>
<path d="M17.4913 17.7986H26.2344V19.5785H17.4913V17.7986Z" fill="white"/>
<path d="M6.99943 17.7986H15.7426V19.5785H6.99943V17.7986Z" fill="white"/>
<path d="M5.25079 16.0188H13.994V17.7986H5.25079V16.0188Z" fill="white"/>
<path d="M3.50216 14.2389H12.2453V16.0188H3.50216V14.2389Z" fill="white"/>
<path d="M1.75352 12.459H10.4967V14.2389H1.75352V12.459Z" fill="white"/>
<path d="M0.00488281 10.6792H8.74807V12.459H0.00488281V10.6792Z" fill="white"/>
<path d="M0.00488281 8.89931H6.99943V10.6792H0.00488281V8.89931Z" fill="white"/>
<path d="M0.00488281 7.11945H8.74807V8.89931H0.00488281V7.11945Z" fill="white"/>
<path d="M0.00488281 5.33959H8.74807V7.11945H0.00488281V5.33959Z" fill="white"/>
<path d="M0.00488281 3.55972H8.74807V5.33959H0.00488281V3.55972Z" fill="white"/>
<path d="M0.00488281 1.77986H6.99943V3.55972H0.00488281V1.77986Z" fill="white"/>
<path d="M1.75352 0H6.99943V1.77986H1.75352V0Z" fill="white"/>
<path d="M8.74807 19.5785H26.2344V21.3583H8.74807V19.5785Z" fill="white"/>
<path d="M10.4967 21.3583H26.2344V23.1382H10.4967V21.3583Z" fill="white"/>
<path d="M13.994 23.1382H24.4858V24.9181H13.994V23.1382Z" fill="white"/>
</svg>
