<svg width="114" height="96" viewBox="0 0 114 96" fill="none" xmlns="http://www.w3.org/2000/svg">
<path d="M87.4 92H102.6V96H87.4V92Z" fill="white"/>
<path d="M79.8 88H102.6V92H79.8V88Z" fill="white"/>
<path d="M72.2 84H102.6V88H72.2V84Z" fill="white"/>
<path d="M64.6 80H102.6V84H64.6V80Z" fill="white"/>
<path d="M57 76H106.4V80H57V76Z" fill="white"/>
<path d="M49.4 72H106.4V76H49.4V72Z" fill="white"/>
<path d="M45.6 68H106.4V72H45.6V68Z" fill="white"/>
<path d="M45.6 64H106.4V68H45.6V64Z" fill="white"/>
<path d="M49.4 60H106.4V64H49.4V60Z" fill="white"/>
<path d="M53.2 56H110.2V60H53.2V56Z" fill="white"/>
<path d="M57 52H110.2V56H57V52Z" fill="white"/>
<path d="M60.8 48H110.2V52H60.8V48Z" fill="white"/>
<path d="M64.6 44H110.2V48H64.6V44Z" fill="white"/>
<path d="M68.4 40H110.2V44H68.4V40Z" fill="white"/>
<path d="M72.2 36H110.2V40H72.2V36Z" fill="white"/>
<path d="M76 32H114V36H76V32Z" fill="white"/>
<path d="M79.8 28H114V32H79.8V28Z" fill="white"/>
<path d="M83.6 24H114V28H83.6V24Z" fill="white"/>
<path d="M45.6 24H79.8V28H45.6V24Z" fill="white"/>
<path d="M34.2 28H76V32H34.2V28Z" fill="white"/>
<path d="M26.6 32H68.4V36H26.6V32Z" fill="white"/>
<path d="M19 36H64.6V40H19V36Z" fill="white"/>
<path d="M11.4 40H60.8V44H11.4V40Z" fill="white"/>
<path d="M3.8 44H57V48H3.8V44Z" fill="white"/>
<path d="M0 48H53.2V52H0V48Z" fill="white"/>
<path d="M7.6 52H49.4V56H7.6V52Z" fill="white"/>
<path d="M15.2 56H41.8V60H15.2V56Z" fill="white"/>
<path d="M53.2 20H114V24H53.2V20Z" fill="white"/>
<path d="M60.8 16H114V20H60.8V16Z" fill="white"/>
<path d="M68.4 12H114V16H68.4V12Z" fill="white"/>
<path d="M76 8H114V12H76V8Z" fill="white"/>
<path d="M83.6 4H114V8H83.6V4Z" fill="white"/>
<path d="M95 0H114V4H95V0Z" fill="white"/>
</svg>
