<svg width="147" height="175" viewBox="0 0 147 175" fill="none" xmlns="http://www.w3.org/2000/svg">
<rect x="146.934" y="13.2075" width="145.283" height="8.25471" transform="rotate(90 146.934 13.2075)" fill="#D9D9D9"/>
<rect x="8.25488" y="13.2075" width="145.283" height="8.25471" transform="rotate(90 8.25488 13.2075)" fill="#D9D9D9"/>
<rect x="130.425" y="6.604" width="113.915" height="6.60377" transform="rotate(-180 130.425 6.604)" fill="#D9D9D9"/>
<rect x="130.755" y="175" width="114.843" height="7.61005" transform="rotate(-180 130.755 175)" fill="#D9D9D9"/>
<rect x="15.9121" y="167.39" width="8.30189" height="8.30189" transform="rotate(-180 15.9121 167.39)" fill="#D9D9D9"/>
<rect x="139.057" y="167.39" width="8.30189" height="8.30189" transform="rotate(-180 139.057 167.39)" fill="#D9D9D9"/>
<rect x="16.5093" y="13.2075" width="8.25472" height="6.60377" transform="rotate(-180 16.5093 13.2075)" fill="#D9D9D9"/>
<rect x="138.679" y="13.2075" width="8.25472" height="6.60377" transform="rotate(-180 138.679 13.2075)" fill="#D9D9D9"/>
<rect width="11.3" height="12.5812" transform="matrix(-1 0 0 1 53.9219 100.947)" fill="white"/>
<rect width="11.3" height="12.5812" transform="matrix(-1 0 0 1 76.521 100.947)" fill="white"/>
<rect width="11.3" height="12.5812" transform="matrix(-1 0 0 1 121.22 61.1289)" fill="white"/>
<rect width="11.3" height="12.5812" transform="matrix(-1 0 0 1 110.564 48.791)" fill="white"/>
<rect width="11.3" height="12.5812" transform="matrix(-1 0 0 1 121.78 48.791)" fill="white"/>
<rect width="11.3" height="12.5812" transform="matrix(-1 0 0 1 100.47 48.791)" fill="white"/>
<rect width="11.3" height="12.5812" transform="matrix(-1 0 0 1 121.22 73.4668)" fill="white"/>
<rect width="11.3" height="12.5812" transform="matrix(-1 0 0 1 129.632 73.4668)" fill="white"/>
<rect width="11.3" height="12.5812" transform="matrix(-1 0 0 1 129.632 61.1289)" fill="white"/>
<rect x="15.7026" y="122.301" width="11.3" height="12.5812" fill="white"/>
<rect x="15.7026" y="109.72" width="11.3" height="12.5812" fill="white"/>
<rect x="15.7026" y="97.1387" width="11.3" height="12.5812" fill="white"/>
<rect x="15.7026" y="84.5566" width="11.3" height="12.5812" fill="white"/>
<rect x="27.0034" y="71.9761" width="11.3" height="12.5812" fill="white"/>
<rect x="38.3027" y="71.9761" width="11.3" height="12.5812" fill="white"/>
<rect x="87.5464" y="61.1289" width="11.3" height="12.5812" fill="white"/>
<rect x="77.9531" y="61.1289" width="11.3" height="12.5812" fill="white"/>
<rect x="77.9531" y="48.791" width="11.3" height="12.5812" fill="white"/>
<rect x="87.5464" y="72.3452" width="11.3" height="12.5812" fill="white"/>
<rect x="98.7036" y="60.0073" width="11.3" height="12.5812" fill="white"/>
<rect x="49.6025" y="71.9761" width="11.3" height="12.5812" fill="white"/>
<rect x="60.9033" y="71.9761" width="31.075" height="12.5812" fill="white"/>
<rect x="93.3896" y="84.5566" width="11.3" height="12.5812" fill="white"/>
<rect x="93.3896" y="97.1387" width="11.3" height="12.5812" fill="white"/>
<rect x="93.3896" y="109.72" width="11.3" height="12.5812" fill="white"/>
<rect x="93.3896" y="122.301" width="11.3" height="12.5812" fill="white"/>
<rect x="93.3896" y="134.882" width="11.3" height="12.5812" fill="white"/>
<rect x="17.0747" y="141.52" width="85.9001" height="12.7095" fill="white"/>
<rect x="31.0591" y="154.229" width="63.9256" height="12.7095" fill="white"/>
<rect x="21.3516" y="129.489" width="73.4499" height="12.5812" fill="white"/>
<rect x="15.7026" y="134.882" width="11.3" height="12.5812" fill="white"/>
</svg>
