<svg width="193" height="141" viewBox="0 0 193 141" fill="none" xmlns="http://www.w3.org/2000/svg">
<rect x="164.44" y="40.6497" width="15.1717" height="15.1717" transform="rotate(63.2654 164.44 40.6497)" fill="#D9D9D9"/>
<rect x="150.89" y="47.4747" width="15.1717" height="15.1717" transform="rotate(63.2654 150.89 47.4747)" fill="white"/>
<rect x="144.065" y="33.9249" width="15.1717" height="15.1717" transform="rotate(63.2654 144.065 33.9249)" fill="#D9D9D9"/>
<rect x="157.715" y="61.0245" width="15.1717" height="15.1717" transform="rotate(63.2654 157.715 61.0245)" fill="#D9D9D9"/>
<rect x="130.515" y="40.75" width="45.515" height="15.1717" transform="rotate(63.2654 130.515 40.75)" fill="#D9D9D9"/>
<rect x="112.177" y="34.6978" width="73.5826" height="15.1717" transform="rotate(63.2654 112.177 34.6978)" fill="#D9D9D9"/>
<rect x="98.6274" y="41.5228" width="73.5826" height="15.1717" transform="rotate(63.2654 98.6274 41.5228)" fill="#D9D9D9"/>
<rect x="91.2202" y="60.5428" width="45.515" height="15.1717" transform="rotate(63.2654 91.2202 60.5428)" fill="#D9D9D9"/>
<rect x="91.1196" y="26.618" width="16.6888" height="15.1717" transform="rotate(63.2654 91.1196 26.618)" fill="white"/>
<rect x="131.729" y="107.24" width="16.6888" height="15.1717" transform="rotate(63.2654 131.729 107.24)" fill="white"/>
<rect x="91.3213" y="94.4674" width="15.1717" height="14.4131" transform="rotate(63.2654 91.3213 94.4674)" fill="#F07E1B"/>
<rect x="84.4961" y="80.9175" width="15.1717" height="14.4131" transform="rotate(63.2654 84.4961 80.9175)" fill="#FDEF00"/>
<rect x="77.6709" y="67.3677" width="15.1717" height="14.4131" transform="rotate(63.2654 77.6709 67.3677)" fill="#F07E1B"/>
<rect x="71.187" y="54.4954" width="15.1717" height="14.4131" transform="rotate(63.2654 71.187 54.4954)" fill="#E31E25"/>
<rect x="71.6235" y="87.4015" width="15.1717" height="14.4131" transform="rotate(63.2654 71.6235 87.4015)" fill="#F07E1B"/>
<rect x="78.4487" y="100.951" width="15.1717" height="14.4131" transform="rotate(63.2654 78.4487 100.951)" fill="#E31E25"/>
<rect x="58.751" y="93.8853" width="15.1717" height="14.4131" transform="rotate(63.2654 58.751 93.8853)" fill="#E31E25"/>
<rect x="45.8794" y="100.369" width="15.1717" height="14.4131" transform="rotate(63.2654 45.8794 100.369)" fill="#9E1E1F"/>
<rect x="64.7988" y="73.8516" width="15.1717" height="14.4131" transform="rotate(63.2654 64.7988 73.8516)" fill="#FDEF00"/>
<rect x="58.3145" y="60.9792" width="15.1717" height="14.4131" transform="rotate(63.2654 58.3145 60.9792)" fill="#F07E1B"/>
<rect x="51.4893" y="47.4294" width="15.1717" height="14.4131" transform="rotate(63.2654 51.4893 47.4294)" fill="#E31E25"/>
<rect x="51.9268" y="80.3354" width="15.1717" height="14.4131" transform="rotate(63.2654 51.9268 80.3354)" fill="#F07E1B"/>
<rect x="45.4424" y="67.4631" width="15.1717" height="14.4131" transform="rotate(63.2654 45.4424 67.4631)" fill="#E31E25"/>
<rect x="65.5762" y="107.435" width="15.1717" height="14.4131" transform="rotate(63.2654 65.5762 107.435)" fill="#9E1E1F"/>
<rect x="39.0537" y="86.8192" width="15.1717" height="14.4131" transform="rotate(63.2654 39.0537 86.8192)" fill="#E31E25"/>
<rect x="26.1816" y="93.3031" width="15.1717" height="14.4131" transform="rotate(63.2654 26.1816 93.3031)" fill="#9E1E1F"/>
<rect x="32.5698" y="73.9469" width="15.1717" height="14.4131" transform="rotate(63.2654 32.5698 73.9469)" fill="#E31E25"/>
</svg>
