<svg width="534" height="71" viewBox="0 0 534 71" fill="none" xmlns="http://www.w3.org/2000/svg">
<path d="M0.5 5.25692C0.5 2.62975 2.62974 0.5 5.25692 0.5H492.796C493.513 0.5 494.221 0.662071 494.866 0.974092L530.813 18.3498C532.456 19.1439 533.5 20.8079 533.5 22.6326V65.7431C533.5 68.3703 531.37 70.5 528.743 70.5H5.25689C2.62972 70.5 0.5 68.3703 0.5 65.7431V5.25692Z" fill="#9D2320" stroke="white"/>
<rect width="9.26596" height="8.10772" transform="matrix(-1 0 0 1 248.893 27.2295)" fill="#571110"/>
<rect width="9.26596" height="8.10772" transform="matrix(-1 0 0 1 261.435 27.2295)" fill="#571110"/>
<rect width="9.26596" height="8.10772" transform="matrix(-1 0 0 1 273.978 27.2295)" fill="#571110"/>
<rect width="9.26596" height="8.10772" transform="matrix(-1 0 0 1 248.893 40.2515)" fill="#571110"/>
<rect width="9.26596" height="8.10772" transform="matrix(-1 0 0 1 248.893 53.2734)" fill="#571110"/>
<rect width="9.26596" height="8.10772" transform="matrix(-1 0 0 1 261.435 40.2515)" fill="#571110"/>
<rect width="9.26596" height="8.10772" transform="matrix(-1 0 0 1 261.435 53.2734)" fill="#571110"/>
<rect width="9.26596" height="8.10772" transform="matrix(-1 0 0 1 273.978 40.2515)" fill="#571110"/>
<rect width="9.26596" height="8.10772" transform="matrix(-1 0 0 1 273.978 53.2734)" fill="#571110"/>
<rect width="9.26596" height="8.10772" transform="matrix(-1 0 0 1 44.2661 27.2295)" fill="#571110"/>
<rect width="9.26596" height="8.10772" transform="matrix(-1 0 0 1 56.8086 27.2295)" fill="#571110"/>
<rect width="9.26596" height="8.10772" transform="matrix(-1 0 0 1 69.3516 27.2295)" fill="#571110"/>
<rect width="9.26596" height="8.10772" transform="matrix(-1 0 0 1 44.2661 40.2515)" fill="#571110"/>
<rect width="9.26596" height="8.10772" transform="matrix(-1 0 0 1 44.2661 53.2734)" fill="#571110"/>
<rect width="9.26596" height="8.10772" transform="matrix(-1 0 0 1 56.8086 40.2515)" fill="#571110"/>
<rect width="9.26596" height="8.10772" transform="matrix(-1 0 0 1 56.8086 53.2734)" fill="#571110"/>
<rect width="9.26596" height="8.10772" transform="matrix(-1 0 0 1 69.3516 40.2515)" fill="#571110"/>
<rect width="9.26596" height="8.10772" transform="matrix(-1 0 0 1 69.3516 53.2734)" fill="#571110"/>
<rect width="9.26596" height="8.10772" transform="matrix(-1 0 0 1 229.005 31.896)" fill="#571110"/>
<rect width="9.26596" height="8.10772" transform="matrix(-1 0 0 1 234.15 31.896)" fill="#571110"/>
<rect width="9.26596" height="8.10772" transform="matrix(-1 0 0 1 234.15 25.5918)" fill="#571110"/>
<rect width="9.26596" height="8.10772" transform="matrix(-1 0 0 1 229.005 48.1118)" fill="#571110"/>
<rect width="9.26596" height="8.10772" transform="matrix(-1 0 0 1 234.15 48.1118)" fill="#571110"/>
<rect width="9.26596" height="8.10772" transform="matrix(-1 0 0 1 234.15 55.0771)" fill="#571110"/>
<rect width="9.26596" height="8.10772" transform="matrix(-1 0 0 1 229.005 40.0039)" fill="#571110"/>
<rect width="9.26596" height="8.10772" transform="matrix(-1 0 0 1 234.15 40.0039)" fill="#571110"/>
<rect width="9.26596" height="8.10772" transform="matrix(-1 0 0 1 224.373 40.0034)" fill="#571110"/>
<rect width="9.26596" height="8.10772" transform="matrix(-1 0 0 1 216.131 40.0034)" fill="#571110"/>
<rect x="79.1445" y="31.896" width="9.26596" height="8.10772" fill="#571110"/>
<rect x="73.9995" y="31.896" width="9.26596" height="8.10772" fill="#571110"/>
<rect x="73.9995" y="25.5918" width="9.26596" height="8.10772" fill="#571110"/>
<rect x="79.1445" y="48.1118" width="9.26596" height="8.10772" fill="#571110"/>
<rect x="73.9995" y="48.1118" width="9.26596" height="8.10772" fill="#571110"/>
<rect x="73.9995" y="55.0771" width="9.26596" height="8.10772" fill="#571110"/>
<rect x="79.1445" y="40.0039" width="9.26596" height="8.10772" fill="#571110"/>
<rect x="73.9995" y="40.0039" width="9.26596" height="8.10772" fill="#571110"/>
<rect x="83.7773" y="40.0034" width="9.26596" height="8.10772" fill="#571110"/>
<rect x="92.0186" y="40.0034" width="9.26596" height="8.10772" fill="#571110"/>
<rect x="160.998" y="4" width="46" height="66" fill="#571110"/>
<rect width="6.55236" height="6.55236" transform="matrix(-1 0 0 1 177.378 30.5059)" fill="#9D2320"/>
<rect width="6.55236" height="6.55236" transform="matrix(-1 0 0 1 177.378 38.6963)" fill="#9D2320"/>
<rect width="9.26596" height="8.10772" transform="matrix(-1 0 0 1 163.374 40.0029)" fill="#571110"/>
<rect width="9.26596" height="8.10772" transform="matrix(-1 0 0 1 155.132 40.0029)" fill="#571110"/>
<rect x="100" y="4" width="46" height="66" fill="#571110"/>
<rect width="6.55236" height="6.55236" transform="matrix(-1 0 0 1 116.381 30.5059)" fill="#9D2320"/>
<rect width="6.55236" height="6.55236" transform="matrix(-1 0 0 1 116.381 38.6963)" fill="#9D2320"/>
</svg>
