<svg width="534" height="71" viewBox="0 0 534 71" fill="none" xmlns="http://www.w3.org/2000/svg">
<path d="M0.5 5.25692C0.5 2.62975 2.62974 0.5 5.25692 0.5H492.796C493.513 0.5 494.221 0.662071 494.866 0.974092L530.813 18.3498C532.456 19.1439 533.5 20.8079 533.5 22.6326V65.7431C533.5 68.3703 531.37 70.5 528.743 70.5H5.25689C2.62972 70.5 0.5 68.3703 0.5 65.7431V5.25692Z" fill="#9D2320" stroke="white"/>
<rect x="164" y="25" width="3" height="4" transform="rotate(90 164 25)" fill="#9D2320"/>
<rect x="85" y="25" width="3" height="4" transform="rotate(90 85 25)" fill="#9D2320"/>
<rect x="37" y="25" width="3" height="4" transform="rotate(90 37 25)" fill="#9D2320"/>
<rect x="111" y="25" width="28" height="56" transform="rotate(90 111 25)" fill="#481211"/>
<rect x="167" y="25" width="28" height="21" transform="rotate(90 167 25)" fill="#481211"/>
<rect x="47" y="60" width="28" height="43" transform="rotate(-180 47 60)" fill="#481211"/>
<rect x="112" y="26" width="25" height="58" transform="rotate(90 112 26)" fill="#481211"/>
<rect x="88.5" y="32.5" width="10" height="23" transform="rotate(90 88.5 32.5)" fill="#481211" stroke="#9B3B39"/>
<rect x="83.5" y="28.5" width="10" height="23" transform="rotate(90 83.5 28.5)" fill="#481211" stroke="#9B3B39"/>
<rect x="168" y="26" width="25" height="23" transform="rotate(90 168 26)" fill="#481211"/>
<path d="M98.5 56L105 64L60 64L66 56L98.5 56Z" fill="#481211"/>
<rect x="46" y="61" width="26" height="45" transform="rotate(-180 46 61)" fill="#481211"/>
<rect x="113" y="22" width="2" height="62" transform="rotate(90 113 22)" fill="#481211"/>
<rect x="169" y="22" width="2" height="25" transform="rotate(90 169 22)" fill="#481211"/>
<rect x="169" y="55" width="2" height="25" transform="rotate(90 169 55)" fill="#481211"/>
<rect x="113" y="54" width="2" height="62" transform="rotate(90 113 54)" fill="#481211"/>
<rect x="51" y="54.5" width="2" height="31" transform="rotate(-180 51 54.5)" fill="#481211"/>
<rect x="115" y="54.5" width="2" height="31" transform="rotate(-180 115 54.5)" fill="#481211"/>
<rect x="171" y="54.5" width="2" height="31" transform="rotate(-180 171 54.5)" fill="#481211"/>
<rect x="144" y="54.5" width="2" height="31" transform="rotate(-180 144 54.5)" fill="#481211"/>
</svg>
