<svg width="534" height="71" viewBox="0 0 534 71" fill="none" xmlns="http://www.w3.org/2000/svg">
<path d="M0.5 5.25692C0.5 2.62975 2.62974 0.5 5.25692 0.5H492.796C493.513 0.5 494.221 0.662071 494.866 0.974092L530.813 18.3498C532.456 19.1439 533.5 20.8079 533.5 22.6326V65.7431C533.5 68.3703 531.37 70.5 528.743 70.5H5.25689C2.62972 70.5 0.5 68.3703 0.5 65.7431V5.25692Z" fill="#9D2320" stroke="white"/>
<rect width="10.8583" height="9.50101" transform="matrix(-1 0 0 1 216.549 35.5029)" fill="#481211"/>
<rect width="10.8583" height="9.50101" transform="matrix(-1 0 0 1 216.549 26.0024)" fill="#481211"/>
<rect width="10.8583" height="9.50101" transform="matrix(-1 0 0 1 227.406 35.5029)" fill="#481211"/>
<rect width="10.8583" height="9.50101" transform="matrix(-1 0 0 1 238.266 35.5029)" fill="#481211"/>
<rect width="10.8583" height="9.50101" transform="matrix(-1 0 0 1 238.266 26.0024)" fill="#481211"/>
<rect width="10.8583" height="9.50101" transform="matrix(-1 0 0 1 254.192 56.5649)" fill="#481211"/>
<rect width="10.8583" height="9.50101" transform="matrix(-1 0 0 1 270.713 56.5649)" fill="#481211"/>
<rect width="10.8583" height="9.50101" transform="matrix(-1 0 0 1 249.124 35.5029)" fill="#481211"/>
<rect width="10.8583" height="9.50101" transform="matrix(-1 0 0 1 259.981 35.5029)" fill="#481211"/>
<rect width="10.8583" height="9.50101" transform="matrix(-1 0 0 1 259.981 26.0024)" fill="#481211"/>
<rect x="189.403" y="45.0034" width="10.8583" height="9.50101" fill="#481211"/>
<rect x="189.403" y="35.5029" width="10.8583" height="9.50101" fill="#481211"/>
<rect x="189.403" y="26.0024" width="10.8583" height="9.50101" fill="#481211"/>
<rect x="189.403" y="16.5005" width="10.8583" height="9.50101" fill="#481211"/>
<rect x="200.262" y="7" width="10.8583" height="9.50101" fill="#481211"/>
<rect x="211.12" y="7" width="10.8583" height="9.50101" fill="#481211"/>
<rect x="221.978" y="7" width="10.8583" height="9.50101" fill="#481211"/>
<rect x="232.837" y="7" width="29.8603" height="9.50101" fill="#481211"/>
<rect x="283.261" y="16.6377" width="19.2753" height="9.63767" transform="rotate(90 283.261 16.6377)" fill="#481211"/>
<rect x="189.638" y="16.6377" width="19.2753" height="9.63767" transform="rotate(90 189.638 16.6377)" fill="#481211"/>
<rect x="264.054" y="16.5005" width="10.8583" height="9.50101" fill="#481211"/>
<rect x="264.054" y="26.0024" width="10.8583" height="9.50101" fill="#481211"/>
<rect x="264.054" y="35.5029" width="10.8583" height="9.50101" fill="#481211"/>
<rect x="264.054" y="45.0034" width="10.8583" height="9.50101" fill="#481211"/>
<rect x="264.054" y="54.5054" width="10.8583" height="9.50101" fill="#481211"/>
<rect x="190.721" y="59.5176" width="82.5424" height="9.59796" fill="#481211"/>
<rect x="194.832" y="50.4326" width="70.5789" height="9.50101" fill="#481211"/>
<rect x="189.403" y="54.5054" width="10.8583" height="9.50101" fill="#481211"/>
<rect width="10.8583" height="9.50101" transform="matrix(-1 0 0 1 263.83 56.5649)" fill="#9D2320"/>
<rect width="10.8583" height="9.50101" transform="matrix(-1 0 0 1 247.308 56.5649)" fill="#9D2320"/>
<rect width="10.8583" height="9.50101" transform="matrix(-1 0 0 1 50.1455 35.5029)" fill="#481211"/>
<rect width="10.8583" height="9.50101" transform="matrix(-1 0 0 1 50.1455 26.0024)" fill="#481211"/>
<rect width="10.8583" height="9.50101" transform="matrix(-1 0 0 1 61.0034 35.5029)" fill="#481211"/>
<rect width="10.8583" height="9.50101" transform="matrix(-1 0 0 1 71.8628 35.5029)" fill="#481211"/>
<rect width="10.8583" height="9.50101" transform="matrix(-1 0 0 1 71.8628 26.0024)" fill="#481211"/>
<rect width="10.8583" height="9.50101" transform="matrix(-1 0 0 1 82.7212 35.5029)" fill="#481211"/>
<rect width="10.8583" height="9.50101" transform="matrix(-1 0 0 1 93.5781 35.5029)" fill="#481211"/>
<rect width="10.8583" height="9.50101" transform="matrix(-1 0 0 1 93.5781 26.0024)" fill="#481211"/>
<rect width="10.8583" height="9.50101" transform="matrix(-1 0 0 1 139.858 4)" fill="#481211"/>
<rect width="10.8583" height="9.50101" transform="matrix(-1 0 0 1 148.858 4)" fill="#481211"/>
<rect width="11" height="20" transform="matrix(-1 0 0 1 149 12)" fill="#481211"/>
<rect width="11" height="20" transform="matrix(-1 0 0 1 312 4)" fill="#481211"/>
<rect width="11" height="20" transform="matrix(-1 0 0 1 318 4)" fill="#481211"/>
<rect width="10.8583" height="9.50101" transform="matrix(-1 0 0 1 144.858 36)" fill="#481211"/>
<rect width="10.8583" height="9.50101" transform="matrix(-1 0 0 1 314.858 21)" fill="#481211"/>
<rect width="6" height="5" transform="matrix(-1 0 0 1 297 15)" fill="#481211"/>
<rect width="6" height="5" transform="matrix(-1 0 0 1 297 4)" fill="#481211"/>
<rect width="6" height="5" transform="matrix(-1 0 0 1 329 4)" fill="#481211"/>
<rect width="6" height="5" transform="matrix(-1 0 0 1 329 15)" fill="#481211"/>
<rect width="10.8583" height="9.50101" transform="matrix(-1 0 0 1 144.858 25)" fill="#481211"/>
<rect x="23" y="45.0034" width="10.8583" height="9.50101" fill="#481211"/>
<rect x="23" y="35.5029" width="10.8583" height="9.50101" fill="#481211"/>
<rect x="23" y="26.0024" width="10.8583" height="9.50101" fill="#481211"/>
<rect x="23" y="16.5005" width="10.8583" height="9.50101" fill="#481211"/>
<rect x="33.8584" y="7" width="10.8583" height="9.50101" fill="#481211"/>
<rect x="44.7163" y="7" width="10.8583" height="9.50101" fill="#481211"/>
<rect x="55.5747" y="7" width="10.8583" height="9.50101" fill="#481211"/>
<rect x="66.4341" y="7" width="29.8603" height="9.50101" fill="#481211"/>
<rect x="97.6509" y="16.5005" width="10.8583" height="9.50101" fill="#481211"/>
<rect x="97.6509" y="26.0024" width="10.8583" height="9.50101" fill="#481211"/>
<rect x="97.6509" y="35.5029" width="10.8583" height="9.50101" fill="#481211"/>
<rect x="97.6509" y="45.0034" width="10.8583" height="9.50101" fill="#481211"/>
<rect x="97.6509" y="54.5054" width="10.8583" height="9.50101" fill="#481211"/>
<rect x="24.3184" y="59.5176" width="82.5424" height="9.59796" fill="#481211"/>
<rect x="28.4287" y="50.4326" width="70.5789" height="9.50101" fill="#481211"/>
<rect x="23" y="54.5054" width="10.8583" height="9.50101" fill="#481211"/>
</svg>
