<svg width="534" height="71" viewBox="0 0 534 71" fill="none" xmlns="http://www.w3.org/2000/svg">
<path d="M0.5 5.25692C0.5 2.62975 2.62974 0.5 5.25692 0.5H492.796C493.513 0.5 494.221 0.662071 494.866 0.974092L530.813 18.3498C532.456 19.1439 533.5 20.8079 533.5 22.6326V65.7431C533.5 68.3703 531.37 70.5 528.743 70.5H5.25689C2.62972 70.5 0.5 68.3703 0.5 65.7431V5.25692Z" fill="#9D2320" stroke="white"/>
<rect x="194" y="8" width="75" height="61" fill="#571110"/>
<rect x="283" y="19" width="34" height="50" fill="#571110"/>
<rect x="202" y="28.6299" width="9.62971" height="9.62972" transform="rotate(-90 202 28.6299)" fill="#9D2320"/>
<rect x="289" y="36" width="8" height="8" transform="rotate(-90 289 36)" fill="#9D2320"/>
<rect x="202" y="43.6299" width="9.62971" height="9.62972" transform="rotate(-90 202 43.6299)" fill="#9D2320"/>
<rect x="289" y="48" width="8" height="8" transform="rotate(-90 289 48)" fill="#9D2320"/>
<rect x="202" y="58.6299" width="9.62971" height="9.62972" transform="rotate(-90 202 58.6299)" fill="#9D2320"/>
<rect x="289" y="60" width="7" height="8" transform="rotate(-90 289 60)" fill="#9D2320"/>
<rect x="234" y="28.6299" width="9.62971" height="9.62972" transform="rotate(-90 234 28.6299)" fill="#571110"/>
<rect x="234" y="43.6299" width="9.62971" height="9.62972" transform="rotate(-90 234 43.6299)" fill="#9D2320"/>
<rect x="234" y="58.6299" width="9.62971" height="9.62972" transform="rotate(-90 234 58.6299)" fill="#9D2320"/>
<rect x="218" y="28.6299" width="9.62971" height="9.62972" transform="rotate(-90 218 28.6299)" fill="#9D2320"/>
<rect x="302" y="36" width="8" height="8" transform="rotate(-90 302 36)" fill="#9D2320"/>
<rect x="218" y="43.6299" width="9.62971" height="9.62972" transform="rotate(-90 218 43.6299)" fill="#9D2320"/>
<rect x="302" y="48" width="8" height="8" transform="rotate(-90 302 48)" fill="#9D2320"/>
<rect x="218" y="58.6299" width="9.62971" height="9.62972" transform="rotate(-90 218 58.6299)" fill="#571110"/>
<rect x="302" y="60" width="7" height="8" transform="rotate(-90 302 60)" fill="#571110"/>
<rect x="250" y="28.6299" width="9.62971" height="9.62972" transform="rotate(-90 250 28.6299)" fill="#9D2320"/>
<rect x="250" y="43.6299" width="9.62971" height="9.62972" transform="rotate(-90 250 43.6299)" fill="#9D2320"/>
<rect x="250" y="58.6299" width="9.62971" height="9.62972" transform="rotate(-90 250 58.6299)" fill="#9D2320"/>
<rect x="11" y="8" width="75" height="61" fill="#571110"/>
<rect x="19" y="28.6299" width="9.62971" height="9.62972" transform="rotate(-90 19 28.6299)" fill="#9D2320"/>
<rect x="19" y="43.6299" width="9.62971" height="9.62972" transform="rotate(-90 19 43.6299)" fill="#9D2320"/>
<rect x="19" y="58.6299" width="9.62971" height="9.62972" transform="rotate(-90 19 58.6299)" fill="#9D2320"/>
<rect x="51" y="43.6299" width="9.62971" height="9.62972" transform="rotate(-90 51 43.6299)" fill="#9D2320"/>
<rect x="51" y="58.6299" width="9.62971" height="9.62972" transform="rotate(-90 51 58.6299)" fill="#9D2320"/>
<rect x="35" y="28.6299" width="9.62971" height="9.62972" transform="rotate(-90 35 28.6299)" fill="#9D2320"/>
<rect x="35" y="43.6299" width="9.62971" height="9.62972" transform="rotate(-90 35 43.6299)" fill="#9D2320"/>
<rect x="67" y="28.6299" width="9.62971" height="9.62972" transform="rotate(-90 67 28.6299)" fill="#9D2320"/>
<rect x="67" y="43.6299" width="9.62971" height="9.62972" transform="rotate(-90 67 43.6299)" fill="#9D2320"/>
<rect x="67" y="58.6299" width="9.62971" height="9.62972" transform="rotate(-90 67 58.6299)" fill="#9D2320"/>
<rect x="198.841" y="53.1484" width="9.62971" height="9.62972" transform="rotate(-90 198.841 53.1484)" fill="#481211"/>
<rect x="189.21" y="43.5186" width="9.62971" height="9.62972" transform="rotate(-90 189.21 43.5186)" fill="#481211"/>
<rect x="179.582" y="33.8882" width="9.62971" height="9.62972" transform="rotate(-90 179.582 33.8882)" fill="#481211"/>
<rect x="73.6548" y="43.5186" width="9.62971" height="9.62972" transform="rotate(-90 73.6548 43.5186)" fill="#481211"/>
<rect x="80.8774" y="43.5186" width="9.62971" height="9.62972" transform="rotate(-90 80.8774 43.5186)" fill="#481211"/>
<rect x="73.6548" y="33.8882" width="9.62971" height="9.62972" transform="rotate(-90 73.6548 33.8882)" fill="#481211"/>
<rect x="64.0239" y="43.5186" width="9.62971" height="9.62972" transform="rotate(-90 64.0239 43.5186)" fill="#481211"/>
<rect x="64.0239" y="33.8882" width="9.62971" height="9.62972" transform="rotate(-90 64.0239 33.8882)" fill="#481211"/>
<rect x="54.395" y="43.5186" width="9.62971" height="9.62972" transform="rotate(-90 54.395 43.5186)" fill="#481211"/>
<rect x="54.395" y="33.8882" width="9.62971" height="9.62972" transform="rotate(-90 54.395 33.8882)" fill="#481211"/>
<rect x="169.952" y="24.2598" width="9.62971" height="9.62972" transform="rotate(-90 169.952 24.2598)" fill="#481211"/>
<path d="M96.5254 14.6299L96.5254 5.00017L169.952 5.00017L169.952 14.6299L96.5254 14.6299Z" fill="#481211"/>
<path d="M96.5254 24.2598L96.5254 14.6301L136.248 14.6301L136.248 24.2598L96.5254 24.2598Z" fill="#481211"/>
<path d="M96.5254 33.8882L96.5254 24.2585L145.878 24.2585L145.878 33.8882L96.5254 33.8882Z" fill="#481211"/>
<path d="M96.5254 43.5186L96.5254 33.8888L153.1 33.8888L153.1 43.5186L96.5254 43.5186Z" fill="#481211"/>
<path d="M43.561 53.1484L43.561 43.5187L162.729 43.5187L162.729 53.1484L43.561 53.1484Z" fill="#481211"/>
<path d="M208.471 70L43.5618 70L43.5618 53.148L208.471 53.148L208.471 70Z" fill="#481211"/>
<rect x="141.063" y="62.7788" width="9.62971" height="9.62972" transform="rotate(-90 141.063 62.7788)" fill="#340E0D"/>
</svg>
