<svg width="830" height="441" viewBox="0 0 830 441" fill="none" xmlns="http://www.w3.org/2000/svg">
<rect x="357.062" width="110.79" height="441" fill="#E31E25"/>
<rect x="316.054" y="15.8271" width="194.961" height="409.346" fill="#E31E25"/>
<rect x="286.56" y="30.9348" width="251.794" height="377.692" fill="#E31E25"/>
<rect x="258.501" y="43.8842" width="306.47" height="351.793" fill="#E31E25"/>
<rect x="246.272" y="56.8336" width="335.246" height="322.297" fill="#E31E25"/>
<rect x="231.164" y="70.5024" width="361.865" height="301.434" fill="#E31E25"/>
<rect x="217.496" y="99.9984" width="388.483" height="239.564" fill="#E31E25"/>
<rect x="203.107" y="128.775" width="421.576" height="181.292" fill="#E31E25"/>
<rect x="188" y="167.623" width="449.633" height="102.157" fill="#E31E25"/>
<rect x="384.398" y="425.173" width="83.4519" height="15.8271" fill="#9D2320"/>
<rect x="410.297" y="409.346" width="100.718" height="15.8271" fill="#9D2320"/>
<rect x="426.125" y="395.677" width="112.228" height="15.8271" fill="#9D2320"/>
<rect x="439.793" y="384.166" width="98.5595" height="15.8271" fill="#9D2320"/>
<rect x="453.463" y="379.13" width="111.509" height="15.8271" fill="#9D2320"/>
<rect x="453.463" y="368.339" width="128.055" height="15.8271" fill="#9D2320"/>
<rect x="459.938" y="356.109" width="133.091" height="15.8271" fill="#9D2320"/>
<rect x="467.852" y="340.282" width="125.178" height="15.8271" fill="#9D2320"/>
<rect x="484.397" y="324.455" width="121.581" height="15.8271" fill="#9D2320"/>
<rect x="494.47" y="310.067" width="111.509" height="15.8271" fill="#9D2320"/>
<rect x="484.397" y="294.24" width="140.285" height="15.8271" fill="#9D2320"/>
<rect x="527.176" y="252.151" width="110.456" height="17.8514" fill="#9D2320"/>
<rect x="532.756" y="226.49" width="104.877" height="15.62" fill="#9D2320"/>
<rect x="538.333" y="238.763" width="99.2986" height="15.62" fill="#9D2320"/>
<rect x="502.63" y="278.929" width="119.381" height="15.62" fill="#9D2320"/>
<rect x="514.903" y="263.309" width="107.109" height="15.62" fill="#9D2320"/>
<rect x="529.408" y="211.986" width="108.224" height="15.62" fill="#9D2320"/>
<rect x="522.714" y="196.366" width="114.919" height="15.62" fill="#9D2320"/>
<rect x="536.196" y="180.573" width="101.437" height="15.8271" fill="#9D2320"/>
<rect x="530.44" y="164.745" width="107.193" height="15.8271" fill="#9D2320"/>
<rect x="523.965" y="148.918" width="100.718" height="15.8271" fill="#9D2320"/>
<rect x="511.016" y="128.775" width="113.667" height="20.1436" fill="#9D2320"/>
<rect x="497.347" y="108.631" width="108.631" height="20.1436" fill="#9D2320"/>
<rect x="497.347" y="99.9984" width="108.631" height="8.63295" fill="#9D2320"/>
<rect x="484.397" y="91.3654" width="108.631" height="8.63295" fill="#9D2320"/>
<rect x="484.397" y="82.7325" width="108.631" height="8.63295" fill="#9D2320"/>
<rect x="467.852" y="70.5024" width="125.178" height="12.23" fill="#9D2320"/>
<rect x="454.182" y="56.8336" width="125.178" height="13.6688" fill="#9D2320"/>
<rect x="439.793" y="43.1648" width="125.178" height="13.6688" fill="#9D2320"/>
<rect x="421.809" y="30.2153" width="125.178" height="13.6688" fill="#9D2320"/>
<rect x="413.176" y="15.8271" width="97.8401" height="15.1077" fill="#9D2320"/>
<rect x="384.366" width="83.6786" height="16.7357" fill="#9D2320"/>
<rect x="367.853" y="15.1077" width="16.5465" height="15.1077" fill="#9D2320"/>
<rect x="395.911" y="43.8842" width="16.5465" height="15.1077" fill="#9D2320"/>
<rect x="216.057" y="294.959" width="28.0571" height="15.1077" fill="#9D2320"/>
<rect x="201.669" y="267.622" width="29.4959" height="15.1077" fill="#9D2320"/>
<rect x="231.164" y="268.341" width="28.0571" height="15.1077" transform="rotate(90 231.164 268.341)" fill="#9D2320"/>
<rect x="216.776" y="254.672" width="17.9853" height="15.1077" transform="rotate(90 216.776 254.672)" fill="#9D2320"/>
<rect x="381.521" y="30.2153" width="31.6542" height="15.1077" fill="#9D2320"/>
<rect x="571.806" y="176.283" width="25.6614" height="12.2729" fill="#7B231F"/>
<rect x="584.079" y="188.556" width="25.6614" height="13.3886" fill="#7B231F"/>
<path d="M568.459 188.556H584.117V202.297H599.42H609.74V217.564H568.459V188.556Z" fill="#E51E24"/>
<rect x="541.681" y="201.944" width="25.6614" height="13.3886" fill="#7B231F"/>
<rect x="541.681" y="228.722" width="25.6614" height="13.3886" fill="#7B231F"/>
<rect x="623.129" y="203.06" width="25.6614" height="13.3886" transform="rotate(90 623.129 203.06)" fill="#7B231F"/>
<rect x="609.74" y="228.722" width="25.6614" height="13.3886" transform="rotate(90 609.74 228.722)" fill="#7B231F"/>
<rect x="624.244" y="271.119" width="40.1657" height="14.5043" transform="rotate(90 624.244 271.119)" fill="#7B231F"/>
<rect x="568.459" y="228.722" width="25.6614" height="12.2729" transform="rotate(90 568.459 228.722)" fill="#7B231F"/>
<rect x="568.459" y="215.333" width="13.3886" height="15.62" transform="rotate(90 568.459 215.333)" fill="#E51E24"/>
<rect x="568.459" y="188.556" width="26.7772" height="12.2729" transform="rotate(90 568.459 188.556)" fill="#7B231F"/>
<rect x="552.838" y="201.944" width="40.1657" height="12.2729" transform="rotate(90 552.838 201.944)" fill="#7B231F"/>
<rect x="597.468" y="217.564" width="53.5543" height="29.0086" transform="rotate(90 597.468 217.564)" fill="#7B231F"/>
<rect x="597.468" y="217.564" width="24.5457" height="29.0086" transform="rotate(90 597.468 217.564)" fill="#9D2320"/>
<rect x="597.468" y="217.564" width="25.6614" height="11.1571" fill="#7B231F"/>
<rect x="623.129" y="255.499" width="14.5043" height="15.62" fill="#7B231F"/>
<rect x="596.352" y="297.896" width="14.5043" height="13.3886" fill="#7B231F"/>
<rect x="581.847" y="311.284" width="23.43" height="31.24" fill="#7B231F"/>
<rect x="568.459" y="340.293" width="24.5457" height="30.1243" fill="#7B231F"/>
<rect x="556.186" y="353.682" width="25.6614" height="30.1243" fill="#7B231F"/>
<rect x="540.567" y="367.07" width="24.5457" height="30.1243" fill="#7B231F"/>
<rect x="510.441" y="383.806" width="30.1243" height="29.0086" fill="#7B231F"/>
<rect x="469.159" y="397.194" width="41.2814" height="29.0086" fill="#7B231F"/>
<rect x="455.772" y="411.699" width="15.62" height="29.0086" fill="#7B231F"/>
<rect x="441.268" y="426.203" width="14.5043" height="14.5043" fill="#7B231F"/>
<path d="M81.6901 276.903H71.4789H61.2676V266.692V256.48V246.269V236.058V225.846V215.635H51.0563V225.846V236.058V246.269H40.8451H30.6338V236.058V225.846V215.635H20.4225V225.846V236.058V246.269V256.48V266.692V276.903H10.2113H0V266.692V256.48V246.269V236.058V225.846V215.635V205.424V195.213V185.001V174.79V164.579V154.368H10.2113H20.4225V164.579V174.79H30.6338V185.001V195.213H40.8451H51.0563V185.001V174.79H61.2676V164.579V154.368H71.4789H81.6901V164.579V174.79V185.001V195.213V205.424V215.635V225.846V236.058V246.269V256.48V266.692V276.903ZM173.592 276.903H163.38H153.169V266.692V256.48V246.269H142.958H132.746H122.535H112.324V256.48V266.692V276.903H102.113H91.9014V266.692V256.48V246.269H102.113V236.058V225.846V215.635H112.324V205.424V195.213V185.001H122.535V174.79V164.579V154.368H132.746H142.958V164.579V174.79V185.001H153.169V195.213V205.424V215.635H163.38V225.846V236.058V246.269H173.592V256.48V266.692V276.903ZM122.535 236.058H132.746H142.958V225.846V215.635H132.746H122.535V225.846V236.058ZM265.493 276.903H255.282H245.07V266.692V256.48V246.269V236.058H234.859V225.846H224.648H214.437H204.225V236.058V246.269V256.48V266.692V276.903H194.014H183.803V266.692V256.48V246.269V236.058V225.846V215.635V205.424V195.213V185.001V174.79V164.579V154.368H194.014H204.225H214.437H224.648H234.859H245.07V164.579H255.282V174.79H265.493V185.001V195.213V205.424H255.282V215.635H245.07V225.846H255.282V236.058H265.493V246.269V256.48V266.692V276.903ZM214.437 215.635H224.648H234.859V205.424H245.07V195.213V185.001V174.79H234.859V164.579H224.648H214.437H204.225V174.79V185.001V195.213V205.424V215.635H214.437ZM336.972 276.903H326.761H316.549H306.338H296.127V266.692H285.915V256.48H275.704V246.269H285.915H296.127V256.48H306.338V266.692H316.549H326.761V256.48H336.972V246.269V236.058V225.846H326.761V215.635H316.549H306.338V205.424H296.127H285.915V195.213H275.704V185.001V174.79H285.915V164.579H296.127V154.368H306.338H316.549H326.761H336.972V164.579H347.183V174.79H357.394V185.001H347.183H336.972V174.79H326.761V164.579H316.549H306.338V174.79H296.127V185.001V195.213H306.338H316.549V205.424H326.761H336.972V215.635H347.183V225.846H357.394V236.058V246.269V256.48H347.183V266.692H336.972V276.903ZM449.296 276.903H439.084H428.873V266.692V256.48V246.269V236.058V225.846V215.635H418.662V225.846V236.058V246.269H408.451H398.239V236.058V225.846V215.635H388.028V225.846V236.058V246.269V256.48V266.692V276.903H377.817H367.606V266.692V256.48V246.269V236.058V225.846V215.635V205.424V195.213V185.001V174.79V164.579V154.368H377.817H388.028V164.579V174.79H398.239V185.001V195.213H408.451H418.662V185.001V174.79H428.873V164.579V154.368H439.084H449.296V164.579V174.79V185.001V195.213V205.424V215.635V225.846V236.058V246.269V256.48V266.692V276.903ZM510.563 276.903H500.352H490.141V266.692V256.48V246.269V236.058V225.846V215.635V205.424V195.213V185.001V174.79V164.579V154.368H500.352H510.563V164.579V174.79V185.001V195.213V205.424V215.635V225.846V236.058V246.269V256.48V266.692V276.903ZM633.099 276.903H622.887H612.676V266.692H602.465V256.48V246.269H592.253V236.058V225.846H582.042V215.635V205.424H571.831V215.635V225.846V236.058V246.269V256.48V266.692V276.903H561.62H551.408V266.692V256.48V246.269V236.058V225.846V215.635V205.424V195.213V185.001V174.79V164.579V154.368H561.62H571.831V164.579H582.042V174.79V185.001H592.253V195.213V205.424H602.465V215.635V225.846H612.676V215.635V205.424V195.213V185.001V174.79V164.579V154.368H622.887H633.099V164.579V174.79V185.001V195.213V205.424V215.635V225.846V236.058V246.269V256.48V266.692V276.903ZM704.577 266.692H714.789H725V276.903H714.789H704.577H694.366H684.155H673.944H663.732H653.521H643.31V266.692V256.48V246.269V236.058V225.846V215.635V205.424V195.213V185.001V174.79V164.579V154.368H653.521H663.732H673.944H684.155H694.366H704.577H714.789H725V164.579H714.789H704.577H694.366H684.155H673.944H663.732V174.79V185.001V195.213V205.424H673.944H684.155H694.366H704.577H714.789V215.635H704.577H694.366H684.155H673.944H663.732V225.846V236.058V246.269V256.48V266.692H673.944H684.155H694.366H704.577ZM816.901 276.903H806.69H796.479V266.692V256.48V246.269V236.058H786.268V225.846H776.056H765.845H755.634V236.058V246.269V256.48V266.692V276.903H745.422H735.211V266.692V256.48V246.269V236.058V225.846V215.635V205.424V195.213V185.001V174.79V164.579V154.368H745.422H755.634H765.845H776.056H786.268H796.479V164.579H806.69V174.79H816.901V185.001V195.213V205.424H806.69V215.635H796.479V225.846H806.69V236.058H816.901V246.269V256.48V266.692V276.903ZM765.845 215.635H776.056H786.268V205.424H796.479V195.213V185.001V174.79H786.268V164.579H776.056H765.845H755.634V174.79V185.001V195.213V205.424V215.635H765.845Z" fill="black"/>
<path d="M81.6901 276.903V282.994H87.7811V276.903H81.6901ZM61.2676 276.903H55.1767V282.994H61.2676V276.903ZM61.2676 215.635H67.3585V209.544H61.2676V215.635ZM51.0563 215.635V209.544H44.9654V215.635H51.0563ZM51.0563 246.269V252.36H57.1473V246.269H51.0563ZM30.6338 246.269H24.5429V252.36H30.6338V246.269ZM30.6338 215.635H36.7247V209.544H30.6338V215.635ZM20.4225 215.635V209.544H14.3316V215.635H20.4225ZM20.4225 276.903V282.994H26.5135V276.903H20.4225ZM0 276.903H-6.09093V282.994H0V276.903ZM0 154.368V148.277H-6.09093V154.368H0ZM20.4225 154.368H26.5135V148.277H20.4225V154.368ZM20.4225 174.79H14.3316V180.881H20.4225V174.79ZM30.6338 174.79H36.7247V168.699H30.6338V174.79ZM30.6338 195.213H24.5429V201.304H30.6338V195.213ZM51.0563 195.213V201.304H57.1473V195.213H51.0563ZM51.0563 174.79V168.699H44.9654V174.79H51.0563ZM61.2676 174.79V180.881H67.3585V174.79H61.2676ZM61.2676 154.368V148.277H55.1767V154.368H61.2676ZM81.6901 154.368H87.7811V148.277H81.6901V154.368ZM81.6901 270.812H71.4789V282.994H81.6901V270.812ZM71.4789 270.812H61.2676V282.994H71.4789V270.812ZM67.3585 276.903V266.691H55.1767V276.903H67.3585ZM67.3585 266.691V256.48H55.1767V266.691H67.3585ZM67.3585 256.48V246.269H55.1767V256.48H67.3585ZM67.3585 246.269V236.058H55.1767V246.269H67.3585ZM67.3585 236.058V225.846H55.1767V236.058H67.3585ZM67.3585 225.846V215.635H55.1767V225.846H67.3585ZM61.2676 209.544H51.0563V221.726H61.2676V209.544ZM44.9654 215.635V225.846H57.1473V215.635H44.9654ZM44.9654 225.846V236.058H57.1473V225.846H44.9654ZM44.9654 236.058V246.269H57.1473V236.058H44.9654ZM51.0563 240.178H40.8451V252.36H51.0563V240.178ZM40.8451 240.178H30.6338V252.36H40.8451V240.178ZM36.7247 246.269V236.058H24.5429V246.269H36.7247ZM36.7247 236.058V225.846H24.5429V236.058H36.7247ZM36.7247 225.846V215.635H24.5429V225.846H36.7247ZM30.6338 209.544H20.4225V221.726H30.6338V209.544ZM14.3316 215.635V225.846H26.5135V215.635H14.3316ZM14.3316 225.846V236.058H26.5135V225.846H14.3316ZM14.3316 236.058V246.269H26.5135V236.058H14.3316ZM14.3316 246.269V256.48H26.5135V246.269H14.3316ZM14.3316 256.48V266.691H26.5135V256.48H14.3316ZM14.3316 266.691V276.903H26.5135V266.691H14.3316ZM20.4225 270.812H10.2113V282.994H20.4225V270.812ZM10.2113 270.812H0V282.994H10.2113V270.812ZM6.09093 276.903V266.691H-6.09093V276.903H6.09093ZM6.09093 266.691V256.48H-6.09093V266.691H6.09093ZM6.09093 256.48V246.269H-6.09093V256.48H6.09093ZM6.09093 246.269V236.058H-6.09093V246.269H6.09093ZM6.09093 236.058V225.846H-6.09093V236.058H6.09093ZM6.09093 225.846V215.635H-6.09093V225.846H6.09093ZM6.09093 215.635V205.424H-6.09093V215.635H6.09093ZM6.09093 205.424V195.213H-6.09093V205.424H6.09093ZM6.09093 195.213V185.001H-6.09093V195.213H6.09093ZM6.09093 185.001V174.79H-6.09093V185.001H6.09093ZM6.09093 174.79V164.579H-6.09093V174.79H6.09093ZM6.09093 164.579V154.368H-6.09093V164.579H6.09093ZM0 160.459H10.2113V148.277H0V160.459ZM10.2113 160.459H20.4225V148.277H10.2113V160.459ZM14.3316 154.368V164.579H26.5135V154.368H14.3316ZM14.3316 164.579V174.79H26.5135V164.579H14.3316ZM20.4225 180.881H30.6338V168.699H20.4225V180.881ZM24.5429 174.79V185.001H36.7247V174.79H24.5429ZM24.5429 185.001V195.213H36.7247V185.001H24.5429ZM30.6338 201.304H40.8451V189.122H30.6338V201.304ZM40.8451 201.304H51.0563V189.122H40.8451V201.304ZM57.1473 195.213V185.001H44.9654V195.213H57.1473ZM57.1473 185.001V174.79H44.9654V185.001H57.1473ZM51.0563 180.881H61.2676V168.699H51.0563V180.881ZM67.3585 174.79V164.579H55.1767V174.79H67.3585ZM67.3585 164.579V154.368H55.1767V164.579H67.3585ZM61.2676 160.459H71.4789V148.277H61.2676V160.459ZM71.4789 160.459H81.6901V148.277H71.4789V160.459ZM75.5992 154.368V164.579H87.7811V154.368H75.5992ZM75.5992 164.579V174.79H87.7811V164.579H75.5992ZM75.5992 174.79V185.001H87.7811V174.79H75.5992ZM75.5992 185.001V195.213H87.7811V185.001H75.5992ZM75.5992 195.213V205.424H87.7811V195.213H75.5992ZM75.5992 205.424V215.635H87.7811V205.424H75.5992ZM75.5992 215.635V225.846H87.7811V215.635H75.5992ZM75.5992 225.846V236.058H87.7811V225.846H75.5992ZM75.5992 236.058V246.269H87.7811V236.058H75.5992ZM75.5992 246.269V256.48H87.7811V246.269H75.5992ZM75.5992 256.48V266.691H87.7811V256.48H75.5992ZM75.5992 266.691V276.903H87.7811V266.691H75.5992ZM173.592 276.903V282.994H179.682V276.903H173.592ZM153.169 276.903H147.078V282.994H153.169V276.903ZM153.169 246.269H159.26V240.178H153.169V246.269ZM112.324 246.269V240.178H106.233V246.269H112.324ZM112.324 276.903V282.994H118.415V276.903H112.324ZM91.9014 276.903H85.8105V282.994H91.9014V276.903ZM91.9014 246.269V240.178H85.8105V246.269H91.9014ZM102.113 246.269V252.36H108.204V246.269H102.113ZM102.113 215.635V209.544H96.0217V215.635H102.113ZM112.324 215.635V221.726H118.415V215.635H112.324ZM112.324 185.001V178.91H106.233V185.001H112.324ZM122.535 185.001V191.092H128.626V185.001H122.535ZM122.535 154.368V148.277H116.444V154.368H122.535ZM142.958 154.368H149.049V148.277H142.958V154.368ZM142.958 185.001H136.867V191.092H142.958V185.001ZM153.169 185.001H159.26V178.91H153.169V185.001ZM153.169 215.635H147.078V221.726H153.169V215.635ZM163.38 215.635H169.471V209.544H163.38V215.635ZM163.38 246.269H157.289V252.36H163.38V246.269ZM173.592 246.269H179.682V240.178H173.592V246.269ZM122.535 236.058H116.444V242.149H122.535V236.058ZM142.958 236.058V242.149H149.049V236.058H142.958ZM142.958 215.635H149.049V209.544H142.958V215.635ZM122.535 215.635V209.544H116.444V215.635H122.535ZM173.592 270.812H163.38V282.994H173.592V270.812ZM163.38 270.812H153.169V282.994H163.38V270.812ZM159.26 276.903V266.691H147.078V276.903H159.26ZM159.26 266.691V256.48H147.078V266.691H159.26ZM159.26 256.48V246.269H147.078V256.48H159.26ZM153.169 240.178H142.958V252.36H153.169V240.178ZM142.958 240.178H132.746V252.36H142.958V240.178ZM132.746 240.178H122.535V252.36H132.746V240.178ZM122.535 240.178H112.324V252.36H122.535V240.178ZM106.233 246.269V256.48H118.415V246.269H106.233ZM106.233 256.48V266.691H118.415V256.48H106.233ZM106.233 266.691V276.903H118.415V266.691H106.233ZM112.324 270.812H102.113V282.994H112.324V270.812ZM102.113 270.812H91.9014V282.994H102.113V270.812ZM97.9923 276.903V266.691H85.8105V276.903H97.9923ZM97.9923 266.691V256.48H85.8105V266.691H97.9923ZM97.9923 256.48V246.269H85.8105V256.48H97.9923ZM91.9014 252.36H102.113V240.178H91.9014V252.36ZM108.204 246.269V236.058H96.0217V246.269H108.204ZM108.204 236.058V225.846H96.0217V236.058H108.204ZM108.204 225.846V215.635H96.0217V225.846H108.204ZM102.113 221.726H112.324V209.544H102.113V221.726ZM118.415 215.635V205.424H106.233V215.635H118.415ZM118.415 205.424V195.213H106.233V205.424H118.415ZM118.415 195.213V185.001H106.233V195.213H118.415ZM112.324 191.092H122.535V178.91H112.324V191.092ZM128.626 185.001V174.79H116.444V185.001H128.626ZM128.626 174.79V164.579H116.444V174.79H128.626ZM128.626 164.579V154.368H116.444V164.579H128.626ZM122.535 160.459H132.746V148.277H122.535V160.459ZM132.746 160.459H142.958V148.277H132.746V160.459ZM136.867 154.368V164.579H149.049V154.368H136.867ZM136.867 164.579V174.79H149.049V164.579H136.867ZM136.867 174.79V185.001H149.049V174.79H136.867ZM142.958 191.092H153.169V178.91H142.958V191.092ZM147.078 185.001V195.213H159.26V185.001H147.078ZM147.078 195.213V205.424H159.26V195.213H147.078ZM147.078 205.424V215.635H159.26V205.424H147.078ZM153.169 221.726H163.38V209.544H153.169V221.726ZM157.289 215.635V225.846H169.471V215.635H157.289ZM157.289 225.846V236.058H169.471V225.846H157.289ZM157.289 236.058V246.269H169.471V236.058H157.289ZM163.38 252.36H173.592V240.178H163.38V252.36ZM167.501 246.269V256.48H179.682V246.269H167.501ZM167.501 256.48V266.691H179.682V256.48H167.501ZM167.501 266.691V276.903H179.682V266.691H167.501ZM122.535 242.149H132.746V229.967H122.535V242.149ZM132.746 242.149H142.958V229.967H132.746V242.149ZM149.049 236.058V225.846H136.867V236.058H149.049ZM149.049 225.846V215.635H136.867V225.846H149.049ZM142.958 209.544H132.746V221.726H142.958V209.544ZM132.746 209.544H122.535V221.726H132.746V209.544ZM116.444 215.635V225.846H128.626V215.635H116.444ZM116.444 225.846V236.058H128.626V225.846H116.444ZM265.493 276.903V282.994H271.584V276.903H265.493ZM245.07 276.903H238.979V282.994H245.07V276.903ZM245.07 236.058H251.161V229.967H245.07V236.058ZM234.859 236.058H228.768V242.149H234.859V236.058ZM234.859 225.846H240.95V219.756H234.859V225.846ZM204.225 225.846V219.756H198.134V225.846H204.225ZM204.225 276.903V282.994H210.316V276.903H204.225ZM183.803 276.903H177.712V282.994H183.803V276.903ZM183.803 154.368V148.277H177.712V154.368H183.803ZM245.07 154.368H251.161V148.277H245.07V154.368ZM245.07 164.579H238.979V170.67H245.07V164.579ZM255.282 164.579H261.373V158.488H255.282V164.579ZM255.282 174.79H249.191V180.881H255.282V174.79ZM265.493 174.79H271.584V168.699H265.493V174.79ZM265.493 205.424V211.515H271.584V205.424H265.493ZM255.282 205.424V199.333H249.191V205.424H255.282ZM255.282 215.635V221.726H261.373V215.635H255.282ZM245.07 215.635V209.544H238.979V215.635H245.07ZM245.07 225.846H238.979V231.937H245.07V225.846ZM255.282 225.846H261.373V219.756H255.282V225.846ZM255.282 236.058H249.191V242.149H255.282V236.058ZM265.493 236.058H271.584V229.967H265.493V236.058ZM234.859 215.635V221.726H240.95V215.635H234.859ZM234.859 205.424V199.333H228.768V205.424H234.859ZM245.07 205.424V211.515H251.161V205.424H245.07ZM245.07 174.79H251.161V168.699H245.07V174.79ZM234.859 174.79H228.768V180.881H234.859V174.79ZM234.859 164.579H240.95V158.488H234.859V164.579ZM204.225 164.579V158.488H198.134V164.579H204.225ZM204.225 215.635H198.134V221.726H204.225V215.635ZM265.493 270.812H255.282V282.994H265.493V270.812ZM255.282 270.812H245.07V282.994H255.282V270.812ZM251.161 276.903V266.691H238.979V276.903H251.161ZM251.161 266.691V256.48H238.979V266.691H251.161ZM251.161 256.48V246.269H238.979V256.48H251.161ZM251.161 246.269V236.058H238.979V246.269H251.161ZM245.07 229.967H234.859V242.149H245.07V229.967ZM240.95 236.058V225.846H228.768V236.058H240.95ZM234.859 219.756H224.648V231.937H234.859V219.756ZM224.648 219.756H214.437V231.937H224.648V219.756ZM214.437 219.756H204.225V231.937H214.437V219.756ZM198.134 225.846V236.058H210.316V225.846H198.134ZM198.134 236.058V246.269H210.316V236.058H198.134ZM198.134 246.269V256.48H210.316V246.269H198.134ZM198.134 256.48V266.691H210.316V256.48H198.134ZM198.134 266.691V276.903H210.316V266.691H198.134ZM204.225 270.812H194.014V282.994H204.225V270.812ZM194.014 270.812H183.803V282.994H194.014V270.812ZM189.894 276.903V266.691H177.712V276.903H189.894ZM189.894 266.691V256.48H177.712V266.691H189.894ZM189.894 256.48V246.269H177.712V256.48H189.894ZM189.894 246.269V236.058H177.712V246.269H189.894ZM189.894 236.058V225.846H177.712V236.058H189.894ZM189.894 225.846V215.635H177.712V225.846H189.894ZM189.894 215.635V205.424H177.712V215.635H189.894ZM189.894 205.424V195.213H177.712V205.424H189.894ZM189.894 195.213V185.001H177.712V195.213H189.894ZM189.894 185.001V174.79H177.712V185.001H189.894ZM189.894 174.79V164.579H177.712V174.79H189.894ZM189.894 164.579V154.368H177.712V164.579H189.894ZM183.803 160.459H194.014V148.277H183.803V160.459ZM194.014 160.459H204.225V148.277H194.014V160.459ZM204.225 160.459H214.437V148.277H204.225V160.459ZM214.437 160.459H224.648V148.277H214.437V160.459ZM224.648 160.459H234.859V148.277H224.648V160.459ZM234.859 160.459H245.07V148.277H234.859V160.459ZM238.979 154.368V164.579H251.161V154.368H238.979ZM245.07 170.67H255.282V158.488H245.07V170.67ZM249.191 164.579V174.79H261.373V164.579H249.191ZM255.282 180.881H265.493V168.699H255.282V180.881ZM259.402 174.79V185.001H271.584V174.79H259.402ZM259.402 185.001V195.213H271.584V185.001H259.402ZM259.402 195.213V205.424H271.584V195.213H259.402ZM265.493 199.333H255.282V211.515H265.493V199.333ZM249.191 205.424V215.635H261.373V205.424H249.191ZM255.282 209.544H245.07V221.726H255.282V209.544ZM238.979 215.635V225.846H251.161V215.635H238.979ZM245.07 231.937H255.282V219.756H245.07V231.937ZM249.191 225.846V236.058H261.373V225.846H249.191ZM255.282 242.149H265.493V229.967H255.282V242.149ZM259.402 236.058V246.269H271.584V236.058H259.402ZM259.402 246.269V256.48H271.584V246.269H259.402ZM259.402 256.48V266.691H271.584V256.48H259.402ZM259.402 266.691V276.903H271.584V266.691H259.402ZM214.437 221.726H224.648V209.544H214.437V221.726ZM224.648 221.726H234.859V209.544H224.648V221.726ZM240.95 215.635V205.424H228.768V215.635H240.95ZM234.859 211.515H245.07V199.333H234.859V211.515ZM251.161 205.424V195.213H238.979V205.424H251.161ZM251.161 195.213V185.001H238.979V195.213H251.161ZM251.161 185.001V174.79H238.979V185.001H251.161ZM245.07 168.699H234.859V180.881H245.07V168.699ZM240.95 174.79V164.579H228.768V174.79H240.95ZM234.859 158.488H224.648V170.67H234.859V158.488ZM224.648 158.488H214.437V170.67H224.648V158.488ZM214.437 158.488H204.225V170.67H214.437V158.488ZM198.134 164.579V174.79H210.316V164.579H198.134ZM198.134 174.79V185.001H210.316V174.79H198.134ZM198.134 185.001V195.213H210.316V185.001H198.134ZM198.134 195.213V205.424H210.316V195.213H198.134ZM198.134 205.424V215.635H210.316V205.424H198.134ZM204.225 221.726H214.437V209.544H204.225V221.726ZM336.972 276.903V282.994H343.063V276.903H336.972ZM296.127 276.903H290.036V282.994H296.127V276.903ZM296.127 266.691H302.218V260.601H296.127V266.691ZM285.915 266.691H279.825V272.782H285.915V266.691ZM285.915 256.48H292.006V250.389H285.915V256.48ZM275.704 256.48H269.613V262.571H275.704V256.48ZM275.704 246.269V240.178H269.613V246.269H275.704ZM296.127 246.269H302.218V240.178H296.127V246.269ZM296.127 256.48H290.036V262.571H296.127V256.48ZM306.338 256.48H312.429V250.389H306.338V256.48ZM306.338 266.691H300.247V272.782H306.338V266.691ZM326.761 266.691V272.782H332.851V266.691H326.761ZM326.761 256.48V250.389H320.67V256.48H326.761ZM336.972 256.48V262.571H343.063V256.48H336.972ZM336.972 225.846H343.063V219.756H336.972V225.846ZM326.761 225.846H320.67V231.937H326.761V225.846ZM326.761 215.635H332.851V209.544H326.761V215.635ZM306.338 215.635H300.247V221.726H306.338V215.635ZM306.338 205.424H312.429V199.333H306.338V205.424ZM285.915 205.424H279.825V211.515H285.915V205.424ZM285.915 195.213H292.006V189.122H285.915V195.213ZM275.704 195.213H269.613V201.304H275.704V195.213ZM275.704 174.79V168.699H269.613V174.79H275.704ZM285.915 174.79V180.881H292.006V174.79H285.915ZM285.915 164.579V158.488H279.825V164.579H285.915ZM296.127 164.579V170.67H302.218V164.579H296.127ZM296.127 154.368V148.277H290.036V154.368H296.127ZM336.972 154.368H343.063V148.277H336.972V154.368ZM336.972 164.579H330.881V170.67H336.972V164.579ZM347.183 164.579H353.274V158.488H347.183V164.579ZM347.183 174.79H341.092V180.881H347.183V174.79ZM357.394 174.79H363.485V168.699H357.394V174.79ZM357.394 185.001V191.092H363.485V185.001H357.394ZM336.972 185.001H330.881V191.092H336.972V185.001ZM336.972 174.79H343.063V168.699H336.972V174.79ZM326.761 174.79H320.67V180.881H326.761V174.79ZM326.761 164.579H332.851V158.488H326.761V164.579ZM306.338 164.579V158.488H300.247V164.579H306.338ZM306.338 174.79V180.881H312.429V174.79H306.338ZM296.127 174.79V168.699H290.036V174.79H296.127ZM296.127 195.213H290.036V201.304H296.127V195.213ZM316.549 195.213H322.64V189.122H316.549V195.213ZM316.549 205.424H310.458V211.515H316.549V205.424ZM336.972 205.424H343.063V199.333H336.972V205.424ZM336.972 215.635H330.881V221.726H336.972V215.635ZM347.183 215.635H353.274V209.544H347.183V215.635ZM347.183 225.846H341.092V231.937H347.183V225.846ZM357.394 225.846H363.485V219.756H357.394V225.846ZM357.394 256.48V262.571H363.485V256.48H357.394ZM347.183 256.48V250.389H341.092V256.48H347.183ZM347.183 266.691V272.782H353.274V266.691H347.183ZM336.972 266.691V260.601H330.881V266.691H336.972ZM336.972 270.812H326.761V282.994H336.972V270.812ZM326.761 270.812H316.549V282.994H326.761V270.812ZM316.549 270.812H306.338V282.994H316.549V270.812ZM306.338 270.812H296.127V282.994H306.338V270.812ZM302.218 276.903V266.691H290.036V276.903H302.218ZM296.127 260.601H285.915V272.782H296.127V260.601ZM292.006 266.691V256.48H279.825V266.691H292.006ZM285.915 250.389H275.704V262.571H285.915V250.389ZM281.795 256.48V246.269H269.613V256.48H281.795ZM275.704 252.36H285.915V240.178H275.704V252.36ZM285.915 252.36H296.127V240.178H285.915V252.36ZM290.036 246.269V256.48H302.218V246.269H290.036ZM296.127 262.571H306.338V250.389H296.127V262.571ZM300.247 256.48V266.691H312.429V256.48H300.247ZM306.338 272.782H316.549V260.601H306.338V272.782ZM316.549 272.782H326.761V260.601H316.549V272.782ZM332.851 266.691V256.48H320.67V266.691H332.851ZM326.761 262.571H336.972V250.389H326.761V262.571ZM343.063 256.48V246.269H330.881V256.48H343.063ZM343.063 246.269V236.058H330.881V246.269H343.063ZM343.063 236.058V225.846H330.881V236.058H343.063ZM336.972 219.756H326.761V231.937H336.972V219.756ZM332.851 225.846V215.635H320.67V225.846H332.851ZM326.761 209.544H316.549V221.726H326.761V209.544ZM316.549 209.544H306.338V221.726H316.549V209.544ZM312.429 215.635V205.424H300.247V215.635H312.429ZM306.338 199.333H296.127V211.515H306.338V199.333ZM296.127 199.333H285.915V211.515H296.127V199.333ZM292.006 205.424V195.213H279.825V205.424H292.006ZM285.915 189.122H275.704V201.304H285.915V189.122ZM281.795 195.213V185.001H269.613V195.213H281.795ZM281.795 185.001V174.79H269.613V185.001H281.795ZM275.704 180.881H285.915V168.699H275.704V180.881ZM292.006 174.79V164.579H279.825V174.79H292.006ZM285.915 170.67H296.127V158.488H285.915V170.67ZM302.218 164.579V154.368H290.036V164.579H302.218ZM296.127 160.459H306.338V148.277H296.127V160.459ZM306.338 160.459H316.549V148.277H306.338V160.459ZM316.549 160.459H326.761V148.277H316.549V160.459ZM326.761 160.459H336.972V148.277H326.761V160.459ZM330.881 154.368V164.579H343.063V154.368H330.881ZM336.972 170.67H347.183V158.488H336.972V170.67ZM341.092 164.579V174.79H353.274V164.579H341.092ZM347.183 180.881H357.394V168.699H347.183V180.881ZM351.303 174.79V185.001H363.485V174.79H351.303ZM357.394 178.91H347.183V191.092H357.394V178.91ZM347.183 178.91H336.972V191.092H347.183V178.91ZM343.063 185.001V174.79H330.881V185.001H343.063ZM336.972 168.699H326.761V180.881H336.972V168.699ZM332.851 174.79V164.579H320.67V174.79H332.851ZM326.761 158.488H316.549V170.67H326.761V158.488ZM316.549 158.488H306.338V170.67H316.549V158.488ZM300.247 164.579V174.79H312.429V164.579H300.247ZM306.338 168.699H296.127V180.881H306.338V168.699ZM290.036 174.79V185.001H302.218V174.79H290.036ZM290.036 185.001V195.213H302.218V185.001H290.036ZM296.127 201.304H306.338V189.122H296.127V201.304ZM306.338 201.304H316.549V189.122H306.338V201.304ZM310.458 195.213V205.424H322.64V195.213H310.458ZM316.549 211.515H326.761V199.333H316.549V211.515ZM326.761 211.515H336.972V199.333H326.761V211.515ZM330.881 205.424V215.635H343.063V205.424H330.881ZM336.972 221.726H347.183V209.544H336.972V221.726ZM341.092 215.635V225.846H353.274V215.635H341.092ZM347.183 231.937H357.394V219.756H347.183V231.937ZM351.303 225.846V236.058H363.485V225.846H351.303ZM351.303 236.058V246.269H363.485V236.058H351.303ZM351.303 246.269V256.48H363.485V246.269H351.303ZM357.394 250.389H347.183V262.571H357.394V250.389ZM341.092 256.48V266.691H353.274V256.48H341.092ZM347.183 260.601H336.972V272.782H347.183V260.601ZM330.881 266.691V276.903H343.063V266.691H330.881ZM449.296 276.903V282.994H455.387V276.903H449.296ZM428.873 276.903H422.782V282.994H428.873V276.903ZM428.873 215.635H434.964V209.544H428.873V215.635ZM418.662 215.635V209.544H412.571V215.635H418.662ZM418.662 246.269V252.36H424.753V246.269H418.662ZM398.239 246.269H392.148V252.36H398.239V246.269ZM398.239 215.635H404.33V209.544H398.239V215.635ZM388.028 215.635V209.544H381.937V215.635H388.028ZM388.028 276.903V282.994H394.119V276.903H388.028ZM367.606 276.903H361.515V282.994H367.606V276.903ZM367.606 154.368V148.277H361.515V154.368H367.606ZM388.028 154.368H394.119V148.277H388.028V154.368ZM388.028 174.79H381.937V180.881H388.028V174.79ZM398.239 174.79H404.33V168.699H398.239V174.79ZM398.239 195.213H392.148V201.304H398.239V195.213ZM418.662 195.213V201.304H424.753V195.213H418.662ZM418.662 174.79V168.699H412.571V174.79H418.662ZM428.873 174.79V180.881H434.964V174.79H428.873ZM428.873 154.368V148.277H422.782V154.368H428.873ZM449.296 154.368H455.387V148.277H449.296V154.368ZM449.296 270.812H439.084V282.994H449.296V270.812ZM439.084 270.812H428.873V282.994H439.084V270.812ZM434.964 276.903V266.691H422.782V276.903H434.964ZM434.964 266.691V256.48H422.782V266.691H434.964ZM434.964 256.48V246.269H422.782V256.48H434.964ZM434.964 246.269V236.058H422.782V246.269H434.964ZM434.964 236.058V225.846H422.782V236.058H434.964ZM434.964 225.846V215.635H422.782V225.846H434.964ZM428.873 209.544H418.662V221.726H428.873V209.544ZM412.571 215.635V225.846H424.753V215.635H412.571ZM412.571 225.846V236.058H424.753V225.846H412.571ZM412.571 236.058V246.269H424.753V236.058H412.571ZM418.662 240.178H408.451V252.36H418.662V240.178ZM408.451 240.178H398.239V252.36H408.451V240.178ZM404.33 246.269V236.058H392.148V246.269H404.33ZM404.33 236.058V225.846H392.148V236.058H404.33ZM404.33 225.846V215.635H392.148V225.846H404.33ZM398.239 209.544H388.028V221.726H398.239V209.544ZM381.937 215.635V225.846H394.119V215.635H381.937ZM381.937 225.846V236.058H394.119V225.846H381.937ZM381.937 236.058V246.269H394.119V236.058H381.937ZM381.937 246.269V256.48H394.119V246.269H381.937ZM381.937 256.48V266.691H394.119V256.48H381.937ZM381.937 266.691V276.903H394.119V266.691H381.937ZM388.028 270.812H377.817V282.994H388.028V270.812ZM377.817 270.812H367.606V282.994H377.817V270.812ZM373.697 276.903V266.691H361.515V276.903H373.697ZM373.697 266.691V256.48H361.515V266.691H373.697ZM373.697 256.48V246.269H361.515V256.48H373.697ZM373.697 246.269V236.058H361.515V246.269H373.697ZM373.697 236.058V225.846H361.515V236.058H373.697ZM373.697 225.846V215.635H361.515V225.846H373.697ZM373.697 215.635V205.424H361.515V215.635H373.697ZM373.697 205.424V195.213H361.515V205.424H373.697ZM373.697 195.213V185.001H361.515V195.213H373.697ZM373.697 185.001V174.79H361.515V185.001H373.697ZM373.697 174.79V164.579H361.515V174.79H373.697ZM373.697 164.579V154.368H361.515V164.579H373.697ZM367.606 160.459H377.817V148.277H367.606V160.459ZM377.817 160.459H388.028V148.277H377.817V160.459ZM381.937 154.368V164.579H394.119V154.368H381.937ZM381.937 164.579V174.79H394.119V164.579H381.937ZM388.028 180.881H398.239V168.699H388.028V180.881ZM392.148 174.79V185.001H404.33V174.79H392.148ZM392.148 185.001V195.213H404.33V185.001H392.148ZM398.239 201.304H408.451V189.122H398.239V201.304ZM408.451 201.304H418.662V189.122H408.451V201.304ZM424.753 195.213V185.001H412.571V195.213H424.753ZM424.753 185.001V174.79H412.571V185.001H424.753ZM418.662 180.881H428.873V168.699H418.662V180.881ZM434.964 174.79V164.579H422.782V174.79H434.964ZM434.964 164.579V154.368H422.782V164.579H434.964ZM428.873 160.459H439.084V148.277H428.873V160.459ZM439.084 160.459H449.296V148.277H439.084V160.459ZM443.205 154.368V164.579H455.387V154.368H443.205ZM443.205 164.579V174.79H455.387V164.579H443.205ZM443.205 174.79V185.001H455.387V174.79H443.205ZM443.205 185.001V195.213H455.387V185.001H443.205ZM443.205 195.213V205.424H455.387V195.213H443.205ZM443.205 205.424V215.635H455.387V205.424H443.205ZM443.205 215.635V225.846H455.387V215.635H443.205ZM443.205 225.846V236.058H455.387V225.846H443.205ZM443.205 236.058V246.269H455.387V236.058H443.205ZM443.205 246.269V256.48H455.387V246.269H443.205ZM443.205 256.48V266.691H455.387V256.48H443.205ZM443.205 266.691V276.903H455.387V266.691H443.205ZM510.563 276.903V282.994H516.654V276.903H510.563ZM490.141 276.903H484.05V282.994H490.141V276.903ZM490.141 154.368V148.277H484.05V154.368H490.141ZM510.563 154.368H516.654V148.277H510.563V154.368ZM510.563 270.812H500.352V282.994H510.563V270.812ZM500.352 270.812H490.141V282.994H500.352V270.812ZM496.232 276.903V266.691H484.05V276.903H496.232ZM496.232 266.691V256.48H484.05V266.691H496.232ZM496.232 256.48V246.269H484.05V256.48H496.232ZM496.232 246.269V236.058H484.05V246.269H496.232ZM496.232 236.058V225.846H484.05V236.058H496.232ZM496.232 225.846V215.635H484.05V225.846H496.232ZM496.232 215.635V205.424H484.05V215.635H496.232ZM496.232 205.424V195.213H484.05V205.424H496.232ZM496.232 195.213V185.001H484.05V195.213H496.232ZM496.232 185.001V174.79H484.05V185.001H496.232ZM496.232 174.79V164.579H484.05V174.79H496.232ZM496.232 164.579V154.368H484.05V164.579H496.232ZM490.141 160.459H500.352V148.277H490.141V160.459ZM500.352 160.459H510.563V148.277H500.352V160.459ZM504.472 154.368V164.579H516.654V154.368H504.472ZM504.472 164.579V174.79H516.654V164.579H504.472ZM504.472 174.79V185.001H516.654V174.79H504.472ZM504.472 185.001V195.213H516.654V185.001H504.472ZM504.472 195.213V205.424H516.654V195.213H504.472ZM504.472 205.424V215.635H516.654V205.424H504.472ZM504.472 215.635V225.846H516.654V215.635H504.472ZM504.472 225.846V236.058H516.654V225.846H504.472ZM504.472 236.058V246.269H516.654V236.058H504.472ZM504.472 246.269V256.48H516.654V246.269H504.472ZM504.472 256.48V266.691H516.654V256.48H504.472ZM504.472 266.691V276.903H516.654V266.691H504.472ZM633.099 276.903V282.994H639.189V276.903H633.099ZM612.676 276.903H606.585V282.994H612.676V276.903ZM612.676 266.691H618.767V260.601H612.676V266.691ZM602.465 266.691H596.374V272.782H602.465V266.691ZM602.465 246.269H608.556V240.178H602.465V246.269ZM592.253 246.269H586.163V252.36H592.253V246.269ZM592.253 225.846H598.344V219.756H592.253V225.846ZM582.042 225.846H575.951V231.937H582.042V225.846ZM582.042 205.424H588.133V199.333H582.042V205.424ZM571.831 205.424V199.333H565.74V205.424H571.831ZM571.831 276.903V282.994H577.922V276.903H571.831ZM551.408 276.903H545.317V282.994H551.408V276.903ZM551.408 154.368V148.277H545.317V154.368H551.408ZM571.831 154.368H577.922V148.277H571.831V154.368ZM571.831 164.579H565.74V170.67H571.831V164.579ZM582.042 164.579H588.133V158.488H582.042V164.579ZM582.042 185.001H575.951V191.092H582.042V185.001ZM592.253 185.001H598.344V178.91H592.253V185.001ZM592.253 205.424H586.163V211.515H592.253V205.424ZM602.465 205.424H608.556V199.333H602.465V205.424ZM602.465 225.846H596.374V231.937H602.465V225.846ZM612.676 225.846V231.937H618.767V225.846H612.676ZM612.676 154.368V148.277H606.585V154.368H612.676ZM633.099 154.368H639.189V148.277H633.099V154.368ZM633.099 270.812H622.887V282.994H633.099V270.812ZM622.887 270.812H612.676V282.994H622.887V270.812ZM618.767 276.903V266.691H606.585V276.903H618.767ZM612.676 260.601H602.465V272.782H612.676V260.601ZM608.556 266.691V256.48H596.374V266.691H608.556ZM608.556 256.48V246.269H596.374V256.48H608.556ZM602.465 240.178H592.253V252.36H602.465V240.178ZM598.344 246.269V236.058H586.163V246.269H598.344ZM598.344 236.058V225.846H586.163V236.058H598.344ZM592.253 219.756H582.042V231.937H592.253V219.756ZM588.133 225.846V215.635H575.951V225.846H588.133ZM588.133 215.635V205.424H575.951V215.635H588.133ZM582.042 199.333H571.831V211.515H582.042V199.333ZM565.74 205.424V215.635H577.922V205.424H565.74ZM565.74 215.635V225.846H577.922V215.635H565.74ZM565.74 225.846V236.058H577.922V225.846H565.74ZM565.74 236.058V246.269H577.922V236.058H565.74ZM565.74 246.269V256.48H577.922V246.269H565.74ZM565.74 256.48V266.691H577.922V256.48H565.74ZM565.74 266.691V276.903H577.922V266.691H565.74ZM571.831 270.812H561.62V282.994H571.831V270.812ZM561.62 270.812H551.408V282.994H561.62V270.812ZM557.499 276.903V266.691H545.317V276.903H557.499ZM557.499 266.691V256.48H545.317V266.691H557.499ZM557.499 256.48V246.269H545.317V256.48H557.499ZM557.499 246.269V236.058H545.317V246.269H557.499ZM557.499 236.058V225.846H545.317V236.058H557.499ZM557.499 225.846V215.635H545.317V225.846H557.499ZM557.499 215.635V205.424H545.317V215.635H557.499ZM557.499 205.424V195.213H545.317V205.424H557.499ZM557.499 195.213V185.001H545.317V195.213H557.499ZM557.499 185.001V174.79H545.317V185.001H557.499ZM557.499 174.79V164.579H545.317V174.79H557.499ZM557.499 164.579V154.368H545.317V164.579H557.499ZM551.408 160.459H561.62V148.277H551.408V160.459ZM561.62 160.459H571.831V148.277H561.62V160.459ZM565.74 154.368V164.579H577.922V154.368H565.74ZM571.831 170.67H582.042V158.488H571.831V170.67ZM575.951 164.579V174.79H588.133V164.579H575.951ZM575.951 174.79V185.001H588.133V174.79H575.951ZM582.042 191.092H592.253V178.91H582.042V191.092ZM586.163 185.001V195.213H598.344V185.001H586.163ZM586.163 195.213V205.424H598.344V195.213H586.163ZM592.253 211.515H602.465V199.333H592.253V211.515ZM596.374 205.424V215.635H608.556V205.424H596.374ZM596.374 215.635V225.846H608.556V215.635H596.374ZM602.465 231.937H612.676V219.756H602.465V231.937ZM618.767 225.846V215.635H606.585V225.846H618.767ZM618.767 215.635V205.424H606.585V215.635H618.767ZM618.767 205.424V195.213H606.585V205.424H618.767ZM618.767 195.213V185.001H606.585V195.213H618.767ZM618.767 185.001V174.79H606.585V185.001H618.767ZM618.767 174.79V164.579H606.585V174.79H618.767ZM618.767 164.579V154.368H606.585V164.579H618.767ZM612.676 160.459H622.887V148.277H612.676V160.459ZM622.887 160.459H633.099V148.277H622.887V160.459ZM627.008 154.368V164.579H639.189V154.368H627.008ZM627.008 164.579V174.79H639.189V164.579H627.008ZM627.008 174.79V185.001H639.189V174.79H627.008ZM627.008 185.001V195.213H639.189V185.001H627.008ZM627.008 195.213V205.424H639.189V195.213H627.008ZM627.008 205.424V215.635H639.189V205.424H627.008ZM627.008 215.635V225.846H639.189V215.635H627.008ZM627.008 225.846V236.058H639.189V225.846H627.008ZM627.008 236.058V246.269H639.189V236.058H627.008ZM627.008 246.269V256.48H639.189V246.269H627.008ZM627.008 256.48V266.691H639.189V256.48H627.008ZM627.008 266.691V276.903H639.189V266.691H627.008ZM725 266.691H731.091V260.601H725V266.691ZM725 276.903V282.994H731.091V276.903H725ZM643.31 276.903H637.219V282.994H643.31V276.903ZM643.31 154.368V148.277H637.219V154.368H643.31ZM725 154.368H731.091V148.277H725V154.368ZM725 164.579V170.67H731.091V164.579H725ZM663.732 164.579V158.488H657.641V164.579H663.732ZM663.732 205.424H657.641V211.515H663.732V205.424ZM714.789 205.424H720.88V199.333H714.789V205.424ZM714.789 215.635V221.726H720.88V215.635H714.789ZM663.732 215.635V209.544H657.641V215.635H663.732ZM663.732 266.691H657.641V272.782H663.732V266.691ZM704.577 272.782H714.789V260.601H704.577V272.782ZM714.789 272.782H725V260.601H714.789V272.782ZM718.909 266.691V276.903H731.091V266.691H718.909ZM725 270.812H714.789V282.994H725V270.812ZM714.789 270.812H704.577V282.994H714.789V270.812ZM704.577 270.812H694.366V282.994H704.577V270.812ZM694.366 270.812H684.155V282.994H694.366V270.812ZM684.155 270.812H673.944V282.994H684.155V270.812ZM673.944 270.812H663.732V282.994H673.944V270.812ZM663.732 270.812H653.521V282.994H663.732V270.812ZM653.521 270.812H643.31V282.994H653.521V270.812ZM649.401 276.903V266.691H637.219V276.903H649.401ZM649.401 266.691V256.48H637.219V266.691H649.401ZM649.401 256.48V246.269H637.219V256.48H649.401ZM649.401 246.269V236.058H637.219V246.269H649.401ZM649.401 236.058V225.846H637.219V236.058H649.401ZM649.401 225.846V215.635H637.219V225.846H649.401ZM649.401 215.635V205.424H637.219V215.635H649.401ZM649.401 205.424V195.213H637.219V205.424H649.401ZM649.401 195.213V185.001H637.219V195.213H649.401ZM649.401 185.001V174.79H637.219V185.001H649.401ZM649.401 174.79V164.579H637.219V174.79H649.401ZM649.401 164.579V154.368H637.219V164.579H649.401ZM643.31 160.459H653.521V148.277H643.31V160.459ZM653.521 160.459H663.732V148.277H653.521V160.459ZM663.732 160.459H673.944V148.277H663.732V160.459ZM673.944 160.459H684.155V148.277H673.944V160.459ZM684.155 160.459H694.366V148.277H684.155V160.459ZM694.366 160.459H704.577V148.277H694.366V160.459ZM704.577 160.459H714.789V148.277H704.577V160.459ZM714.789 160.459H725V148.277H714.789V160.459ZM718.909 154.368V164.579H731.091V154.368H718.909ZM725 158.488H714.789V170.67H725V158.488ZM714.789 158.488H704.577V170.67H714.789V158.488ZM704.577 158.488H694.366V170.67H704.577V158.488ZM694.366 158.488H684.155V170.67H694.366V158.488ZM684.155 158.488H673.944V170.67H684.155V158.488ZM673.944 158.488H663.732V170.67H673.944V158.488ZM657.641 164.579V174.79H669.823V164.579H657.641ZM657.641 174.79V185.001H669.823V174.79H657.641ZM657.641 185.001V195.213H669.823V185.001H657.641ZM657.641 195.213V205.424H669.823V195.213H657.641ZM663.732 211.515H673.944V199.333H663.732V211.515ZM673.944 211.515H684.155V199.333H673.944V211.515ZM684.155 211.515H694.366V199.333H684.155V211.515ZM694.366 211.515H704.577V199.333H694.366V211.515ZM704.577 211.515H714.789V199.333H704.577V211.515ZM708.698 205.424V215.635H720.88V205.424H708.698ZM714.789 209.544H704.577V221.726H714.789V209.544ZM704.577 209.544H694.366V221.726H704.577V209.544ZM694.366 209.544H684.155V221.726H694.366V209.544ZM684.155 209.544H673.944V221.726H684.155V209.544ZM673.944 209.544H663.732V221.726H673.944V209.544ZM657.641 215.635V225.846H669.823V215.635H657.641ZM657.641 225.846V236.058H669.823V225.846H657.641ZM657.641 236.058V246.269H669.823V236.058H657.641ZM657.641 246.269V256.48H669.823V246.269H657.641ZM657.641 256.48V266.691H669.823V256.48H657.641ZM663.732 272.782H673.944V260.601H663.732V272.782ZM673.944 272.782H684.155V260.601H673.944V272.782ZM684.155 272.782H694.366V260.601H684.155V272.782ZM694.366 272.782H704.577V260.601H694.366V272.782ZM816.901 276.903V282.994H822.992V276.903H816.901ZM796.479 276.903H790.388V282.994H796.479V276.903ZM796.479 236.058H802.57V229.967H796.479V236.058ZM786.268 236.058H780.177V242.149H786.268V236.058ZM786.268 225.846H792.358V219.756H786.268V225.846ZM755.634 225.846V219.756H749.543V225.846H755.634ZM755.634 276.903V282.994H761.725V276.903H755.634ZM735.211 276.903H729.12V282.994H735.211V276.903ZM735.211 154.368V148.277H729.12V154.368H735.211ZM796.479 154.368H802.57V148.277H796.479V154.368ZM796.479 164.579H790.388V170.67H796.479V164.579ZM806.69 164.579H812.781V158.488H806.69V164.579ZM806.69 174.79H800.599V180.881H806.69V174.79ZM816.901 174.79H822.992V168.699H816.901V174.79ZM816.901 205.424V211.515H822.992V205.424H816.901ZM806.69 205.424V199.333H800.599V205.424H806.69ZM806.69 215.635V221.726H812.781V215.635H806.69ZM796.479 215.635V209.544H790.388V215.635H796.479ZM796.479 225.846H790.388V231.937H796.479V225.846ZM806.69 225.846H812.781V219.756H806.69V225.846ZM806.69 236.058H800.599V242.149H806.69V236.058ZM816.901 236.058H822.992V229.967H816.901V236.058ZM786.268 215.635V221.726H792.358V215.635H786.268ZM786.268 205.424V199.333H780.177V205.424H786.268ZM796.479 205.424V211.515H802.57V205.424H796.479ZM796.479 174.79H802.57V168.699H796.479V174.79ZM786.268 174.79H780.177V180.881H786.268V174.79ZM786.268 164.579H792.358V158.488H786.268V164.579ZM755.634 164.579V158.488H749.543V164.579H755.634ZM755.634 215.635H749.543V221.726H755.634V215.635ZM816.901 270.812H806.69V282.994H816.901V270.812ZM806.69 270.812H796.479V282.994H806.69V270.812ZM802.57 276.903V266.691H790.388V276.903H802.57ZM802.57 266.691V256.48H790.388V266.691H802.57ZM802.57 256.48V246.269H790.388V256.48H802.57ZM802.57 246.269V236.058H790.388V246.269H802.57ZM796.479 229.967H786.268V242.149H796.479V229.967ZM792.358 236.058V225.846H780.177V236.058H792.358ZM786.268 219.756H776.056V231.937H786.268V219.756ZM776.056 219.756H765.845V231.937H776.056V219.756ZM765.845 219.756H755.634V231.937H765.845V219.756ZM749.543 225.846V236.058H761.725V225.846H749.543ZM749.543 236.058V246.269H761.725V236.058H749.543ZM749.543 246.269V256.48H761.725V246.269H749.543ZM749.543 256.48V266.691H761.725V256.48H749.543ZM749.543 266.691V276.903H761.725V266.691H749.543ZM755.634 270.812H745.422V282.994H755.634V270.812ZM745.422 270.812H735.211V282.994H745.422V270.812ZM741.302 276.903V266.691H729.12V276.903H741.302ZM741.302 266.691V256.48H729.12V266.691H741.302ZM741.302 256.48V246.269H729.12V256.48H741.302ZM741.302 246.269V236.058H729.12V246.269H741.302ZM741.302 236.058V225.846H729.12V236.058H741.302ZM741.302 225.846V215.635H729.12V225.846H741.302ZM741.302 215.635V205.424H729.12V215.635H741.302ZM741.302 205.424V195.213H729.12V205.424H741.302ZM741.302 195.213V185.001H729.12V195.213H741.302ZM741.302 185.001V174.79H729.12V185.001H741.302ZM741.302 174.79V164.579H729.12V174.79H741.302ZM741.302 164.579V154.368H729.12V164.579H741.302ZM735.211 160.459H745.422V148.277H735.211V160.459ZM745.422 160.459H755.634V148.277H745.422V160.459ZM755.634 160.459H765.845V148.277H755.634V160.459ZM765.845 160.459H776.056V148.277H765.845V160.459ZM776.056 160.459H786.268V148.277H776.056V160.459ZM786.268 160.459H796.479V148.277H786.268V160.459ZM790.388 154.368V164.579H802.57V154.368H790.388ZM796.479 170.67H806.69V158.488H796.479V170.67ZM800.599 164.579V174.79H812.781V164.579H800.599ZM806.69 180.881H816.901V168.699H806.69V180.881ZM810.81 174.79V185.001H822.992V174.79H810.81ZM810.81 185.001V195.213H822.992V185.001H810.81ZM810.81 195.213V205.424H822.992V195.213H810.81ZM816.901 199.333H806.69V211.515H816.901V199.333ZM800.599 205.424V215.635H812.781V205.424H800.599ZM806.69 209.544H796.479V221.726H806.69V209.544ZM790.388 215.635V225.846H802.57V215.635H790.388ZM796.479 231.937H806.69V219.756H796.479V231.937ZM800.599 225.846V236.058H812.781V225.846H800.599ZM806.69 242.149H816.901V229.967H806.69V242.149ZM810.81 236.058V246.269H822.992V236.058H810.81ZM810.81 246.269V256.48H822.992V246.269H810.81ZM810.81 256.48V266.691H822.992V256.48H810.81ZM810.81 266.691V276.903H822.992V266.691H810.81ZM765.845 221.726H776.056V209.544H765.845V221.726ZM776.056 221.726H786.268V209.544H776.056V221.726ZM792.358 215.635V205.424H780.177V215.635H792.358ZM786.268 211.515H796.479V199.333H786.268V211.515ZM802.57 205.424V195.213H790.388V205.424H802.57ZM802.57 195.213V185.001H790.388V195.213H802.57ZM802.57 185.001V174.79H790.388V185.001H802.57ZM796.479 168.699H786.268V180.881H796.479V168.699ZM792.358 174.79V164.579H780.177V174.79H792.358ZM786.268 158.488H776.056V170.67H786.268V158.488ZM776.056 158.488H765.845V170.67H776.056V158.488ZM765.845 158.488H755.634V170.67H765.845V158.488ZM749.543 164.579V174.79H761.725V164.579H749.543ZM749.543 174.79V185.001H761.725V174.79H749.543ZM749.543 185.001V195.213H761.725V185.001H749.543ZM749.543 195.213V205.424H761.725V195.213H749.543ZM749.543 205.424V215.635H761.725V205.424H749.543ZM755.634 221.726H765.845V209.544H755.634V221.726Z" fill="black"/>
<path d="M83.2707 269H73.0594H62.8482V258.789V248.577V238.366V228.155V217.944V207.732H52.6369V217.944V228.155V238.366H42.4256H32.2144V228.155V217.944V207.732H22.0031V217.944V228.155V238.366V248.577V258.789V269H11.7918H1.58057V258.789V248.577V238.366V228.155V217.944V207.732V197.521V187.31V177.099V166.887V156.676V146.465H11.7918H22.0031V156.676V166.887H32.2144V177.099V187.31H42.4256H52.6369V177.099V166.887H62.8482V156.676V146.465H73.0594H83.2707V156.676V166.887V177.099V187.31V197.521V207.732V217.944V228.155V238.366V248.577V258.789V269ZM175.172 269H164.961H154.75V258.789V248.577V238.366H144.538H134.327H124.116H113.904V248.577V258.789V269H103.693H93.482V258.789V248.577V238.366H103.693V228.155V217.944V207.732H113.904V197.521V187.31V177.099H124.116V166.887V156.676V146.465H134.327H144.538V156.676V166.887V177.099H154.75V187.31V197.521V207.732H164.961V217.944V228.155V238.366H175.172V248.577V258.789V269ZM124.116 228.155H134.327H144.538V217.944V207.732H134.327H124.116V217.944V228.155ZM267.073 269H256.862H246.651V258.789V248.577V238.366V228.155H236.44V217.944H226.228H216.017H205.806V228.155V238.366V248.577V258.789V269H195.595H185.383V258.789V248.577V238.366V228.155V217.944V207.732V197.521V187.31V177.099V166.887V156.676V146.465H195.595H205.806H216.017H226.228H236.44H246.651V156.676H256.862V166.887H267.073V177.099V187.31V197.521H256.862V207.732H246.651V217.944H256.862V228.155H267.073V238.366V248.577V258.789V269ZM216.017 207.732H226.228H236.44V197.521H246.651V187.31V177.099V166.887H236.44V156.676H226.228H216.017H205.806V166.887V177.099V187.31V197.521V207.732H216.017ZM338.552 269H328.341H318.13H307.919H297.707V258.789H287.496V248.577H277.285V238.366H287.496H297.707V248.577H307.919V258.789H318.13H328.341V248.577H338.552V238.366V228.155V217.944H328.341V207.732H318.13H307.919V197.521H297.707H287.496V187.31H277.285V177.099V166.887H287.496V156.676H297.707V146.465H307.919H318.13H328.341H338.552V156.676H348.764V166.887H358.975V177.099H348.764H338.552V166.887H328.341V156.676H318.13H307.919V166.887H297.707V177.099V187.31H307.919H318.13V197.521H328.341H338.552V207.732H348.764V217.944H358.975V228.155V238.366V248.577H348.764V258.789H338.552V269Z" fill="#E31E25"/>
<path d="M450.876 269H440.665H430.454V258.789V248.577V238.366V228.155V217.944V207.732H420.242V217.944V228.155V238.366H410.031H399.82V228.155V217.944V207.732H389.609V217.944V228.155V238.366V248.577V258.789V269H379.397H369.186V258.789V248.577V238.366V228.155V217.944V207.732V197.521V187.31V177.099V166.887V156.676V146.465H379.397H389.609V156.676V166.887H399.82V177.099V187.31H410.031H420.242V177.099V166.887H430.454V156.676V146.465H440.665H450.876V156.676V166.887V177.099V187.31V197.521V207.732V217.944V228.155V238.366V248.577V258.789V269ZM512.144 269H501.933H491.721V258.789V248.577V238.366V228.155V217.944V207.732V197.521V187.31V177.099V166.887V156.676V146.465H501.933H512.144V156.676V166.887V177.099V187.31V197.521V207.732V217.944V228.155V238.366V248.577V258.789V269ZM634.679 269H624.468H614.257V258.789H604.045V248.577V238.366H593.834V228.155V217.944H583.623V207.732V197.521H573.411V207.732V217.944V228.155V238.366V248.577V258.789V269H563.2H552.989V258.789V248.577V238.366V228.155V217.944V207.732V197.521V187.31V177.099V166.887V156.676V146.465H563.2H573.411V156.676H583.623V166.887V177.099H593.834V187.31V197.521H604.045V207.732V217.944H614.257V207.732V197.521V187.31V177.099V166.887V156.676V146.465H624.468H634.679V156.676V166.887V177.099V187.31V197.521V207.732V217.944V228.155V238.366V248.577V258.789V269ZM706.158 258.789H716.369H726.581V269H716.369H706.158H695.947H685.735H675.524H665.313H655.102H644.89V258.789V248.577V238.366V228.155V217.944V207.732V197.521V187.31V177.099V166.887V156.676V146.465H655.102H665.313H675.524H685.735H695.947H706.158H716.369H726.581V156.676H716.369H706.158H695.947H685.735H675.524H665.313V166.887V177.099V187.31V197.521H675.524H685.735H695.947H706.158H716.369V207.732H706.158H695.947H685.735H675.524H665.313V217.944V228.155V238.366V248.577V258.789H675.524H685.735H695.947H706.158ZM818.482 269H808.271H798.059V258.789V248.577V238.366V228.155H787.848V217.944H777.637H767.426H757.214V228.155V238.366V248.577V258.789V269H747.003H736.792V258.789V248.577V238.366V228.155V217.944V207.732V197.521V187.31V177.099V166.887V156.676V146.465H747.003H757.214H767.426H777.637H787.848H798.059V156.676H808.271V166.887H818.482V177.099V187.31V197.521H808.271V207.732H798.059V217.944H808.271V228.155H818.482V238.366V248.577V258.789V269ZM767.426 207.732H777.637H787.848V197.521H798.059V187.31V177.099V166.887H787.848V156.676H777.637H767.426H757.214V166.887V177.099V187.31V197.521V207.732H767.426Z" fill="white"/>
<path d="M83.2707 269V269.358H83.629V269H83.2707ZM62.8482 269H62.4899V269.358H62.8482V269ZM62.8482 207.732H63.2065V207.374H62.8482V207.732ZM52.6369 207.732V207.374H52.2786V207.732H52.6369ZM52.6369 238.366V238.724H52.9952V238.366H52.6369ZM32.2144 238.366H31.8561V238.724H32.2144V238.366ZM32.2144 207.732H32.5727V207.374H32.2144V207.732ZM22.0031 207.732V207.374H21.6448V207.732H22.0031ZM22.0031 269V269.358H22.3614V269H22.0031ZM1.58057 269H1.22228V269.358H1.58057V269ZM1.58057 146.465V146.107H1.22228V146.465H1.58057ZM22.0031 146.465H22.3614V146.107H22.0031V146.465ZM22.0031 166.887H21.6448V167.246H22.0031V166.887ZM32.2144 166.887H32.5727V166.529H32.2144V166.887ZM32.2144 187.31H31.8561V187.668H32.2144V187.31ZM52.6369 187.31V187.668H52.9952V187.31H52.6369ZM52.6369 166.887V166.529H52.2786V166.887H52.6369ZM62.8482 166.887V167.246H63.2065V166.887H62.8482ZM62.8482 146.465V146.107H62.4899V146.465H62.8482ZM83.2707 146.465H83.629V146.107H83.2707V146.465ZM83.2707 268.642H73.0594V269.358H83.2707V268.642ZM73.0594 268.642H62.8482V269.358H73.0594V268.642ZM63.2065 269V258.789H62.4899V269H63.2065ZM63.2065 258.789V248.577H62.4899V258.789H63.2065ZM63.2065 248.577V238.366H62.4899V248.577H63.2065ZM63.2065 238.366V228.155H62.4899V238.366H63.2065ZM63.2065 228.155V217.944H62.4899V228.155H63.2065ZM63.2065 217.944V207.732H62.4899V217.944H63.2065ZM62.8482 207.374H52.6369V208.091H62.8482V207.374ZM52.2786 207.732V217.944H52.9952V207.732H52.2786ZM52.2786 217.944V228.155H52.9952V217.944H52.2786ZM52.2786 228.155V238.366H52.9952V228.155H52.2786ZM52.6369 238.008H42.4256V238.724H52.6369V238.008ZM42.4256 238.008H32.2144V238.724H42.4256V238.008ZM32.5727 238.366V228.155H31.8561V238.366H32.5727ZM32.5727 228.155V217.944H31.8561V228.155H32.5727ZM32.5727 217.944V207.732H31.8561V217.944H32.5727ZM32.2144 207.374H22.0031V208.091H32.2144V207.374ZM21.6448 207.732V217.944H22.3614V207.732H21.6448ZM21.6448 217.944V228.155H22.3614V217.944H21.6448ZM21.6448 228.155V238.366H22.3614V228.155H21.6448ZM21.6448 238.366V248.577H22.3614V238.366H21.6448ZM21.6448 248.577V258.789H22.3614V248.577H21.6448ZM21.6448 258.789V269H22.3614V258.789H21.6448ZM22.0031 268.642H11.7918V269.358H22.0031V268.642ZM11.7918 268.642H1.58057V269.358H11.7918V268.642ZM1.93886 269V258.789H1.22228V269H1.93886ZM1.93886 258.789V248.577H1.22228V258.789H1.93886ZM1.93886 248.577V238.366H1.22228V248.577H1.93886ZM1.93886 238.366V228.155H1.22228V238.366H1.93886ZM1.93886 228.155V217.944H1.22228V228.155H1.93886ZM1.93886 217.944V207.732H1.22228V217.944H1.93886ZM1.93886 207.732V197.521H1.22228V207.732H1.93886ZM1.93886 197.521V187.31H1.22228V197.521H1.93886ZM1.93886 187.31V177.099H1.22228V187.31H1.93886ZM1.93886 177.099V166.887H1.22228V177.099H1.93886ZM1.93886 166.887V156.676H1.22228V166.887H1.93886ZM1.93886 156.676V146.465H1.22228V156.676H1.93886ZM1.58057 146.823H11.7918V146.107H1.58057V146.823ZM11.7918 146.823H22.0031V146.107H11.7918V146.823ZM21.6448 146.465V156.676H22.3614V146.465H21.6448ZM21.6448 156.676V166.887H22.3614V156.676H21.6448ZM22.0031 167.246H32.2144V166.529H22.0031V167.246ZM31.8561 166.887V177.099H32.5727V166.887H31.8561ZM31.8561 177.099V187.31H32.5727V177.099H31.8561ZM32.2144 187.668H42.4256V186.952H32.2144V187.668ZM42.4256 187.668H52.6369V186.952H42.4256V187.668ZM52.9952 187.31V177.099H52.2786V187.31H52.9952ZM52.9952 177.099V166.887H52.2786V177.099H52.9952ZM52.6369 167.246H62.8482V166.529H52.6369V167.246ZM63.2065 166.887V156.676H62.4899V166.887H63.2065ZM63.2065 156.676V146.465H62.4899V156.676H63.2065ZM62.8482 146.823H73.0594V146.107H62.8482V146.823ZM73.0594 146.823H83.2707V146.107H73.0594V146.823ZM82.9124 146.465V156.676H83.629V146.465H82.9124ZM82.9124 156.676V166.887H83.629V156.676H82.9124ZM82.9124 166.887V177.099H83.629V166.887H82.9124ZM82.9124 177.099V187.31H83.629V177.099H82.9124ZM82.9124 187.31V197.521H83.629V187.31H82.9124ZM82.9124 197.521V207.732H83.629V197.521H82.9124ZM82.9124 207.732V217.944H83.629V207.732H82.9124ZM82.9124 217.944V228.155H83.629V217.944H82.9124ZM82.9124 228.155V238.366H83.629V228.155H82.9124ZM82.9124 238.366V248.577H83.629V238.366H82.9124ZM82.9124 248.577V258.789H83.629V248.577H82.9124ZM82.9124 258.789V269H83.629V258.789H82.9124ZM175.172 269V269.358H175.53V269H175.172ZM154.75 269H154.391V269.358H154.75V269ZM154.75 238.366H155.108V238.008H154.75V238.366ZM113.904 238.366V238.008H113.546V238.366H113.904ZM113.904 269V269.358H114.263V269H113.904ZM93.482 269H93.1237V269.358H93.482V269ZM93.482 238.366V238.008H93.1237V238.366H93.482ZM103.693 238.366V238.724H104.052V238.366H103.693ZM103.693 207.732V207.374H103.335V207.732H103.693ZM113.904 207.732V208.091H114.263V207.732H113.904ZM113.904 177.099V176.74H113.546V177.099H113.904ZM124.116 177.099V177.457H124.474V177.099H124.116ZM124.116 146.465V146.107H123.757V146.465H124.116ZM144.538 146.465H144.897V146.107H144.538V146.465ZM144.538 177.099H144.18V177.457H144.538V177.099ZM154.75 177.099H155.108V176.74H154.75V177.099ZM154.75 207.732H154.391V208.091H154.75V207.732ZM164.961 207.732H165.319V207.374H164.961V207.732ZM164.961 238.366H164.603V238.724H164.961V238.366ZM175.172 238.366H175.53V238.008H175.172V238.366ZM124.116 228.155H123.757V228.513H124.116V228.155ZM144.538 228.155V228.513H144.897V228.155H144.538ZM144.538 207.732H144.897V207.374H144.538V207.732ZM124.116 207.732V207.374H123.757V207.732H124.116ZM175.172 268.642H164.961V269.358H175.172V268.642ZM164.961 268.642H154.75V269.358H164.961V268.642ZM155.108 269V258.789H154.391V269H155.108ZM155.108 258.789V248.577H154.391V258.789H155.108ZM155.108 248.577V238.366H154.391V248.577H155.108ZM154.75 238.008H144.538V238.724H154.75V238.008ZM144.538 238.008H134.327V238.724H144.538V238.008ZM134.327 238.008H124.116V238.724H134.327V238.008ZM124.116 238.008H113.904V238.724H124.116V238.008ZM113.546 238.366V248.577H114.263V238.366H113.546ZM113.546 248.577V258.789H114.263V248.577H113.546ZM113.546 258.789V269H114.263V258.789H113.546ZM113.904 268.642H103.693V269.358H113.904V268.642ZM103.693 268.642H93.482V269.358H103.693V268.642ZM93.8403 269V258.789H93.1237V269H93.8403ZM93.8403 258.789V248.577H93.1237V258.789H93.8403ZM93.8403 248.577V238.366H93.1237V248.577H93.8403ZM93.482 238.724H103.693V238.008H93.482V238.724ZM104.052 238.366V228.155H103.335V238.366H104.052ZM104.052 228.155V217.944H103.335V228.155H104.052ZM104.052 217.944V207.732H103.335V217.944H104.052ZM103.693 208.091H113.904V207.374H103.693V208.091ZM114.263 207.732V197.521H113.546V207.732H114.263ZM114.263 197.521V187.31H113.546V197.521H114.263ZM114.263 187.31V177.099H113.546V187.31H114.263ZM113.904 177.457H124.116V176.74H113.904V177.457ZM124.474 177.099V166.887H123.757V177.099H124.474ZM124.474 166.887V156.676H123.757V166.887H124.474ZM124.474 156.676V146.465H123.757V156.676H124.474ZM124.116 146.823H134.327V146.107H124.116V146.823ZM134.327 146.823H144.538V146.107H134.327V146.823ZM144.18 146.465V156.676H144.897V146.465H144.18ZM144.18 156.676V166.887H144.897V156.676H144.18ZM144.18 166.887V177.099H144.897V166.887H144.18ZM144.538 177.457H154.75V176.74H144.538V177.457ZM154.391 177.099V187.31H155.108V177.099H154.391ZM154.391 187.31V197.521H155.108V187.31H154.391ZM154.391 197.521V207.732H155.108V197.521H154.391ZM154.75 208.091H164.961V207.374H154.75V208.091ZM164.603 207.732V217.944H165.319V207.732H164.603ZM164.603 217.944V228.155H165.319V217.944H164.603ZM164.603 228.155V238.366H165.319V228.155H164.603ZM164.961 238.724H175.172V238.008H164.961V238.724ZM174.814 238.366V248.577H175.53V238.366H174.814ZM174.814 248.577V258.789H175.53V248.577H174.814ZM174.814 258.789V269H175.53V258.789H174.814ZM124.116 228.513H134.327V227.797H124.116V228.513ZM134.327 228.513H144.538V227.797H134.327V228.513ZM144.897 228.155V217.944H144.18V228.155H144.897ZM144.897 217.944V207.732H144.18V217.944H144.897ZM144.538 207.374H134.327V208.091H144.538V207.374ZM134.327 207.374H124.116V208.091H134.327V207.374ZM123.757 207.732V217.944H124.474V207.732H123.757ZM123.757 217.944V228.155H124.474V217.944H123.757ZM267.073 269V269.358H267.432V269H267.073ZM246.651 269H246.293V269.358H246.651V269ZM246.651 228.155H247.009V227.797H246.651V228.155ZM236.44 228.155H236.081V228.513H236.44V228.155ZM236.44 217.944H236.798V217.585H236.44V217.944ZM205.806 217.944V217.585H205.448V217.944H205.806ZM205.806 269V269.358H206.164V269H205.806ZM185.383 269H185.025V269.358H185.383V269ZM185.383 146.465V146.107H185.025V146.465H185.383ZM246.651 146.465H247.009V146.107H246.651V146.465ZM246.651 156.676H246.293V157.034H246.651V156.676ZM256.862 156.676H257.221V156.318H256.862V156.676ZM256.862 166.887H256.504V167.246H256.862V166.887ZM267.073 166.887H267.432V166.529H267.073V166.887ZM267.073 197.521V197.879H267.432V197.521H267.073ZM256.862 197.521V197.163H256.504V197.521H256.862ZM256.862 207.732V208.091H257.221V207.732H256.862ZM246.651 207.732V207.374H246.293V207.732H246.651ZM246.651 217.944H246.293V218.302H246.651V217.944ZM256.862 217.944H257.221V217.585H256.862V217.944ZM256.862 228.155H256.504V228.513H256.862V228.155ZM267.073 228.155H267.432V227.797H267.073V228.155ZM236.44 207.732V208.091H236.798V207.732H236.44ZM236.44 197.521V197.163H236.081V197.521H236.44ZM246.651 197.521V197.879H247.009V197.521H246.651ZM246.651 166.887H247.009V166.529H246.651V166.887ZM236.44 166.887H236.081V167.246H236.44V166.887ZM236.44 156.676H236.798V156.318H236.44V156.676ZM205.806 156.676V156.318H205.448V156.676H205.806ZM205.806 207.732H205.448V208.091H205.806V207.732ZM267.073 268.642H256.862V269.358H267.073V268.642ZM256.862 268.642H246.651V269.358H256.862V268.642ZM247.009 269V258.789H246.293V269H247.009ZM247.009 258.789V248.577H246.293V258.789H247.009ZM247.009 248.577V238.366H246.293V248.577H247.009ZM247.009 238.366V228.155H246.293V238.366H247.009ZM246.651 227.797H236.44V228.513H246.651V227.797ZM236.798 228.155V217.944H236.081V228.155H236.798ZM236.44 217.585H226.228V218.302H236.44V217.585ZM226.228 217.585H216.017V218.302H226.228V217.585ZM216.017 217.585H205.806V218.302H216.017V217.585ZM205.448 217.944V228.155H206.164V217.944H205.448ZM205.448 228.155V238.366H206.164V228.155H205.448ZM205.448 238.366V248.577H206.164V238.366H205.448ZM205.448 248.577V258.789H206.164V248.577H205.448ZM205.448 258.789V269H206.164V258.789H205.448ZM205.806 268.642H195.595V269.358H205.806V268.642ZM195.595 268.642H185.383V269.358H195.595V268.642ZM185.742 269V258.789H185.025V269H185.742ZM185.742 258.789V248.577H185.025V258.789H185.742ZM185.742 248.577V238.366H185.025V248.577H185.742ZM185.742 238.366V228.155H185.025V238.366H185.742ZM185.742 228.155V217.944H185.025V228.155H185.742ZM185.742 217.944V207.732H185.025V217.944H185.742ZM185.742 207.732V197.521H185.025V207.732H185.742ZM185.742 197.521V187.31H185.025V197.521H185.742ZM185.742 187.31V177.099H185.025V187.31H185.742ZM185.742 177.099V166.887H185.025V177.099H185.742ZM185.742 166.887V156.676H185.025V166.887H185.742ZM185.742 156.676V146.465H185.025V156.676H185.742ZM185.383 146.823H195.595V146.107H185.383V146.823ZM195.595 146.823H205.806V146.107H195.595V146.823ZM205.806 146.823H216.017V146.107H205.806V146.823ZM216.017 146.823H226.228V146.107H216.017V146.823ZM226.228 146.823H236.44V146.107H226.228V146.823ZM236.44 146.823H246.651V146.107H236.44V146.823ZM246.293 146.465V156.676H247.009V146.465H246.293ZM246.651 157.034H256.862V156.318H246.651V157.034ZM256.504 156.676V166.887H257.221V156.676H256.504ZM256.862 167.246H267.073V166.529H256.862V167.246ZM266.715 166.887V177.099H267.432V166.887H266.715ZM266.715 177.099V187.31H267.432V177.099H266.715ZM266.715 187.31V197.521H267.432V187.31H266.715ZM267.073 197.163H256.862V197.879H267.073V197.163ZM256.504 197.521V207.732H257.221V197.521H256.504ZM256.862 207.374H246.651V208.091H256.862V207.374ZM246.293 207.732V217.944H247.009V207.732H246.293ZM246.651 218.302H256.862V217.585H246.651V218.302ZM256.504 217.944V228.155H257.221V217.944H256.504ZM256.862 228.513H267.073V227.797H256.862V228.513ZM266.715 228.155V238.366H267.432V228.155H266.715ZM266.715 238.366V248.577H267.432V238.366H266.715ZM266.715 248.577V258.789H267.432V248.577H266.715ZM266.715 258.789V269H267.432V258.789H266.715ZM216.017 208.091H226.228V207.374H216.017V208.091ZM226.228 208.091H236.44V207.374H226.228V208.091ZM236.798 207.732V197.521H236.081V207.732H236.798ZM236.44 197.879H246.651V197.163H236.44V197.879ZM247.009 197.521V187.31H246.293V197.521H247.009ZM247.009 187.31V177.099H246.293V187.31H247.009ZM247.009 177.099V166.887H246.293V177.099H247.009ZM246.651 166.529H236.44V167.246H246.651V166.529ZM236.798 166.887V156.676H236.081V166.887H236.798ZM236.44 156.318H226.228V157.034H236.44V156.318ZM226.228 156.318H216.017V157.034H226.228V156.318ZM216.017 156.318H205.806V157.034H216.017V156.318ZM205.448 156.676V166.887H206.164V156.676H205.448ZM205.448 166.887V177.099H206.164V166.887H205.448ZM205.448 177.099V187.31H206.164V177.099H205.448ZM205.448 187.31V197.521H206.164V187.31H205.448ZM205.448 197.521V207.732H206.164V197.521H205.448ZM205.806 208.091H216.017V207.374H205.806V208.091ZM338.552 269V269.358H338.911V269H338.552ZM297.707 269H297.349V269.358H297.707V269ZM297.707 258.789H298.066V258.43H297.707V258.789ZM287.496 258.789H287.138V259.147H287.496V258.789ZM287.496 248.577H287.854V248.219H287.496V248.577ZM277.285 248.577H276.926V248.936H277.285V248.577ZM277.285 238.366V238.008H276.926V238.366H277.285ZM297.707 238.366H298.066V238.008H297.707V238.366ZM297.707 248.577H297.349V248.936H297.707V248.577ZM307.919 248.577H308.277V248.219H307.919V248.577ZM307.919 258.789H307.56V259.147H307.919V258.789ZM328.341 258.789V259.147H328.699V258.789H328.341ZM328.341 248.577V248.219H327.983V248.577H328.341ZM338.552 248.577V248.936H338.911V248.577H338.552ZM338.552 217.944H338.911V217.585H338.552V217.944ZM328.341 217.944H327.983V218.302H328.341V217.944ZM328.341 207.732H328.699V207.374H328.341V207.732ZM307.919 207.732H307.56V208.091H307.919V207.732ZM307.919 197.521H308.277V197.163H307.919V197.521ZM287.496 197.521H287.138V197.879H287.496V197.521ZM287.496 187.31H287.854V186.952H287.496V187.31ZM277.285 187.31H276.926V187.668H277.285V187.31ZM277.285 166.887V166.529H276.926V166.887H277.285ZM287.496 166.887V167.246H287.854V166.887H287.496ZM287.496 156.676V156.318H287.138V156.676H287.496ZM297.707 156.676V157.034H298.066V156.676H297.707ZM297.707 146.465V146.107H297.349V146.465H297.707ZM338.552 146.465H338.911V146.107H338.552V146.465ZM338.552 156.676H338.194V157.034H338.552V156.676ZM348.764 156.676H349.122V156.318H348.764V156.676ZM348.764 166.887H348.405V167.246H348.764V166.887ZM358.975 166.887H359.333V166.529H358.975V166.887ZM358.975 177.099V177.457H359.333V177.099H358.975ZM338.552 177.099H338.194V177.457H338.552V177.099ZM338.552 166.887H338.911V166.529H338.552V166.887ZM328.341 166.887H327.983V167.246H328.341V166.887ZM328.341 156.676H328.699V156.318H328.341V156.676ZM307.919 156.676V156.318H307.56V156.676H307.919ZM307.919 166.887V167.246H308.277V166.887H307.919ZM297.707 166.887V166.529H297.349V166.887H297.707ZM297.707 187.31H297.349V187.668H297.707V187.31ZM318.13 187.31H318.488V186.952H318.13V187.31ZM318.13 197.521H317.772V197.879H318.13V197.521ZM338.552 197.521H338.911V197.163H338.552V197.521ZM338.552 207.732H338.194V208.091H338.552V207.732ZM348.764 207.732H349.122V207.374H348.764V207.732ZM348.764 217.944H348.405V218.302H348.764V217.944ZM358.975 217.944H359.333V217.585H358.975V217.944ZM358.975 248.577V248.936H359.333V248.577H358.975ZM348.764 248.577V248.219H348.405V248.577H348.764ZM348.764 258.789V259.147H349.122V258.789H348.764ZM338.552 258.789V258.43H338.194V258.789H338.552ZM338.552 268.642H328.341V269.358H338.552V268.642ZM328.341 268.642H318.13V269.358H328.341V268.642ZM318.13 268.642H307.919V269.358H318.13V268.642ZM307.919 268.642H297.707V269.358H307.919V268.642ZM298.066 269V258.789H297.349V269H298.066ZM297.707 258.43H287.496V259.147H297.707V258.43ZM287.854 258.789V248.577H287.138V258.789H287.854ZM287.496 248.219H277.285V248.936H287.496V248.219ZM277.643 248.577V238.366H276.926V248.577H277.643ZM277.285 238.724H287.496V238.008H277.285V238.724ZM287.496 238.724H297.707V238.008H287.496V238.724ZM297.349 238.366V248.577H298.066V238.366H297.349ZM297.707 248.936H307.919V248.219H297.707V248.936ZM307.56 248.577V258.789H308.277V248.577H307.56ZM307.919 259.147H318.13V258.43H307.919V259.147ZM318.13 259.147H328.341V258.43H318.13V259.147ZM328.699 258.789V248.577H327.983V258.789H328.699ZM328.341 248.936H338.552V248.219H328.341V248.936ZM338.911 248.577V238.366H338.194V248.577H338.911ZM338.911 238.366V228.155H338.194V238.366H338.911ZM338.911 228.155V217.944H338.194V228.155H338.911ZM338.552 217.585H328.341V218.302H338.552V217.585ZM328.699 217.944V207.732H327.983V217.944H328.699ZM328.341 207.374H318.13V208.091H328.341V207.374ZM318.13 207.374H307.919V208.091H318.13V207.374ZM308.277 207.732V197.521H307.56V207.732H308.277ZM307.919 197.163H297.707V197.879H307.919V197.163ZM297.707 197.163H287.496V197.879H297.707V197.163ZM287.854 197.521V187.31H287.138V197.521H287.854ZM287.496 186.952H277.285V187.668H287.496V186.952ZM277.643 187.31V177.099H276.926V187.31H277.643ZM277.643 177.099V166.887H276.926V177.099H277.643ZM277.285 167.246H287.496V166.529H277.285V167.246ZM287.854 166.887V156.676H287.138V166.887H287.854ZM287.496 157.034H297.707V156.318H287.496V157.034ZM298.066 156.676V146.465H297.349V156.676H298.066ZM297.707 146.823H307.919V146.107H297.707V146.823ZM307.919 146.823H318.13V146.107H307.919V146.823ZM318.13 146.823H328.341V146.107H318.13V146.823ZM328.341 146.823H338.552V146.107H328.341V146.823ZM338.194 146.465V156.676H338.911V146.465H338.194ZM338.552 157.034H348.764V156.318H338.552V157.034ZM348.405 156.676V166.887H349.122V156.676H348.405ZM348.764 167.246H358.975V166.529H348.764V167.246ZM358.617 166.887V177.099H359.333V166.887H358.617ZM358.975 176.74H348.764V177.457H358.975V176.74ZM348.764 176.74H338.552V177.457H348.764V176.74ZM338.911 177.099V166.887H338.194V177.099H338.911ZM338.552 166.529H328.341V167.246H338.552V166.529ZM328.699 166.887V156.676H327.983V166.887H328.699ZM328.341 156.318H318.13V157.034H328.341V156.318ZM318.13 156.318H307.919V157.034H318.13V156.318ZM307.56 156.676V166.887H308.277V156.676H307.56ZM307.919 166.529H297.707V167.246H307.919V166.529ZM297.349 166.887V177.099H298.066V166.887H297.349ZM297.349 177.099V187.31H298.066V177.099H297.349ZM297.707 187.668H307.919V186.952H297.707V187.668ZM307.919 187.668H318.13V186.952H307.919V187.668ZM317.772 187.31V197.521H318.488V187.31H317.772ZM318.13 197.879H328.341V197.163H318.13V197.879ZM328.341 197.879H338.552V197.163H328.341V197.879ZM338.194 197.521V207.732H338.911V197.521H338.194ZM338.552 208.091H348.764V207.374H338.552V208.091ZM348.405 207.732V217.944H349.122V207.732H348.405ZM348.764 218.302H358.975V217.585H348.764V218.302ZM358.617 217.944V228.155H359.333V217.944H358.617ZM358.617 228.155V238.366H359.333V228.155H358.617ZM358.617 238.366V248.577H359.333V238.366H358.617ZM358.975 248.219H348.764V248.936H358.975V248.219ZM348.405 248.577V258.789H349.122V248.577H348.405ZM348.764 258.43H338.552V259.147H348.764V258.43ZM338.194 258.789V269H338.911V258.789H338.194ZM450.876 269V269.358H451.235V269H450.876ZM430.454 269H430.095V269.358H430.454V269ZM430.454 207.732H430.812V207.374H430.454V207.732ZM420.242 207.732V207.374H419.884V207.732H420.242ZM420.242 238.366V238.724H420.601V238.366H420.242ZM399.82 238.366H399.462V238.724H399.82V238.366ZM399.82 207.732H400.178V207.374H399.82V207.732ZM389.609 207.732V207.374H389.25V207.732H389.609ZM389.609 269V269.358H389.967V269H389.609ZM369.186 269H368.828V269.358H369.186V269ZM369.186 146.465V146.107H368.828V146.465H369.186ZM389.609 146.465H389.967V146.107H389.609V146.465ZM389.609 166.887H389.25V167.246H389.609V166.887ZM399.82 166.887H400.178V166.529H399.82V166.887ZM399.82 187.31H399.462V187.668H399.82V187.31ZM420.242 187.31V187.668H420.601V187.31H420.242ZM420.242 166.887V166.529H419.884V166.887H420.242ZM430.454 166.887V167.246H430.812V166.887H430.454ZM430.454 146.465V146.107H430.095V146.465H430.454ZM450.876 146.465H451.235V146.107H450.876V146.465ZM450.876 268.642H440.665V269.358H450.876V268.642ZM440.665 268.642H430.454V269.358H440.665V268.642ZM430.812 269V258.789H430.095V269H430.812ZM430.812 258.789V248.577H430.095V258.789H430.812ZM430.812 248.577V238.366H430.095V248.577H430.812ZM430.812 238.366V228.155H430.095V238.366H430.812ZM430.812 228.155V217.944H430.095V228.155H430.812ZM430.812 217.944V207.732H430.095V217.944H430.812ZM430.454 207.374H420.242V208.091H430.454V207.374ZM419.884 207.732V217.944H420.601V207.732H419.884ZM419.884 217.944V228.155H420.601V217.944H419.884ZM419.884 228.155V238.366H420.601V228.155H419.884ZM420.242 238.008H410.031V238.724H420.242V238.008ZM410.031 238.008H399.82V238.724H410.031V238.008ZM400.178 238.366V228.155H399.462V238.366H400.178ZM400.178 228.155V217.944H399.462V228.155H400.178ZM400.178 217.944V207.732H399.462V217.944H400.178ZM399.82 207.374H389.609V208.091H399.82V207.374ZM389.25 207.732V217.944H389.967V207.732H389.25ZM389.25 217.944V228.155H389.967V217.944H389.25ZM389.25 228.155V238.366H389.967V228.155H389.25ZM389.25 238.366V248.577H389.967V238.366H389.25ZM389.25 248.577V258.789H389.967V248.577H389.25ZM389.25 258.789V269H389.967V258.789H389.25ZM389.609 268.642H379.397V269.358H389.609V268.642ZM379.397 268.642H369.186V269.358H379.397V268.642ZM369.544 269V258.789H368.828V269H369.544ZM369.544 258.789V248.577H368.828V258.789H369.544ZM369.544 248.577V238.366H368.828V248.577H369.544ZM369.544 238.366V228.155H368.828V238.366H369.544ZM369.544 228.155V217.944H368.828V228.155H369.544ZM369.544 217.944V207.732H368.828V217.944H369.544ZM369.544 207.732V197.521H368.828V207.732H369.544ZM369.544 197.521V187.31H368.828V197.521H369.544ZM369.544 187.31V177.099H368.828V187.31H369.544ZM369.544 177.099V166.887H368.828V177.099H369.544ZM369.544 166.887V156.676H368.828V166.887H369.544ZM369.544 156.676V146.465H368.828V156.676H369.544ZM369.186 146.823H379.397V146.107H369.186V146.823ZM379.397 146.823H389.609V146.107H379.397V146.823ZM389.25 146.465V156.676H389.967V146.465H389.25ZM389.25 156.676V166.887H389.967V156.676H389.25ZM389.609 167.246H399.82V166.529H389.609V167.246ZM399.462 166.887V177.099H400.178V166.887H399.462ZM399.462 177.099V187.31H400.178V177.099H399.462ZM399.82 187.668H410.031V186.952H399.82V187.668ZM410.031 187.668H420.242V186.952H410.031V187.668ZM420.601 187.31V177.099H419.884V187.31H420.601ZM420.601 177.099V166.887H419.884V177.099H420.601ZM420.242 167.246H430.454V166.529H420.242V167.246ZM430.812 166.887V156.676H430.095V166.887H430.812ZM430.812 156.676V146.465H430.095V156.676H430.812ZM430.454 146.823H440.665V146.107H430.454V146.823ZM440.665 146.823H450.876V146.107H440.665V146.823ZM450.518 146.465V156.676H451.235V146.465H450.518ZM450.518 156.676V166.887H451.235V156.676H450.518ZM450.518 166.887V177.099H451.235V166.887H450.518ZM450.518 177.099V187.31H451.235V177.099H450.518ZM450.518 187.31V197.521H451.235V187.31H450.518ZM450.518 197.521V207.732H451.235V197.521H450.518ZM450.518 207.732V217.944H451.235V207.732H450.518ZM450.518 217.944V228.155H451.235V217.944H450.518ZM450.518 228.155V238.366H451.235V228.155H450.518ZM450.518 238.366V248.577H451.235V238.366H450.518ZM450.518 248.577V258.789H451.235V248.577H450.518ZM450.518 258.789V269H451.235V258.789H450.518ZM512.144 269V269.358H512.502V269H512.144ZM491.721 269H491.363V269.358H491.721V269ZM491.721 146.465V146.107H491.363V146.465H491.721ZM512.144 146.465H512.502V146.107H512.144V146.465ZM512.144 268.642H501.933V269.358H512.144V268.642ZM501.933 268.642H491.721V269.358H501.933V268.642ZM492.08 269V258.789H491.363V269H492.08ZM492.08 258.789V248.577H491.363V258.789H492.08ZM492.08 248.577V238.366H491.363V248.577H492.08ZM492.08 238.366V228.155H491.363V238.366H492.08ZM492.08 228.155V217.944H491.363V228.155H492.08ZM492.08 217.944V207.732H491.363V217.944H492.08ZM492.08 207.732V197.521H491.363V207.732H492.08ZM492.08 197.521V187.31H491.363V197.521H492.08ZM492.08 187.31V177.099H491.363V187.31H492.08ZM492.08 177.099V166.887H491.363V177.099H492.08ZM492.08 166.887V156.676H491.363V166.887H492.08ZM492.08 156.676V146.465H491.363V156.676H492.08ZM491.721 146.823H501.933V146.107H491.721V146.823ZM501.933 146.823H512.144V146.107H501.933V146.823ZM511.786 146.465V156.676H512.502V146.465H511.786ZM511.786 156.676V166.887H512.502V156.676H511.786ZM511.786 166.887V177.099H512.502V166.887H511.786ZM511.786 177.099V187.31H512.502V177.099H511.786ZM511.786 187.31V197.521H512.502V187.31H511.786ZM511.786 197.521V207.732H512.502V197.521H511.786ZM511.786 207.732V217.944H512.502V207.732H511.786ZM511.786 217.944V228.155H512.502V217.944H511.786ZM511.786 228.155V238.366H512.502V228.155H511.786ZM511.786 238.366V248.577H512.502V238.366H511.786ZM511.786 248.577V258.789H512.502V248.577H511.786ZM511.786 258.789V269H512.502V258.789H511.786ZM634.679 269V269.358H635.037V269H634.679ZM614.257 269H613.898V269.358H614.257V269ZM614.257 258.789H614.615V258.43H614.257V258.789ZM604.045 258.789H603.687V259.147H604.045V258.789ZM604.045 238.366H604.404V238.008H604.045V238.366ZM593.834 238.366H593.476V238.724H593.834V238.366ZM593.834 217.944H594.192V217.585H593.834V217.944ZM583.623 217.944H583.264V218.302H583.623V217.944ZM583.623 197.521H583.981V197.163H583.623V197.521ZM573.411 197.521V197.163H573.053V197.521H573.411ZM573.411 269V269.358H573.77V269H573.411ZM552.989 269H552.631V269.358H552.989V269ZM552.989 146.465V146.107H552.631V146.465H552.989ZM573.411 146.465H573.77V146.107H573.411V146.465ZM573.411 156.676H573.053V157.034H573.411V156.676ZM583.623 156.676H583.981V156.318H583.623V156.676ZM583.623 177.099H583.264V177.457H583.623V177.099ZM593.834 177.099H594.192V176.74H593.834V177.099ZM593.834 197.521H593.476V197.879H593.834V197.521ZM604.045 197.521H604.404V197.163H604.045V197.521ZM604.045 217.944H603.687V218.302H604.045V217.944ZM614.257 217.944V218.302H614.615V217.944H614.257ZM614.257 146.465V146.107H613.898V146.465H614.257ZM634.679 146.465H635.037V146.107H634.679V146.465ZM634.679 268.642H624.468V269.358H634.679V268.642ZM624.468 268.642H614.257V269.358H624.468V268.642ZM614.615 269V258.789H613.898V269H614.615ZM614.257 258.43H604.045V259.147H614.257V258.43ZM604.404 258.789V248.577H603.687V258.789H604.404ZM604.404 248.577V238.366H603.687V248.577H604.404ZM604.045 238.008H593.834V238.724H604.045V238.008ZM594.192 238.366V228.155H593.476V238.366H594.192ZM594.192 228.155V217.944H593.476V228.155H594.192ZM593.834 217.585H583.623V218.302H593.834V217.585ZM583.981 217.944V207.732H583.264V217.944H583.981ZM583.981 207.732V197.521H583.264V207.732H583.981ZM583.623 197.163H573.411V197.879H583.623V197.163ZM573.053 197.521V207.732H573.77V197.521H573.053ZM573.053 207.732V217.944H573.77V207.732H573.053ZM573.053 217.944V228.155H573.77V217.944H573.053ZM573.053 228.155V238.366H573.77V228.155H573.053ZM573.053 238.366V248.577H573.77V238.366H573.053ZM573.053 248.577V258.789H573.77V248.577H573.053ZM573.053 258.789V269H573.77V258.789H573.053ZM573.411 268.642H563.2V269.358H573.411V268.642ZM563.2 268.642H552.989V269.358H563.2V268.642ZM553.347 269V258.789H552.631V269H553.347ZM553.347 258.789V248.577H552.631V258.789H553.347ZM553.347 248.577V238.366H552.631V248.577H553.347ZM553.347 238.366V228.155H552.631V238.366H553.347ZM553.347 228.155V217.944H552.631V228.155H553.347ZM553.347 217.944V207.732H552.631V217.944H553.347ZM553.347 207.732V197.521H552.631V207.732H553.347ZM553.347 197.521V187.31H552.631V197.521H553.347ZM553.347 187.31V177.099H552.631V187.31H553.347ZM553.347 177.099V166.887H552.631V177.099H553.347ZM553.347 166.887V156.676H552.631V166.887H553.347ZM553.347 156.676V146.465H552.631V156.676H553.347ZM552.989 146.823H563.2V146.107H552.989V146.823ZM563.2 146.823H573.411V146.107H563.2V146.823ZM573.053 146.465V156.676H573.77V146.465H573.053ZM573.411 157.034H583.623V156.318H573.411V157.034ZM583.264 156.676V166.887H583.981V156.676H583.264ZM583.264 166.887V177.099H583.981V166.887H583.264ZM583.623 177.457H593.834V176.74H583.623V177.457ZM593.476 177.099V187.31H594.192V177.099H593.476ZM593.476 187.31V197.521H594.192V187.31H593.476ZM593.834 197.879H604.045V197.163H593.834V197.879ZM603.687 197.521V207.732H604.404V197.521H603.687ZM603.687 207.732V217.944H604.404V207.732H603.687ZM604.045 218.302H614.257V217.585H604.045V218.302ZM614.615 217.944V207.732H613.898V217.944H614.615ZM614.615 207.732V197.521H613.898V207.732H614.615ZM614.615 197.521V187.31H613.898V197.521H614.615ZM614.615 187.31V177.099H613.898V187.31H614.615ZM614.615 177.099V166.887H613.898V177.099H614.615ZM614.615 166.887V156.676H613.898V166.887H614.615ZM614.615 156.676V146.465H613.898V156.676H614.615ZM614.257 146.823H624.468V146.107H614.257V146.823ZM624.468 146.823H634.679V146.107H624.468V146.823ZM634.321 146.465V156.676H635.037V146.465H634.321ZM634.321 156.676V166.887H635.037V156.676H634.321ZM634.321 166.887V177.099H635.037V166.887H634.321ZM634.321 177.099V187.31H635.037V177.099H634.321ZM634.321 187.31V197.521H635.037V187.31H634.321ZM634.321 197.521V207.732H635.037V197.521H634.321ZM634.321 207.732V217.944H635.037V207.732H634.321ZM634.321 217.944V228.155H635.037V217.944H634.321ZM634.321 228.155V238.366H635.037V228.155H634.321ZM634.321 238.366V248.577H635.037V238.366H634.321ZM634.321 248.577V258.789H635.037V248.577H634.321ZM634.321 258.789V269H635.037V258.789H634.321ZM726.581 258.789H726.939V258.43H726.581V258.789ZM726.581 269V269.358H726.939V269H726.581ZM644.89 269H644.532V269.358H644.89V269ZM644.89 146.465V146.107H644.532V146.465H644.89ZM726.581 146.465H726.939V146.107H726.581V146.465ZM726.581 156.676V157.034H726.939V156.676H726.581ZM665.313 156.676V156.318H664.955V156.676H665.313ZM665.313 197.521H664.955V197.879H665.313V197.521ZM716.369 197.521H716.728V197.163H716.369V197.521ZM716.369 207.732V208.091H716.728V207.732H716.369ZM665.313 207.732V207.374H664.955V207.732H665.313ZM665.313 258.789H664.955V259.147H665.313V258.789ZM706.158 259.147H716.369V258.43H706.158V259.147ZM716.369 259.147H726.581V258.43H716.369V259.147ZM726.222 258.789V269H726.939V258.789H726.222ZM726.581 268.642H716.369V269.358H726.581V268.642ZM716.369 268.642H706.158V269.358H716.369V268.642ZM706.158 268.642H695.947V269.358H706.158V268.642ZM695.947 268.642H685.735V269.358H695.947V268.642ZM685.735 268.642H675.524V269.358H685.735V268.642ZM675.524 268.642H665.313V269.358H675.524V268.642ZM665.313 268.642H655.102V269.358H665.313V268.642ZM655.102 268.642H644.89V269.358H655.102V268.642ZM645.249 269V258.789H644.532V269H645.249ZM645.249 258.789V248.577H644.532V258.789H645.249ZM645.249 248.577V238.366H644.532V248.577H645.249ZM645.249 238.366V228.155H644.532V238.366H645.249ZM645.249 228.155V217.944H644.532V228.155H645.249ZM645.249 217.944V207.732H644.532V217.944H645.249ZM645.249 207.732V197.521H644.532V207.732H645.249ZM645.249 197.521V187.31H644.532V197.521H645.249ZM645.249 187.31V177.099H644.532V187.31H645.249ZM645.249 177.099V166.887H644.532V177.099H645.249ZM645.249 166.887V156.676H644.532V166.887H645.249ZM645.249 156.676V146.465H644.532V156.676H645.249ZM644.89 146.823H655.102V146.107H644.89V146.823ZM655.102 146.823H665.313V146.107H655.102V146.823ZM665.313 146.823H675.524V146.107H665.313V146.823ZM675.524 146.823H685.735V146.107H675.524V146.823ZM685.735 146.823H695.947V146.107H685.735V146.823ZM695.947 146.823H706.158V146.107H695.947V146.823ZM706.158 146.823H716.369V146.107H706.158V146.823ZM716.369 146.823H726.581V146.107H716.369V146.823ZM726.222 146.465V156.676H726.939V146.465H726.222ZM726.581 156.318H716.369V157.034H726.581V156.318ZM716.369 156.318H706.158V157.034H716.369V156.318ZM706.158 156.318H695.947V157.034H706.158V156.318ZM695.947 156.318H685.735V157.034H695.947V156.318ZM685.735 156.318H675.524V157.034H685.735V156.318ZM675.524 156.318H665.313V157.034H675.524V156.318ZM664.955 156.676V166.887H665.671V156.676H664.955ZM664.955 166.887V177.099H665.671V166.887H664.955ZM664.955 177.099V187.31H665.671V177.099H664.955ZM664.955 187.31V197.521H665.671V187.31H664.955ZM665.313 197.879H675.524V197.163H665.313V197.879ZM675.524 197.879H685.735V197.163H675.524V197.879ZM685.735 197.879H695.947V197.163H685.735V197.879ZM695.947 197.879H706.158V197.163H695.947V197.879ZM706.158 197.879H716.369V197.163H706.158V197.879ZM716.011 197.521V207.732H716.728V197.521H716.011ZM716.369 207.374H706.158V208.091H716.369V207.374ZM706.158 207.374H695.947V208.091H706.158V207.374ZM695.947 207.374H685.735V208.091H695.947V207.374ZM685.735 207.374H675.524V208.091H685.735V207.374ZM675.524 207.374H665.313V208.091H675.524V207.374ZM664.955 207.732V217.944H665.671V207.732H664.955ZM664.955 217.944V228.155H665.671V217.944H664.955ZM664.955 228.155V238.366H665.671V228.155H664.955ZM664.955 238.366V248.577H665.671V238.366H664.955ZM664.955 248.577V258.789H665.671V248.577H664.955ZM665.313 259.147H675.524V258.43H665.313V259.147ZM675.524 259.147H685.735V258.43H675.524V259.147ZM685.735 259.147H695.947V258.43H685.735V259.147ZM695.947 259.147H706.158V258.43H695.947V259.147ZM818.482 269V269.358H818.84V269H818.482ZM798.059 269H797.701V269.358H798.059V269ZM798.059 228.155H798.418V227.797H798.059V228.155ZM787.848 228.155H787.49V228.513H787.848V228.155ZM787.848 217.944H788.206V217.585H787.848V217.944ZM757.214 217.944V217.585H756.856V217.944H757.214ZM757.214 269V269.358H757.573V269H757.214ZM736.792 269H736.433V269.358H736.792V269ZM736.792 146.465V146.107H736.433V146.465H736.792ZM798.059 146.465H798.418V146.107H798.059V146.465ZM798.059 156.676H797.701V157.034H798.059V156.676ZM808.271 156.676H808.629V156.318H808.271V156.676ZM808.271 166.887H807.912V167.246H808.271V166.887ZM818.482 166.887H818.84V166.529H818.482V166.887ZM818.482 197.521V197.879H818.84V197.521H818.482ZM808.271 197.521V197.163H807.912V197.521H808.271ZM808.271 207.732V208.091H808.629V207.732H808.271ZM798.059 207.732V207.374H797.701V207.732H798.059ZM798.059 217.944H797.701V218.302H798.059V217.944ZM808.271 217.944H808.629V217.585H808.271V217.944ZM808.271 228.155H807.912V228.513H808.271V228.155ZM818.482 228.155H818.84V227.797H818.482V228.155ZM787.848 207.732V208.091H788.206V207.732H787.848ZM787.848 197.521V197.163H787.49V197.521H787.848ZM798.059 197.521V197.879H798.418V197.521H798.059ZM798.059 166.887H798.418V166.529H798.059V166.887ZM787.848 166.887H787.49V167.246H787.848V166.887ZM787.848 156.676H788.206V156.318H787.848V156.676ZM757.214 156.676V156.318H756.856V156.676H757.214ZM757.214 207.732H756.856V208.091H757.214V207.732ZM818.482 268.642H808.271V269.358H818.482V268.642ZM808.271 268.642H798.059V269.358H808.271V268.642ZM798.418 269V258.789H797.701V269H798.418ZM798.418 258.789V248.577H797.701V258.789H798.418ZM798.418 248.577V238.366H797.701V248.577H798.418ZM798.418 238.366V228.155H797.701V238.366H798.418ZM798.059 227.797H787.848V228.513H798.059V227.797ZM788.206 228.155V217.944H787.49V228.155H788.206ZM787.848 217.585H777.637V218.302H787.848V217.585ZM777.637 217.585H767.426V218.302H777.637V217.585ZM767.426 217.585H757.214V218.302H767.426V217.585ZM756.856 217.944V228.155H757.573V217.944H756.856ZM756.856 228.155V238.366H757.573V228.155H756.856ZM756.856 238.366V248.577H757.573V238.366H756.856ZM756.856 248.577V258.789H757.573V248.577H756.856ZM756.856 258.789V269H757.573V258.789H756.856ZM757.214 268.642H747.003V269.358H757.214V268.642ZM747.003 268.642H736.792V269.358H747.003V268.642ZM737.15 269V258.789H736.433V269H737.15ZM737.15 258.789V248.577H736.433V258.789H737.15ZM737.15 248.577V238.366H736.433V248.577H737.15ZM737.15 238.366V228.155H736.433V238.366H737.15ZM737.15 228.155V217.944H736.433V228.155H737.15ZM737.15 217.944V207.732H736.433V217.944H737.15ZM737.15 207.732V197.521H736.433V207.732H737.15ZM737.15 197.521V187.31H736.433V197.521H737.15ZM737.15 187.31V177.099H736.433V187.31H737.15ZM737.15 177.099V166.887H736.433V177.099H737.15ZM737.15 166.887V156.676H736.433V166.887H737.15ZM737.15 156.676V146.465H736.433V156.676H737.15ZM736.792 146.823H747.003V146.107H736.792V146.823ZM747.003 146.823H757.214V146.107H747.003V146.823ZM757.214 146.823H767.426V146.107H757.214V146.823ZM767.426 146.823H777.637V146.107H767.426V146.823ZM777.637 146.823H787.848V146.107H777.637V146.823ZM787.848 146.823H798.059V146.107H787.848V146.823ZM797.701 146.465V156.676H798.418V146.465H797.701ZM798.059 157.034H808.271V156.318H798.059V157.034ZM807.912 156.676V166.887H808.629V156.676H807.912ZM808.271 167.246H818.482V166.529H808.271V167.246ZM818.124 166.887V177.099H818.84V166.887H818.124ZM818.124 177.099V187.31H818.84V177.099H818.124ZM818.124 187.31V197.521H818.84V187.31H818.124ZM818.482 197.163H808.271V197.879H818.482V197.163ZM807.912 197.521V207.732H808.629V197.521H807.912ZM808.271 207.374H798.059V208.091H808.271V207.374ZM797.701 207.732V217.944H798.418V207.732H797.701ZM798.059 218.302H808.271V217.585H798.059V218.302ZM807.912 217.944V228.155H808.629V217.944H807.912ZM808.271 228.513H818.482V227.797H808.271V228.513ZM818.124 228.155V238.366H818.84V228.155H818.124ZM818.124 238.366V248.577H818.84V238.366H818.124ZM818.124 248.577V258.789H818.84V248.577H818.124ZM818.124 258.789V269H818.84V258.789H818.124ZM767.426 208.091H777.637V207.374H767.426V208.091ZM777.637 208.091H787.848V207.374H777.637V208.091ZM788.206 207.732V197.521H787.49V207.732H788.206ZM787.848 197.879H798.059V197.163H787.848V197.879ZM798.418 197.521V187.31H797.701V197.521H798.418ZM798.418 187.31V177.099H797.701V187.31H798.418ZM798.418 177.099V166.887H797.701V177.099H798.418ZM798.059 166.529H787.848V167.246H798.059V166.529ZM788.206 166.887V156.676H787.49V166.887H788.206ZM787.848 156.318H777.637V157.034H787.848V156.318ZM777.637 156.318H767.426V157.034H777.637V156.318ZM767.426 156.318H757.214V157.034H767.426V156.318ZM756.856 156.676V166.887H757.573V156.676H756.856ZM756.856 166.887V177.099H757.573V166.887H756.856ZM756.856 177.099V187.31H757.573V177.099H756.856ZM756.856 187.31V197.521H757.573V187.31H756.856ZM756.856 197.521V207.732H757.573V197.521H756.856ZM757.214 208.091H767.426V207.374H757.214V208.091Z" fill="#E31E25"/>
</svg>
