<svg width="58" height="51" viewBox="0 0 58 51" fill="none" xmlns="http://www.w3.org/2000/svg">
<path fill-rule="evenodd" clip-rule="evenodd" d="M16.2109 36.9798C16.8963 36.4109 17.5201 36.1298 17.4926 34.759C16.4165 35.3073 13.38 35.2799 12.0983 33.5252C11.735 33.0248 12.0983 32.7781 12.4684 33.1687C13.3389 34.1558 14.9497 33.7102 15.5392 33.4224C15.4382 33.0582 15.25 32.7241 14.9908 32.449C15.2101 32.2297 15.8339 31.9076 15.9641 31.3523C15.424 31.1897 14.8678 31.0863 14.3054 31.0439C14.4746 30.8959 14.5952 30.7002 14.6514 30.4826C14.7077 30.2649 14.697 30.0353 14.6207 29.8238C13.2978 30.2282 11.6664 29.6799 11.2963 29.1932C10.9262 28.7066 11.2963 28.261 11.6116 28.5763C12.297 29.2618 15.5117 30.0637 16.7181 28.8574C16.2896 28.7433 15.9185 28.4747 15.6762 28.1034C16.7935 27.9937 17.6846 27.3357 17.7325 26.5132C16.9895 26.5637 16.2446 26.4466 15.5529 26.1705C15.8016 26.1177 16.0308 25.9968 16.2148 25.8213C16.3988 25.6458 16.5303 25.4226 16.5947 25.1766C14.5384 25.0532 14.3876 23.5384 14.3808 23.2848C15.7105 24.0525 18.0547 23.7097 17.4447 21.8248C16.3411 21.7631 15.2239 19.9741 18.2672 18.3291C21.0089 16.8348 24.1756 15.2172 23.9015 12.5646C23.7164 10.8647 20.9198 9.7063 20.5634 8.84265C19.3982 9.39785 19.1925 10.0422 19.686 11.1252C19.686 11.1252 17.0814 11.3856 16.8758 9.75428C16.8754 9.38937 16.9564 9.02898 17.1129 8.69934C17.2695 8.36971 17.4975 8.07913 17.7805 7.84877C17.4858 7.84877 15.5254 7.32098 14.936 8.9249C13.8324 8.17778 12.8797 8.19834 12.1531 8.99345C13.3321 9.67888 14.0655 12.0985 16.019 12.8113C14.6481 13.5653 12.3793 13.25 11.0701 10.9332C9.82948 12.8045 9.11663 14.6551 11.7556 16.6292C6.90952 18.8363 6.95751 23.0449 2.73523 25.0532C3.16705 26.1979 4.06497 26.1979 5.20965 26.0197C3.38639 28.3844 4.94232 30.8657 2.05664 31.8733C2.32396 32.8397 2.86546 33.6074 3.93474 33.3264C3.63315 33.7993 3.43437 33.7856 2.96141 34.3066C4.53792 35.3005 6.38859 34.5807 6.83413 31.3935C6.90952 30.8246 7.69092 31.181 7.4236 31.7362C5.62776 35.4512 10.1653 38.2478 8.56143 40.9759C9.98028 40.9142 11.0564 40.8045 11.6527 40.3247C11.9473 40.8408 12.0854 41.4314 12.0503 42.0246C12.3439 41.9976 12.6184 41.8668 12.8244 41.6558C13.0304 41.4448 13.1545 41.1673 13.1744 40.873C13.6885 42.3673 15.5186 43.9644 18.4591 43.9644C16.9032 41.7504 18.3494 39.4953 16.1492 36.9592M13.2498 39.7009L12.6192 40.7702C12.3734 40.0991 12.0754 39.4482 11.7281 38.8236C11.2278 39.8655 10.4258 39.886 9.67183 39.886C9.89117 37.4116 6.76558 34.9098 8.13645 32.0721C8.20765 31.9372 8.25137 31.7896 8.26507 31.6378C8.27878 31.486 8.2622 31.3329 8.21629 31.1875C8.17038 31.0421 8.09605 30.9073 7.99763 30.7909C7.89921 30.6745 7.77865 30.5787 7.64294 30.5093C5.54551 29.4468 6.51883 33.861 4.4214 33.9913C4.70945 33.4806 4.91531 32.9278 5.03143 32.3531C4.5859 32.4696 3.51662 33.1482 3.03681 32.2777C3.52713 32.01 3.94457 31.6265 4.25279 31.1606C4.56101 30.6946 4.75066 30.1604 4.80524 29.6045C4.90567 28.7887 5.10358 27.9879 5.39471 27.2192C5.83834 26.4376 6.35962 25.7028 6.95065 25.0258C6.73816 25.0258 4.38027 25.5536 3.85248 25.3068C7.93082 22.805 7.01234 19.6177 13.2224 16.7868C11.591 15.5736 9.92544 14.614 11.1181 12.2972C12.818 14.3536 16.0601 13.6681 17.8011 12.6811C16.0738 12.3384 13.8461 10.8167 13.3183 9.12368C14.0038 9.02086 14.8126 9.72686 15.2993 10.0559C15.5323 9.43213 15.6283 8.685 16.3822 8.54791C15.3746 10.7139 17.3693 11.838 19.2748 11.8449C19.5695 11.8449 20.8033 11.7215 20.8033 11.7215C20.6045 11.3171 19.8094 10.2135 20.392 9.76113C20.8581 10.1998 21.4133 10.5494 21.9206 10.9332C25.6219 13.7983 20.159 16.451 17.9245 17.6573C14.415 19.5492 15.3541 21.8042 16.8209 22.38C16.8209 22.6336 16.6564 22.7501 16.4165 22.8255C15.3952 23.1682 14.4287 22.4348 13.6131 21.9687C13.6611 23.3807 13.5651 24.7105 15.1279 25.5193L14.0518 25.9168C14.9771 26.6023 15.2581 26.993 16.3754 27.1369C15.8238 27.3366 15.2416 27.4386 14.6549 27.4385C14.7642 27.8915 14.9496 28.3226 15.2033 28.7134C12.9208 28.9876 12.0092 27.6784 11.3032 27.7332C9.79521 27.8429 9.89117 30.6806 13.5994 30.6806L13.2155 31.3181C13.6409 31.5584 14.1047 31.723 14.5864 31.8047C14.3396 32.0035 14.0997 32.2708 13.901 32.4902L14.4904 32.9974C12.9756 33.2716 12.5507 31.6265 11.5705 32.4353C10.0762 33.6211 13.3732 36.123 16.5399 35.7528C16.1284 36.1574 15.6836 36.5265 15.2101 36.8564C17.7874 39.2897 16.5193 41.5859 17.5749 43.2652C16.58 43.2063 15.6302 42.8305 14.8642 42.1929C14.0983 41.5552 13.5566 40.6892 13.3183 39.7215" fill="#DEE0E1"/>
<path fill-rule="evenodd" clip-rule="evenodd" d="M9.24666 30.8448C9.7813 31.4 10.4325 31.4617 11.6594 31.3794C10.2885 31.2149 9.54825 30.8859 9.0753 30.0085C9.00137 29.5158 8.95559 29.0191 8.93821 28.5211C8.97977 26.7717 9.46567 25.0616 10.3502 23.5517C10.3834 24.362 10.699 25.1352 11.2423 25.7373C11.7856 26.3394 12.5224 26.7326 13.325 26.8487C11.4743 26.0399 10.3845 24.2166 10.9808 22.455C11.3647 21.8382 11.8033 21.2007 12.29 20.5564C12.5367 20.2411 12.7698 19.9464 12.9754 19.6653C12.7287 20.5632 13.8117 21.4954 14.5451 21.6462C14.1475 21.2624 13.3044 20.008 15.2305 17.9175C14.6628 18.1867 14.1252 18.5153 13.6266 18.8976C17.1771 15.0592 20.0971 14.9495 21.4406 13.0166C19.4939 14.3463 14.3531 15.0729 12.0432 14.4355C13.3181 15.2854 16.3957 15.21 17.1429 15.0523C14.6342 17.4925 9.16441 20.008 8.23221 22.2494C9.09756 21.2083 10.2713 20.4691 11.584 20.1383C10.6884 21.368 9.92129 22.6864 9.29464 24.0727C7.84152 27.2325 5.86746 27.2737 5.76465 29.8852C6.45008 27.8289 7.77982 27.3491 8.71202 26.0262C8.53523 26.9727 8.46397 27.9359 8.49953 28.8981C8.5229 29.9771 8.74118 31.043 9.14384 32.0443C9.04788 33.3329 9.14385 35.5332 10.6449 36.9931C9.82794 35.783 9.43062 34.3382 9.51398 32.8805C10.6724 35.115 13.9693 38.1995 15.5664 40.2695C13.9693 37.6032 10.0829 34.4913 9.21924 30.8928" fill="#DEE0E1"/>
<path fill-rule="evenodd" clip-rule="evenodd" d="M45.7735 20.1109C47.0859 20.4426 48.2593 21.1817 49.1253 22.2221C48.1794 19.9807 42.7028 17.4651 40.2147 15.025C40.9686 15.1827 44.0462 15.2649 45.3211 14.4081C43.0112 15.0387 37.8636 14.319 35.9238 12.9893C37.2947 14.9222 40.1872 15.0456 43.7378 18.8703C43.2394 18.4877 42.7017 18.1591 42.1339 17.8901C44.0874 19.9807 43.2443 21.2282 42.8193 21.6189C43.5459 21.4612 44.6357 20.5359 44.389 19.638C44.622 19.919 44.8619 20.2206 45.0744 20.529C45.561 21.1734 45.9929 21.8108 46.3767 22.4277C46.9662 24.1893 45.8763 26.0125 44.0325 26.8213C44.8345 26.7051 45.5704 26.3116 46.1125 25.7094C46.6547 25.1072 46.9688 24.3341 47.0005 23.5244C47.8864 25.0337 48.3724 26.7442 48.4125 28.4938C48.395 28.9918 48.3493 29.4884 48.2754 29.9812C47.8024 30.8791 47.0416 31.2081 45.6981 31.3521C46.9251 31.4275 47.5694 31.3521 48.1109 30.8174C47.2678 34.4091 43.3608 37.5278 41.7637 40.1942C43.3608 38.1379 46.6577 35.0397 47.8161 32.8052C47.899 34.2628 47.5017 35.7075 46.6852 36.9178C48.1589 35.4647 48.2754 33.2644 48.1794 31.969C48.5802 30.9671 48.7984 29.9016 48.8237 28.8228C48.8617 27.8605 48.7904 26.8971 48.6112 25.9508C49.5434 27.2806 50.8937 27.7878 51.5586 29.8098C51.4352 27.1983 49.5023 27.1572 48.0286 23.9973C47.4033 22.6104 46.6361 21.2919 45.7393 20.0629" fill="#DEE0E1"/>
<path fill-rule="evenodd" clip-rule="evenodd" d="M52.1067 26.0461C53.2514 26.2244 54.163 26.2244 54.5811 25.0797C50.3657 23.0714 50.4 18.8628 45.5608 16.6557C48.2203 14.6816 47.5075 12.8241 46.2463 10.9597C44.9371 13.2765 42.682 13.5918 41.2974 12.8378C43.2509 12.1524 43.9843 9.71907 45.1633 9.01993C44.4641 8.22483 43.5045 8.17685 42.4078 8.91026C41.8115 7.3132 39.858 7.83413 39.5633 7.83413C39.8463 8.06449 40.0743 8.35507 40.2308 8.6847C40.3874 9.01434 40.4684 9.37473 40.468 9.73964C40.2624 11.3436 37.6646 11.1105 37.6646 11.1105C38.1855 10.0275 37.9593 9.38321 36.7872 8.82801C36.4308 9.69166 33.6342 10.85 33.456 12.5499C33.175 15.2094 36.3212 16.8202 39.0835 18.3144C42.1268 19.9595 41.0095 21.7416 39.906 21.8102C39.2959 23.702 41.6401 24.0378 42.9699 23.2701C42.9699 23.5237 42.7985 25.0386 40.7559 25.1619C40.8203 25.4079 40.9519 25.6312 41.1359 25.8067C41.3198 25.9822 41.549 26.1031 41.7978 26.1558C41.1058 26.4308 40.3611 26.5479 39.6181 26.4985C39.6935 27.3211 40.5846 27.9791 41.6744 28.0887C41.438 28.4669 41.0689 28.7431 40.6394 28.8633C41.8458 30.0628 45.0879 29.2745 45.7459 28.5823C46.0475 28.267 46.4313 28.7193 46.0612 29.1923C45.6911 29.6652 44.0597 30.2342 42.7368 29.8297C42.6607 30.0407 42.6493 30.2696 42.7043 30.487C42.7593 30.7044 42.878 30.9004 43.0453 31.0498C42.4943 31.0946 41.9498 31.198 41.4208 31.3583C41.5442 31.9135 42.1748 32.2356 42.3941 32.455C42.1252 32.7272 41.9274 33.0615 41.8183 33.4283C42.4078 33.7162 44.0254 34.1617 44.8891 33.1747C45.2387 32.784 45.6225 33.0307 45.2661 33.5311C43.9912 35.2858 40.9478 35.3132 39.8717 34.7649C39.8717 36.1358 40.4338 36.4168 41.1535 36.9925C38.9532 39.5287 40.4063 41.7906 38.8504 43.9977C41.7841 43.9977 43.6485 42.4006 44.1351 40.9064C44.155 41.2006 44.2791 41.4781 44.4851 41.6891C44.6911 41.9001 44.9656 42.0309 45.2592 42.0579C45.2268 41.465 45.3648 40.8751 45.6568 40.358C46.2531 40.8378 47.3361 40.9475 48.7481 41.0092C47.1442 38.2675 51.6886 35.4914 49.8859 31.7695C49.6186 31.2143 50.4 30.8579 50.4754 31.4268C50.8935 34.6072 52.7716 35.3338 54.3481 34.3399C53.8751 33.819 53.6627 33.8327 53.3748 33.3597C54.4372 33.6408 54.9787 32.8731 55.2529 31.9066C52.3672 30.8922 53.9231 28.4177 52.0999 26.053M52.3398 32.3796C52.4497 32.9572 52.6535 33.5128 52.943 34.0246C50.8455 33.8875 51.8188 29.4733 49.7214 30.5357C49.5857 30.6052 49.4651 30.7009 49.3667 30.8174C49.2683 30.9338 49.194 31.0686 49.1481 31.214C49.1022 31.3594 49.0856 31.5124 49.0993 31.6643C49.113 31.8161 49.1567 31.9637 49.2279 32.0985C50.5988 34.9362 47.4732 37.4381 47.6514 39.9262C46.8768 39.9262 46.0749 39.9262 45.5951 38.8638C45.2481 39.4886 44.9502 40.1394 44.704 40.8104L44.0734 39.7411C43.8342 40.7083 43.2922 41.5738 42.5265 42.2112C41.7608 42.8487 40.8114 43.2249 39.8169 43.2848C40.8724 41.6055 39.6044 39.3162 42.1816 36.876C41.7078 36.5467 41.2629 36.1775 40.8519 35.7725C44.0186 36.1495 47.3155 33.6408 45.8144 32.455C44.8343 31.6804 44.4024 33.2912 42.8945 33.017L43.4839 32.5098C43.2783 32.3042 43.0384 32.0368 42.7985 31.8244C43.2803 31.7432 43.7443 31.5785 44.1694 31.3377L43.7855 30.7002C47.4937 30.7002 47.5829 27.8625 46.0817 27.7529C45.3963 27.698 44.4573 29.0004 42.1816 28.733C42.4325 28.3407 42.6177 27.9101 42.73 27.4581C42.1433 27.4581 41.5612 27.3561 41.0095 27.1565C42.1268 27.0126 42.3804 26.6356 43.3332 25.9365L42.257 25.5389C43.8198 24.7575 43.7239 23.4004 43.765 21.9884C42.9493 22.4613 41.9828 23.1879 40.9684 22.8452C40.7285 22.7629 40.564 22.6532 40.564 22.3996C42.0308 21.8239 42.963 19.5688 39.4604 17.677C37.1985 16.4501 31.7287 13.8043 35.4369 10.9666C35.9442 10.5827 36.4925 10.2332 36.9586 9.79447C37.5412 10.24 36.7461 11.3436 36.5473 11.7548C36.5473 11.7548 37.7811 11.8782 38.069 11.8782C39.9745 11.8782 41.976 10.7404 40.9684 8.58125C41.7292 8.7389 41.8183 9.46546 42.0445 10.0892C42.5312 9.7602 43.3743 9.0542 44.0254 9.15702C43.4977 10.85 41.2837 12.3717 39.5427 12.7144C41.2906 13.6672 44.5258 14.3732 46.2257 12.3306C47.4184 14.6405 45.7596 15.607 44.1214 16.8202C50.3383 19.6579 49.4198 22.8383 53.4982 25.3401C52.9704 25.5869 50.6056 25.0934 50.4 25.0591C50.9944 25.735 51.5181 26.4699 51.9628 27.2525C52.2579 28.0208 52.4604 28.8216 52.566 29.6378C52.6234 30.193 52.8142 30.726 53.1221 31.1914C53.43 31.6569 53.8459 32.041 54.3344 32.311C53.8546 33.1815 52.7922 32.5029 52.3466 32.3864" fill="#DEE0E1"/>
<path fill-rule="evenodd" clip-rule="evenodd" d="M22.7502 39.3239L23.6344 38.57L23.4973 38.2958C23.4013 38.1039 23.4493 38.0901 23.5521 38.0147L24.0182 37.6652C24.0686 37.6275 24.1278 37.6034 24.1902 37.595C24.2526 37.5866 24.316 37.5942 24.3746 37.6172L25.7455 37.9462H24.2992C24.173 37.9408 24.0485 37.9777 23.9455 38.0509C23.8425 38.1241 23.7668 38.2296 23.7303 38.3506L23.6275 38.5631L23.2437 39.3445C23.1546 39.5099 23.1205 39.6994 23.1464 39.8855C23.1723 40.0716 23.2568 40.2447 23.3876 40.3795L23.6549 40.6948L23.1203 41.8121H23.5795L23.9565 41.0444C24.2724 40.755 24.5085 40.3891 24.642 39.982C24.4843 39.8517 24.3678 39.7626 24.4569 39.5775L24.6282 39.2143C24.6831 39.0909 24.7036 39.0429 24.8682 39.0772L26.3418 39.3993C26.4521 39.4545 26.5785 39.4683 26.698 39.4381C26.8175 39.4079 26.9222 39.3358 26.993 39.2348C27.1986 38.9264 27.226 38.9607 27.6784 39.0086L28.4324 39.0909C29.2807 39.2 30.1416 39.0317 30.8863 38.6111C31.0551 38.8921 31.2381 39.1643 31.4346 39.4267C31.4826 39.5159 31.4346 39.6461 31.3387 39.8106L30.523 41.8121H31.8253L32.5656 39.9682C32.6189 39.8238 32.7031 39.6928 32.8123 39.5844L32.3874 41.8121H33.6486L33.9844 39.605C34.0598 39.1183 33.9844 38.9607 33.7788 38.755C33.251 38.3095 33.2647 37.3842 33.0934 36.8084C33.189 36.7542 33.2997 36.7326 33.4087 36.7467C33.6829 36.7467 33.8885 37.4801 34.2175 37.9256C34.8618 38.8373 35.746 39.838 36.7605 38.426C36.6635 38.2685 36.5535 38.1195 36.4314 37.9805L36.1504 37.6515C35.9859 37.4664 35.2045 36.5753 34.8755 36.2806C34.5729 35.9798 34.178 35.7893 33.7542 35.7396C33.3304 35.6899 32.9022 35.7838 32.5382 36.0064C31.51 35.4718 30.427 36.0064 30.1666 36.0064L28.3981 35.8968C28.3396 35.8946 28.2826 35.8777 28.2323 35.8478C28.182 35.8179 28.1401 35.7758 28.1103 35.7254L28.4393 35.6157C28.1308 34.334 27.3563 33.2578 26.006 33.0796C26.006 33.0796 25.9237 32.6752 25.7249 32.593L25.3205 33.0728C25.2026 33.0897 25.0874 33.122 24.9778 33.1687L23.2505 32.5244L24.546 33.8336C24.546 33.8336 23.9017 34.7658 23.6892 34.9577C23.626 35.0229 23.5906 35.1102 23.5906 35.201C23.5906 35.2919 23.626 35.3791 23.6892 35.4444L23.9428 35.7734C24.073 35.9447 24.217 35.9379 24.4226 35.8282L24.7036 35.6843C24.827 35.5815 25.2451 35.7871 25.3891 35.6226C25.3168 35.9584 25.2778 36.3004 25.2726 36.6439L24.1073 36.5068C24.0159 36.4836 23.9202 36.4828 23.8284 36.5042C23.7366 36.5257 23.6512 36.5689 23.5795 36.6302L22.5857 37.391C22.4238 37.5171 22.3122 37.6968 22.2707 37.8977C22.2293 38.0987 22.2607 38.3078 22.3595 38.4877L22.7502 39.3239ZM32.3462 39.5433L31.558 41.4831H31.0713L31.8596 39.605C31.9418 39.3651 31.7842 39.2485 31.5923 38.9812C31.8659 39.1419 32.1525 39.2794 32.4491 39.3925C32.4125 39.4396 32.3803 39.4901 32.3531 39.5433M24.7585 35.3347L24.5323 35.4512C24.3746 35.5403 24.2992 35.5815 24.1622 35.4101L24.0662 35.2867C24.0352 35.2381 24.0217 35.1804 24.028 35.123C24.0342 35.0657 24.0598 35.0123 24.1005 34.9714L25.0669 33.8404L24.1759 33.107L25.3137 33.5251L25.7318 33.0042C25.8552 33.107 25.8141 33.4086 25.8141 33.4086C26.3459 33.5166 26.8225 33.809 27.1599 34.2341C27.4972 34.6592 27.6736 35.1898 27.6579 35.7323C27.8158 35.9734 28.0618 36.1431 28.3433 36.2052L30.3105 36.3217C30.6327 36.3217 31.4483 35.698 32.497 36.3217C32.7493 36.1554 33.0346 36.0455 33.3333 35.9996C33.7591 36.0104 34.1754 36.1278 34.5441 36.3409C34.9129 36.554 35.2224 36.8561 35.4444 37.2196C35.8146 37.6857 36.3218 38.4054 36.3218 38.4054C36.1024 38.6659 35.89 38.7482 35.7117 38.6865C35.5889 38.6152 35.4845 38.516 35.4071 38.3969C35.3297 38.2779 35.2815 38.1422 35.2662 38.001C35.122 37.6459 34.8854 37.3358 34.5808 37.1031C34.7257 37.4312 34.8271 37.7769 34.8824 38.1313C34.1147 37.3704 33.9707 36.4382 33.4292 36.3149C33.2809 36.2924 33.1292 36.3127 32.992 36.3734C32.8548 36.4341 32.7378 36.5327 32.6547 36.6576C32.9289 37.2882 32.9152 38.0285 33.1893 38.5014C33.4018 38.8647 33.4429 38.899 33.5389 38.9812C33.7651 39.1457 33.6349 39.4336 33.6006 39.6666L33.3059 41.4899H32.8123L33.1345 39.7009C33.2305 39.1594 31.7019 39.1594 30.9205 38.1176C30.2351 38.899 28.3844 38.7002 27.5756 38.5768C27.4256 38.5226 27.2614 38.5223 27.1113 38.5761C26.9612 38.6299 26.8345 38.7344 26.7531 38.8715C26.6503 39.0566 26.4721 39.0018 26.3624 38.9744L24.8887 38.6591C24.8423 38.6385 24.7919 38.628 24.7411 38.6285C24.6903 38.6289 24.6401 38.6403 24.594 38.6617C24.548 38.6831 24.507 38.7141 24.4739 38.7527C24.4407 38.7913 24.4163 38.8365 24.4021 38.8853L24.1073 39.4953C24.0699 39.5519 24.0548 39.6204 24.0649 39.6875C24.075 39.7546 24.1097 39.8155 24.1622 39.8586L24.3061 40.0094C24.2362 40.2082 24.1157 40.3854 23.9565 40.5234L23.6344 40.1602C23.5636 40.0614 23.5222 39.9447 23.5149 39.8234C23.5076 39.7021 23.5348 39.5812 23.5932 39.4747L24.073 38.4808C24.1038 38.4124 24.154 38.3546 24.2174 38.3144C24.2807 38.2742 24.3545 38.2534 24.4295 38.2547H26.2527L25.6907 37.343C25.2726 36.6576 25.9648 35.4444 25.862 34.8686C25.8072 35.6363 24.8819 35.2867 24.7311 35.3895M22.7707 37.6309L23.6344 36.9455C23.6888 36.8863 23.7559 36.8401 23.8307 36.8104C23.9055 36.7808 23.986 36.7684 24.0662 36.7741L25.2863 36.9318C25.3411 37.1387 25.4291 37.3355 25.5467 37.5144L24.2513 37.2402C24.179 37.2227 24.1035 37.2236 24.0317 37.2428C23.9599 37.2619 23.894 37.2987 23.84 37.3499L23.2231 37.816C23.168 37.8648 23.1323 37.9317 23.1222 38.0046C23.1121 38.0775 23.1285 38.1516 23.1683 38.2135L23.2711 38.426L22.8393 38.7482L22.6748 38.4397C22.5103 38.1107 22.4965 37.8091 22.7707 37.5966" fill="#DEE0E1"/>
<path fill-rule="evenodd" clip-rule="evenodd" d="M26.5327 14.2027C26.9497 14.4664 27.3876 14.6956 27.8419 14.8881V14.3329L25.998 13.6475C25.998 13.6475 25.998 13.8737 26.5327 14.2369" fill="#DEE0E1"/>
<path fill-rule="evenodd" clip-rule="evenodd" d="M27.8425 13.5308V12.9756L25.752 12.2285C25.9912 12.4638 26.2529 12.675 26.5333 12.8591C26.95 13.1234 27.3879 13.3527 27.8425 13.5446" fill="#DEE0E1"/>
<path fill-rule="evenodd" clip-rule="evenodd" d="M27.8421 12.2694V11.7073L25.5527 10.8643C25.5527 10.8643 25.9983 11.2275 26.5329 11.5908C26.9499 11.8545 27.3878 12.0838 27.8421 12.2763" fill="#DEE0E1"/>
<path fill-rule="evenodd" clip-rule="evenodd" d="M34.2783 19.8777H36.6225C36.5346 19.6528 36.3745 19.4635 36.1673 19.3394C35.9601 19.2153 35.7176 19.1636 35.4778 19.1923C35.234 19.1841 34.9927 19.2439 34.7809 19.365C34.5691 19.486 34.3951 19.6635 34.2783 19.8777Z" fill="#DEE0E1"/>
<path fill-rule="evenodd" clip-rule="evenodd" d="M31.8245 10.8711L29.5352 11.7142V12.2763C29.99 12.0848 30.4279 11.8555 30.8443 11.5908C31.379 11.2275 31.8245 10.8643 31.8245 10.8643" fill="#DEE0E1"/>
<path fill-rule="evenodd" clip-rule="evenodd" d="M31.379 13.6202L29.5352 14.3056V14.8608C29.9895 14.6683 30.4273 14.4391 30.8443 14.1754C31.379 13.8121 31.379 13.5859 31.379 13.5859" fill="#DEE0E1"/>
<path fill-rule="evenodd" clip-rule="evenodd" d="M31.6335 12.2286L29.5771 12.9757V13.5309C30.032 13.3396 30.47 13.1103 30.8863 12.8454C31.167 12.6616 31.4287 12.4503 31.6677 12.2148" fill="#DEE0E1"/>
<path fill-rule="evenodd" clip-rule="evenodd" d="M21.8996 19.1929C21.6596 19.163 21.4166 19.2142 21.2091 19.3384C21.0017 19.4626 20.8418 19.6527 20.7549 19.8783H23.0991C22.9817 19.6646 22.8076 19.4876 22.5959 19.3666C22.3842 19.2456 22.1432 19.1855 21.8996 19.1929Z" fill="#DEE0E1"/>
<path fill-rule="evenodd" clip-rule="evenodd" d="M33.3401 9.36998C33.3401 8.05395 31.1261 6.875 28.686 6.875C26.2458 6.875 24.0319 8.05395 24.0319 9.36998L24.0867 9.69214L25.06 15.2853L20.4745 17.9791C20.1493 18.1915 19.873 18.4707 19.6638 18.798C19.4546 19.1253 19.3174 19.4933 19.2612 19.8777H20.1043C20.1641 19.4108 20.3977 18.9836 20.7585 18.6812C21.1193 18.3789 21.5808 18.2236 22.051 18.2464C23.1134 18.3012 23.744 18.9318 24.3746 19.8777L24.5391 20.1245L24.7721 20.4877H17.9863C18.5553 21.4695 18.8885 22.57 18.9596 23.7024V37.795C18.9596 41.4278 21.7494 43.1551 24.7721 43.1551C27.1026 43.1551 27.4179 43.0523 28.7065 44.334C29.9883 43.0454 30.3036 43.1551 32.6409 43.1551C35.6568 43.1551 38.4466 41.4278 38.4466 37.795V23.6819C38.5151 22.5499 38.846 21.4493 39.413 20.4672H32.6204L32.8534 20.1039L33.0179 19.8571C33.6417 18.9318 34.2723 18.2875 35.3415 18.2258C35.8126 18.2071 36.2733 18.3668 36.6317 18.673C36.99 18.9793 37.2196 19.4095 37.2745 19.8777H38.1176C38.0638 19.4951 37.9297 19.1281 37.7242 18.8009C37.5186 18.4737 37.2463 18.1936 36.9249 17.9791L32.3119 15.2921L33.2852 9.69899L33.3401 9.36998ZM24.9778 10.0143L28.4049 11.1864V16.5739L25.8688 15.2373L24.9778 10.0143ZM25.8209 21.4474C26.3278 22.1064 27.0599 22.5555 27.8772 22.7086C27.9629 23.09 28.1726 23.4323 28.4735 23.6819C28.4197 23.9052 28.4108 24.1369 28.4473 24.3637C28.4838 24.5905 28.565 24.8077 28.6861 25.0029C28.8073 25.198 28.966 25.3671 29.1531 25.5004C29.3401 25.6337 29.5518 25.7285 29.7758 25.7793C29.824 26.0186 29.9351 26.2407 30.0978 26.4226C30.2604 26.6046 30.4687 26.7398 30.7011 26.8143L29.9814 27.6437C29.8708 27.7808 29.7274 27.8879 29.5645 27.955C29.4016 28.0221 29.2244 28.047 29.0493 28.0275L25.8346 27.6643C25.9716 27.3078 25.6015 26.8897 24.5871 27.0679L25.8483 23.5379L25.0737 21.8929L23.6138 23.1404L23.5041 26.8486L22.8872 26.5401C22.0715 26.1906 21.8316 27.6643 22.6062 27.6711H22.9146C22.8982 27.7401 22.9032 27.8125 22.9289 27.8786C22.9546 27.9447 22.9998 28.0014 23.0585 28.0412C23.0217 28.0639 22.9913 28.0957 22.9702 28.1335C22.9491 28.1713 22.938 28.2139 22.938 28.2572C22.938 28.3004 22.9491 28.343 22.9702 28.3808C22.9913 28.4186 23.0217 28.4504 23.0585 28.4731C23.0163 28.4958 22.9802 28.5284 22.9531 28.5679C22.9259 28.6075 22.9086 28.653 22.9026 28.7005C22.8966 28.7481 22.902 28.7965 22.9184 28.8415C22.9348 28.8866 22.9617 28.9271 22.9969 28.9597C22.9419 29.0485 22.908 29.1487 22.8977 29.2525C22.8873 29.3564 22.9009 29.4613 22.9372 29.5592C22.9736 29.657 23.0318 29.7453 23.1075 29.8172C23.1832 29.8891 23.2743 29.9428 23.3738 29.9742C23.8331 30.0975 24.121 29.5972 24.2169 29.2887L29.2206 30.8378C29.5301 30.948 29.8648 30.9665 30.1846 30.8911C30.5044 30.8157 30.7956 30.6497 31.0233 30.4128L32.3256 29.2682C32.2251 29.5791 32.2389 29.9157 32.3646 30.2173C32.4902 30.5189 32.7195 30.7657 33.0111 30.9132C32.9695 31.2359 32.9511 31.5612 32.9562 31.8865H19.933V23.6613C19.9048 22.8913 19.74 22.1323 19.4463 21.4199L25.8209 21.4474ZM31.2015 24.5729C31.0668 24.8352 31.0028 25.1281 31.0161 25.4226C31.0293 25.7172 31.1192 26.0031 31.2769 26.2523L31.0644 26.4647C30.1254 26.3482 29.7552 24.9499 29.7552 24.9499C29.7456 25.0731 29.7456 25.1969 29.7552 25.3201C29.4783 25.2217 29.2425 25.0329 29.0859 24.7843C28.9292 24.5356 28.8608 24.2415 28.8916 23.9492C29.1053 24.0663 29.3369 24.1474 29.577 24.1891L29.6387 23.7778C29.365 23.742 29.1075 23.6278 28.8971 23.4491C28.6867 23.2703 28.5325 23.0346 28.4529 22.7702H28.3638H28.7134C29.0797 22.7709 29.4442 22.7201 29.7964 22.6194C29.9432 22.8176 30.129 22.9837 30.3423 23.1075C30.5557 23.2312 30.7921 23.3101 31.037 23.3392C30.9614 23.753 31.019 24.1802 31.2015 24.5592M32.5724 28.2606C32.4742 28.3904 32.4 28.5366 32.3531 28.6924L31.8321 29.1722C31.8538 28.7851 31.7859 28.3982 31.6337 28.0415C31.4815 27.6849 31.2492 27.3682 30.9548 27.1159L31.51 26.5676L31.6196 26.6772C31.5788 26.8424 31.5711 27.0141 31.597 27.1823C31.6228 27.3505 31.6818 27.5119 31.7703 27.6572C31.8589 27.8025 31.9754 27.9288 32.1131 28.0288C32.2507 28.1289 32.4068 28.2006 32.5724 28.24M30.0705 28.0275L30.5024 27.6094C30.8003 27.8568 31.0326 28.1739 31.1785 28.5327C31.3243 28.8914 31.3794 29.2806 31.3386 29.6657L30.8725 30.0975C30.7832 30.1839 30.6843 30.2598 30.5778 30.3237C30.6824 29.9298 30.6915 29.5167 30.6045 29.1185C30.5175 28.7204 30.3368 28.3487 30.0774 28.0344M29.1521 28.3908C29.313 28.4111 29.4765 28.3874 29.625 28.3223C29.8359 28.6461 29.9638 29.0168 29.9972 29.4018C30.0307 29.7868 29.9688 30.174 29.8169 30.5294C29.5987 30.5276 29.3819 30.4953 29.1726 30.4334L29.0081 30.3854C29.2926 29.7585 29.3389 29.0494 29.1384 28.3908M28.0485 28.2537L28.6586 28.3291C28.7689 28.9676 28.6679 29.6246 28.3707 30.2004L27.6852 29.9947C27.9967 29.4679 28.1334 28.8561 28.0759 28.2469M26.7873 28.1029L27.5207 28.192C27.5761 28.7712 27.4567 29.3537 27.178 29.8645L26.4309 29.6452C26.7192 29.1856 26.8448 28.6424 26.7873 28.1029ZM23.8057 27.9042C23.7508 27.9309 23.6897 27.9423 23.6289 27.9369C23.5681 27.9316 23.5099 27.9097 23.4605 27.8738C23.4112 27.8379 23.3726 27.7891 23.3489 27.7329C23.3251 27.6767 23.3172 27.615 23.3259 27.5546C23.5064 27.4578 23.7093 27.4106 23.914 27.4179C24.1187 27.4251 24.3179 27.4864 24.4911 27.5957C24.6693 27.7122 24.8201 28.0344 25.0669 28.2332C25.0192 28.5522 24.9436 28.8665 24.8407 29.1722C24.7104 29.1654 24.5848 29.1216 24.4785 29.0459C24.3723 28.9702 24.2899 28.8658 24.2409 28.7449C24.192 28.624 24.1786 28.4916 24.2022 28.3633C24.2259 28.235 24.2857 28.1162 24.3746 28.0207C24.3083 27.9359 24.2143 27.8771 24.1091 27.8546C24.0038 27.832 23.894 27.8471 23.7988 27.8973M23.319 29.2682C23.4681 29.3276 23.6252 29.3646 23.7851 29.3778C23.7819 29.415 23.771 29.4511 23.753 29.4838C23.735 29.5165 23.7103 29.5451 23.6806 29.5677C23.6509 29.5903 23.6168 29.6064 23.5805 29.615C23.5442 29.6237 23.5065 29.6246 23.4698 29.6177C23.4356 29.6066 23.4041 29.5883 23.3775 29.564C23.3508 29.5398 23.3297 29.5101 23.3154 29.477C23.3011 29.444 23.2941 29.4082 23.2947 29.3722C23.2953 29.3362 23.3036 29.3007 23.319 29.2682ZM22.6336 27.301C22.5942 27.2812 22.5627 27.2485 22.5446 27.2083C22.5264 27.1682 22.5227 27.123 22.5339 27.0803C22.5452 27.0377 22.5708 27.0003 22.6064 26.9743C22.642 26.9483 22.6855 26.9354 22.7295 26.9377C22.9352 26.9377 23.2093 27.1776 23.4835 27.2941C23.2021 27.3402 22.915 27.3402 22.6336 27.2941M23.319 28.7267C23.463 28.8706 23.9085 28.8158 23.9085 28.8158V28.9049C23.7166 29.1654 23.1751 29.0488 23.2985 28.7267M23.8948 28.4319C23.5726 28.5622 23.2505 28.384 23.3533 28.1783C23.4972 28.3154 23.9153 28.2469 23.9153 28.2469L23.8948 28.4319ZM24.3609 24.7306L23.7508 26.9514L23.9565 23.3666L24.9024 22.5578L25.3822 23.6133L24.169 27.0953L24.4911 24.7512C24.4911 24.5866 24.3883 24.5661 24.3609 24.7512M24.4568 27.4175C24.7476 27.3983 25.0397 27.4121 25.3273 27.4586C25.4713 27.5203 25.3753 27.7534 25.1902 27.7328C24.9356 27.6533 24.6898 27.5476 24.4568 27.4175ZM25.5193 27.959L26.2595 28.0481C26.3061 28.5429 26.2009 29.0402 25.9579 29.4738L25.2725 29.2682C25.4381 28.8287 25.5352 28.3663 25.5604 27.8973M37.4938 37.7539C37.5267 38.5126 37.3463 39.2654 36.9732 39.9269C36.6001 40.5883 36.0491 41.132 35.3827 41.4963L35.8556 40.5367H35.3964L34.7932 41.7705C34.1111 42.0225 33.3887 42.148 32.6615 42.1406C30.2556 42.1406 29.6182 42.2366 28.7271 43.1277C27.8292 42.2435 27.1986 42.1406 24.7927 42.1406C24.0684 42.1475 23.3487 42.0245 22.6678 41.7774L23.271 40.5436H22.8049L22.2703 41.6266C22.1469 41.5649 22.0235 41.5032 21.9002 41.4346L22.3388 40.5504H21.8865L21.5574 41.2359C21.029 40.8384 20.6041 40.3194 20.319 39.7227C20.0338 39.1261 19.8967 38.4696 19.9193 37.8087V32.4006H37.4527L37.4938 37.7539ZM37.9805 21.4062C37.6816 22.1173 37.5144 22.8768 37.487 23.6476V31.8728H36.5273C36.1531 31.3179 35.8815 30.7004 35.7254 30.0496C35.6438 30.3568 35.6272 30.6776 35.6768 30.9916C35.7264 31.3056 35.841 31.6057 36.0133 31.8728H34.7795C34.5058 31.2778 34.3144 30.6483 34.2106 30.0016C33.8404 30.4197 34.0735 31.5575 34.3065 31.8728H33.4909C33.4686 31.4626 33.5078 31.0513 33.6074 30.6528C33.1824 30.5705 32.7232 30.3443 32.7232 29.8714C32.7976 29.9543 32.8924 30.0163 32.9983 30.0512C33.1041 30.0861 33.2172 30.0926 33.3264 30.0701L33.6759 29.796C32.5176 29.8302 32.4696 28.569 33.3812 27.9727C32.4696 27.9727 31.7841 27.4586 32.12 26.4853C31.9663 26.3868 31.8338 26.2585 31.7304 26.1081C31.6269 25.9577 31.5546 25.7881 31.5175 25.6093C31.4805 25.4305 31.4795 25.2462 31.5147 25.067C31.5499 24.8879 31.6205 24.7176 31.7225 24.5661C31.552 24.3352 31.4452 24.0637 31.4128 23.7786C31.3803 23.4935 31.4233 23.2049 31.5374 22.9416C31.0656 22.9465 30.6106 22.7669 30.2693 22.4412H30.1939C30.7388 22.2213 31.2129 21.8562 31.5648 21.3857L37.9805 21.4062ZM34.4916 17.4444C33.5388 17.6089 32.7232 18.7742 32.0515 19.8229L31.9761 19.9462H31.2906V20.0696C31.2152 20.8784 30.4475 21.9751 28.7545 21.9751C28.1149 21.9958 27.4877 21.7948 26.9792 21.4062C26.6598 21.1565 26.4213 20.8178 26.2938 20.4329C26.2555 20.3149 26.2302 20.1931 26.2184 20.0696V19.9462H25.533L25.3616 19.8777C24.6762 18.829 23.8742 17.6706 22.9283 17.4992L25.5124 15.9981L28.6997 17.7117L31.8732 15.9844L34.4916 17.4444ZM31.5237 15.1962L28.9876 16.5328V11.1864L32.4147 10.0143L31.5237 15.1962ZM28.6997 10.5901L24.9298 9.10952C25.2451 8.35554 26.7256 7.73865 28.6928 7.73865C30.66 7.73865 32.12 8.38296 32.4559 9.10952L28.6997 10.5901Z" fill="#DEE0E1"/>
<path fill-rule="evenodd" clip-rule="evenodd" d="M37.0548 26.7318V26.3205C35.7936 26.3205 35.4988 24.7988 35.4988 24.7988C35.4327 25.0326 35.4235 25.2788 35.4721 25.5168C35.5206 25.7548 35.6254 25.9778 35.7777 26.167C35.9301 26.3562 36.1255 26.5063 36.3476 26.6045C36.5698 26.7028 36.8123 26.7464 37.0548 26.7318Z" fill="#DEE0E1"/>
<path fill-rule="evenodd" clip-rule="evenodd" d="M35.4578 29.2959L35.3275 28.9052C34.2514 29.1794 33.6962 27.4727 33.6962 27.4727C33.6219 27.72 33.6149 27.9826 33.6758 28.2335C33.7367 28.4845 33.8634 28.7146 34.0428 28.9003C34.2223 29.086 34.4479 29.2206 34.6966 29.2901C34.9453 29.3596 35.208 29.3616 35.4578 29.2959Z" fill="#DEE0E1"/>
<path fill-rule="evenodd" clip-rule="evenodd" d="M36.2394 27.7056C34.9507 27.9113 34.423 26.4102 34.423 26.4102C34.3837 26.6062 34.3851 26.8082 34.4271 27.0036C34.4691 27.199 34.5508 27.3838 34.6671 27.5463C34.7834 27.7089 34.9319 27.8459 35.1033 27.9488C35.2747 28.0516 35.4654 28.1182 35.6636 28.1443C35.6155 28.3578 35.6304 28.5806 35.7064 28.7858C35.7824 28.991 35.9163 29.1698 36.0919 29.3004C36.2675 29.431 36.4772 29.5078 36.6956 29.5216C36.914 29.5354 37.1317 29.4856 37.3224 29.3781L37.199 29.008C37.0276 29.0735 36.8394 29.081 36.6635 29.0291C36.4875 28.9772 36.3335 28.8688 36.2251 28.7207C36.1168 28.5727 36.0602 28.3931 36.064 28.2096C36.0678 28.0262 36.1318 27.8491 36.2462 27.7056" fill="#DEE0E1"/>
<path fill-rule="evenodd" clip-rule="evenodd" d="M35.4375 23.4212V23.0099C33.7376 22.6604 33.8815 21.4883 33.8815 21.4883C33.8156 21.7215 33.8064 21.967 33.8546 22.2044C33.9028 22.4419 34.007 22.6644 34.1585 22.8535C34.31 23.0426 34.5045 23.1927 34.7258 23.2915C34.947 23.3902 35.1887 23.4347 35.4306 23.4212" fill="#DEE0E1"/>
<path fill-rule="evenodd" clip-rule="evenodd" d="M24.6481 40.5781L24.0381 41.8119H24.4973L25.1074 40.5781H24.6481Z" fill="#DEE0E1"/>
<path fill-rule="evenodd" clip-rule="evenodd" d="M25.5671 40.5781L24.957 41.8119H25.4231L26.0263 40.5781H25.5671Z" fill="#DEE0E1"/>
<path fill-rule="evenodd" clip-rule="evenodd" d="M29.2546 40.5781L28.6445 41.8119H29.1038L29.7138 40.5781H29.2546Z" fill="#DEE0E1"/>
<path fill-rule="evenodd" clip-rule="evenodd" d="M30.1794 40.5781L29.5693 41.8119H30.0286L30.6318 40.5781H30.1794Z" fill="#DEE0E1"/>
<path fill-rule="evenodd" clip-rule="evenodd" d="M28.3356 40.5781L27.7256 41.8119H28.1848L28.7949 40.5781H28.3356Z" fill="#DEE0E1"/>
<path fill-rule="evenodd" clip-rule="evenodd" d="M33.7168 41.8119H34.176L34.7861 40.5781H34.3268L33.7168 41.8119Z" fill="#DEE0E1"/>
<path fill-rule="evenodd" clip-rule="evenodd" d="M26.4919 40.5781L25.8818 41.8119H26.3411L26.9511 40.5781H26.4919Z" fill="#DEE0E1"/>
<path fill-rule="evenodd" clip-rule="evenodd" d="M27.4108 40.5781L26.8008 41.8119H27.2669L27.8701 40.5781H27.4108Z" fill="#DEE0E1"/>
<path fill-rule="evenodd" clip-rule="evenodd" d="M25.3268 33.9289C25.2881 33.9218 25.2482 33.9269 25.2125 33.9433C25.1768 33.9596 25.1469 33.9866 25.127 34.0205C25.1071 34.0543 25.0981 34.0935 25.1012 34.1327C25.1042 34.1719 25.1193 34.2092 25.1442 34.2395C25.1691 34.2699 25.2028 34.2919 25.2406 34.3025C25.2785 34.3131 25.3187 34.3119 25.3558 34.2989C25.3929 34.286 25.4251 34.2619 25.4481 34.2301C25.4711 34.1982 25.4838 34.1601 25.4844 34.1208C25.4883 34.0746 25.474 34.0287 25.4445 33.9928C25.4151 33.957 25.3728 33.9341 25.3268 33.9289Z" fill="#DEE0E1"/>
<path fill-rule="evenodd" clip-rule="evenodd" d="M28.6989 6.0383C30.2154 5.99704 31.7035 6.45456 32.9349 7.34063C33.1283 6.34334 33.4998 5.38906 34.0316 4.52349L32.5099 4.69485L31.7148 3.00182L30.1863 3.79693L28.6989 2.32324L27.2184 3.79693L25.6761 3.00182L24.8742 4.69485L23.3594 4.52349C23.8925 5.38838 24.2641 6.34292 24.4561 7.34063C25.6893 6.45312 27.1801 5.99553 28.6989 6.0383ZM25.1484 5.35287L25.8749 3.81749L27.2458 4.50293L28.6989 3.07722L30.1863 4.54405L31.5572 3.85862L32.2426 5.39399L33.1337 5.25691C32.9009 5.67955 32.7125 6.12518 32.5716 6.58665C31.3858 5.92453 30.0502 5.57693 28.6921 5.57693C27.3339 5.57693 25.9983 5.92453 24.8125 6.58665C24.672 6.12502 24.4836 5.67935 24.2504 5.25691L25.1484 5.35287Z" fill="#DEE0E1"/>
<path fill-rule="evenodd" clip-rule="evenodd" d="M30.2481 3.00903C30.3013 3.01372 30.3548 3.00786 30.4057 2.99177C30.4566 2.97568 30.5037 2.94968 30.5445 2.91527C30.5853 2.88087 30.6189 2.83874 30.6433 2.7913C30.6677 2.74387 30.6825 2.69207 30.6868 2.63889C30.6336 2.35392 30.5316 2.08029 30.3852 1.83008C30.3852 1.83008 29.8986 2.35101 29.8849 2.57035C29.8772 2.67547 29.9109 2.77944 29.9787 2.8601C30.0466 2.94075 30.1433 2.99173 30.2481 3.00217" fill="#DEE0E1"/>
<path fill-rule="evenodd" clip-rule="evenodd" d="M32.7368 3.9139C32.8314 3.96222 32.9413 3.97134 33.0427 3.93927C33.144 3.9072 33.2286 3.83653 33.2783 3.74254C33.3393 3.46109 33.3509 3.17116 33.3125 2.88574C33.3125 2.88574 32.6682 3.17363 32.5654 3.3724C32.5189 3.46738 32.5107 3.57664 32.5426 3.67748C32.5745 3.77832 32.6441 3.86299 32.7368 3.9139Z" fill="#DEE0E1"/>
<path fill-rule="evenodd" clip-rule="evenodd" d="M27.1359 3.00901C27.242 3.00025 27.3404 2.95 27.4097 2.86915C27.479 2.78831 27.5136 2.68339 27.5061 2.57718C27.5061 2.35099 27.0057 1.83691 27.0057 1.83691C26.8597 2.0873 26.7577 2.36087 26.7041 2.64573C26.7129 2.75185 26.7631 2.85023 26.844 2.91953C26.9248 2.98883 27.0297 3.02344 27.1359 3.01586" fill="#DEE0E1"/>
<path fill-rule="evenodd" clip-rule="evenodd" d="M24.6414 3.9139C24.7342 3.86309 24.8034 3.77795 24.8341 3.67672C24.8649 3.57549 24.8547 3.46624 24.8059 3.3724C24.7031 3.17363 24.0588 2.88574 24.0588 2.88574C24.0225 3.17156 24.0364 3.46151 24.0999 3.74254C24.1238 3.78973 24.1568 3.83167 24.1971 3.86592C24.2375 3.90017 24.2842 3.92603 24.3346 3.94199C24.385 3.95795 24.4382 3.96369 24.4908 3.95886C24.5435 3.95404 24.5947 3.93875 24.6414 3.9139Z" fill="#DEE0E1"/>
<path fill-rule="evenodd" clip-rule="evenodd" d="M54.5535 17.6229C55.0729 17.3994 55.4839 16.981 55.6981 16.4576C54.3273 16.2589 50.7561 14.7578 47.8019 15.9847C48.9055 14.936 49.8994 14.7989 49.9953 13.2909C50.1149 13.4028 50.2585 13.4858 50.4152 13.5334C50.5719 13.581 50.7374 13.592 50.899 13.5655C51.0606 13.539 51.214 13.4758 51.3473 13.3806C51.4806 13.2855 51.5902 13.161 51.6678 13.0168C51.3662 12.1188 50.5916 12.8454 50.4888 12.5986C50.386 12.3519 51.4553 12.7083 51.702 11.5362C50.8315 11.2346 50.5711 11.9475 50.4134 11.783C50.2558 11.6185 50.9686 11.3237 50.4546 10.4121C49.5498 10.9399 50.0227 11.5431 49.8308 11.6048C49.6389 11.6665 49.7828 10.9673 48.7752 11.0016C48.6793 12.0777 49.7211 12.112 49.5429 12.2833C49.3647 12.4547 49.07 11.6665 48.3091 12.0846C48.2965 12.2658 48.3282 12.4474 48.4016 12.6136C48.475 12.7799 48.5878 12.9257 48.7303 13.0384C48.8728 13.1512 49.0406 13.2275 49.2192 13.2608C49.3979 13.294 49.5819 13.2832 49.7554 13.2292C49.6389 14.8811 48.1241 14.6001 47.0137 16.4371C49.4058 17.664 50.482 19.8026 51.9557 21.2763C52.4776 20.7129 52.9203 20.081 53.2717 19.3982C53.4513 19.5789 53.6649 19.7223 53.9002 19.8202C54.1355 19.918 54.3878 19.9684 54.6426 19.9684C54.8974 19.9684 55.1497 19.918 55.3849 19.8202C55.6202 19.7223 55.8338 19.5789 56.0134 19.3982C55.4651 18.8361 55.4445 18.4111 54.6083 17.6435M52.2915 17.945C52.4692 18.3678 52.536 18.8289 52.4856 19.2847C52.4353 19.7405 52.2694 20.1759 52.0036 20.5497C51.2939 19.0114 50.2355 17.6596 48.9123 16.6016C48.693 16.4645 49.0289 16.2109 49.6389 16.1355C51.4827 15.7859 53.635 16.5673 54.6631 16.8209C54.2706 17.1399 53.7949 17.3398 53.2923 17.3967C53.9315 17.8925 54.495 18.479 54.9647 19.1377C54.2382 19.3159 53.8337 18.8635 52.2778 17.9245" fill="#DEE0E1"/>
<path fill-rule="evenodd" clip-rule="evenodd" d="M36.8836 45.479V43.4639C34.9437 44.3207 32.8709 44.8377 30.7558 44.9924L30.6393 45.7121C30.8586 45.7121 31.1328 45.7669 31.4961 45.7943C29.6131 46.053 27.7036 46.053 25.8207 45.7943C26.184 45.7943 26.4581 45.7464 26.6775 45.7121L26.5609 44.9924C24.4597 44.8342 22.401 44.3172 20.4743 43.4639V45.479L18.418 46.3496C20.163 47.2281 22.0028 47.9042 23.9015 48.3647L23.6547 49.2078C26.9896 50.1472 30.5191 50.1472 33.854 49.2078L33.6072 48.3647C35.5059 47.9041 37.3456 47.228 39.0907 46.3496L36.8836 45.479ZM19.5147 46.3975L20.9404 45.8218V44.1767C22.1904 44.637 23.4766 44.9924 24.7857 45.2391L23.9768 47.8781C22.4434 47.5298 20.9486 47.0293 19.5147 46.3838M28.6995 49.434C27.1721 49.4244 25.6512 49.2335 24.1688 48.8651L25.0256 46.1234C27.4557 46.5298 29.9365 46.5298 32.3666 46.1234L33.2234 48.8651C31.7408 49.2327 30.22 49.4237 28.6926 49.434M33.4084 47.8918L32.5928 45.2391C33.9022 44.9879 35.1884 44.628 36.4381 44.163V45.8081L37.8638 46.3838C36.4306 47.0312 34.9356 47.5318 33.4016 47.8781" fill="#DEE0E1"/>
<path fill-rule="evenodd" clip-rule="evenodd" d="M4.13316 19.3708C4.48498 20.0534 4.92769 20.6852 5.44919 21.2489C6.92288 19.7752 8.00587 17.6367 10.3912 16.4097C9.26021 14.5522 7.7454 14.8607 7.64944 13.2019C7.82245 13.2528 8.00516 13.2613 8.18215 13.2268C8.35914 13.1922 8.52522 13.1156 8.66637 13.0033C8.80751 12.8911 8.91958 12.7465 8.99311 12.5819C9.06665 12.4172 9.09948 12.2373 9.08885 12.0572C8.32802 11.6391 8.0607 12.4685 7.85507 12.256C7.64944 12.0435 8.72557 12.0504 8.62276 10.9742C7.62202 10.9742 7.80709 11.6597 7.56719 11.5774C7.32728 11.4952 7.84822 10.892 6.94344 10.3848C6.42937 11.3307 7.12851 11.6254 6.98457 11.7556C6.84063 11.8859 6.56645 11.2073 5.69595 11.5089C5.929 12.6741 7.06682 12.1943 6.90231 12.5713C6.73781 12.9483 6.02496 12.0915 5.72337 12.9894C5.80015 13.1335 5.90911 13.258 6.0418 13.3531C6.17448 13.4483 6.32731 13.5116 6.48842 13.5381C6.64953 13.5646 6.81458 13.5537 6.97076 13.5061C7.12694 13.4584 7.27006 13.3755 7.38898 13.2636C7.48494 14.7784 8.47882 14.9018 9.58237 15.9574C6.62814 14.7304 3.03646 16.2384 1.68615 16.4303C1.90126 16.9515 2.31228 17.3674 2.83083 17.5887C1.9946 18.3632 1.97404 18.7882 1.45996 19.3434C1.45996 19.3434 2.57722 20.5703 4.2017 19.3434M2.52924 19.1104C2.99889 18.4494 3.56495 17.8625 4.20855 17.3694C3.70563 17.3089 3.23021 17.1069 2.83768 16.7867C3.86583 16.5126 6.02496 15.738 7.86192 16.1013C8.46511 16.1835 8.80783 16.4303 8.58849 16.5674C7.26269 17.6245 6.20184 18.9764 5.49032 20.5155C5.22519 20.1415 5.05965 19.7061 5.00929 19.2504C4.95892 18.7947 5.02539 18.3337 5.20244 17.9108C3.6465 18.8499 3.24209 19.2817 2.51553 19.1241" fill="#DEE0E1"/>
<path fill-rule="evenodd" clip-rule="evenodd" d="M27.3965 18.2461V19.1372C27.5155 19.0254 27.6576 18.9411 27.8127 18.8902C27.9679 18.8393 28.1323 18.823 28.2944 18.8424V20.1242C28.2906 20.441 28.2082 20.7519 28.0545 21.029H29.3363C29.1805 20.7524 29.0957 20.4416 29.0895 20.1242V18.8356C29.2516 18.8156 29.4162 18.8317 29.5714 18.8827C29.7266 18.9336 29.8687 19.0182 29.9874 19.1303V18.2393H27.3965V18.2461Z" fill="#DEE0E1"/>
<path d="M56.7266 18.6233C56.5829 18.4684 56.4564 18.2984 56.3496 18.1161L56.1303 17.787C56.3584 17.5216 56.5456 17.2236 56.6855 16.9028L57.2613 15.6005L55.8561 15.3949C55.6162 15.3606 55.2324 15.2578 54.7868 15.1413C53.7449 14.845 52.6816 14.6295 51.6064 14.497C52.0371 14.301 52.3913 13.9685 52.614 13.5511L52.8471 13.1329C52.8471 13.1329 52.7854 12.5503 52.5592 12.3653C52.6493 12.1752 52.716 11.975 52.758 11.7689L52.9499 10.8367L52.052 10.5283C51.9158 10.482 51.7759 10.4476 51.6338 10.4255C51.5773 10.2377 51.5015 10.0562 51.4076 9.88398L50.8593 8.91066L49.8928 9.47272C49.6688 9.60143 49.4654 9.76318 49.2896 9.95252C49.1382 9.92467 48.9844 9.9109 48.8304 9.91139C48.4375 9.88318 48.0431 9.93686 47.672 10.069L46.8975 9.26709L45.979 8.28691C45.5881 7.84043 45.0668 7.52808 44.4887 7.39402C43.9106 7.25995 43.305 7.31094 42.7575 7.53979C42.4565 7.25521 42.1007 7.03491 41.7118 6.89231C41.323 6.74972 40.9091 6.68783 40.4955 6.71041C40.1973 6.71293 39.8996 6.73583 39.6045 6.77896C38.7421 6.94273 37.9327 7.31448 37.2466 7.86194L36.2184 7.36843C35.7689 8.03847 35.1113 8.5419 34.3472 8.80099C34.2655 8.48227 34.1236 8.18212 33.929 7.91678L33.9976 7.53293C34.1656 6.67953 34.4835 5.86266 34.9366 5.1202L36.1636 3.20784L34.4226 3.42718C34.4354 3.22175 34.4354 3.01571 34.4226 2.81028L34.2649 1.32289L32.894 1.93978C32.7432 2.00833 32.613 2.07687 32.4965 2.13856L32.2292 1.56279L31.6054 1.88495C31.5313 1.70419 31.4466 1.52796 31.3518 1.35716L30.6115 0L29.5902 1.10355C29.4874 1.22007 29.3983 1.32289 29.3161 1.41885L28.6923 0.801959L28.0686 1.42571C27.9932 1.32289 27.9041 1.22007 27.8013 1.11041L26.7731 0L26.0465 1.32974C25.9523 1.50083 25.8676 1.67703 25.7929 1.85753L25.1692 1.53538L24.895 2.11114L24.4975 1.91236L23.1266 1.29547L22.9758 2.78972C22.9626 2.99514 22.9626 3.2012 22.9758 3.40661L21.2279 3.20784L22.4617 5.1202C22.9121 5.86505 23.2255 6.6845 23.3871 7.53979L23.4487 7.92363C23.2536 8.19112 23.1116 8.49363 23.0306 8.8147C22.3061 8.47935 21.6665 7.98501 21.1594 7.36843L20.1038 7.8688C19.1821 7.13192 18.0417 6.72205 16.8617 6.70356C16.4503 6.67766 16.0381 6.73874 15.6519 6.88283C15.2657 7.02691 14.9142 7.25076 14.6203 7.53979C14.0752 7.31332 13.4729 7.26293 12.8977 7.39566C12.3226 7.5284 11.8033 7.83762 11.4125 8.28006C11.4125 8.28006 10.8779 8.91066 10.494 9.25338C10.227 9.51555 9.93026 9.74559 9.6098 9.93881C9.1099 9.838 8.5949 9.838 8.09499 9.93881C7.90647 9.74635 7.68909 9.58447 7.45068 9.45901L6.51849 8.91066L5.98385 9.89769C5.88974 10.0674 5.81392 10.2466 5.75766 10.4323C5.6156 10.4546 5.47572 10.489 5.33954 10.5351L4.44848 10.8436L4.63354 11.7689C4.67339 11.9777 4.74021 12.1805 4.83232 12.3721C4.77859 12.4735 4.73276 12.5789 4.69523 12.6874L4.54444 13.1398L4.77748 13.5579C4.9982 13.9786 5.35271 14.3138 5.78507 14.5107C4.7099 14.6431 3.64659 14.8585 2.60465 15.155C2.15912 15.2715 1.77528 15.3743 1.53538 15.4086L0.123379 15.6142L0.445531 16.3408L0.705998 16.9165C0.851831 17.2451 1.04589 17.5501 1.28176 17.8213C1.09772 18.1103 0.898669 18.3894 0.685435 18.6575L0 19.3841L0.685435 20.1381C0.958754 20.4184 1.28472 20.642 1.64465 20.7961C2.00457 20.9502 2.39137 21.0317 2.78287 21.036C3.12873 21.0352 3.47188 20.9749 3.79731 20.8578C4.08265 21.3496 4.44877 21.7899 4.8803 22.1601C4.20472 22.9881 3.35527 23.6574 2.39217 24.1205L1.49425 24.5454L1.87809 25.5667C2.01448 25.9407 2.23791 26.2769 2.52992 26.5474C2.82193 26.818 3.17412 27.0152 3.55741 27.1227C3.36884 27.6653 3.22443 28.2224 3.12559 28.7883C2.91996 30.0015 2.8377 30.5019 1.75472 30.8446L0.795105 31.1805L1.06928 32.1538C1.20823 32.7916 1.51871 33.3793 1.9672 33.8536L1.32974 34.5391C2.21401 35.188 3.23717 35.6221 4.31824 35.8071C4.65411 35.8357 4.99222 35.7937 5.31092 35.6839C5.62961 35.5741 5.92186 35.399 6.16892 35.1697C6.40709 35.9485 6.7121 36.7053 7.08055 37.4316C7.76598 38.8368 8.1087 39.673 7.65631 40.4338L6.64872 42.1474L8.63649 42.0652C9.44713 42.0605 10.2553 41.9756 11.0492 41.8116C11.0514 41.8481 11.0514 41.8847 11.0492 41.9212L10.8779 43.4018L12.6189 43.0316C12.7971 42.9787 12.9694 42.9075 13.1329 42.8191C13.8133 43.5633 14.6479 44.15 15.5784 44.5383C16.5089 44.9266 17.513 45.1071 18.5205 45.0674H18.6644L15.8198 46.2326L17.8762 47.3087C19.3462 48.0614 20.8867 48.6675 22.4754 49.1183L22.2355 49.9477L23.2774 50.2493C26.811 51.2503 30.5531 51.2503 34.0867 50.2493L35.1217 49.9477L34.8681 49.1183C36.4667 48.6647 38.0165 48.0539 39.4948 47.295L41.5511 46.2189L38.7065 45.0537H38.8505C39.8569 45.0929 40.8597 44.912 41.7891 44.5237C42.7184 44.1354 43.5518 43.549 44.2311 42.8054C44.3952 42.8928 44.5674 42.964 44.7452 43.0179L46.4862 43.3881L46.3286 41.9144C46.3286 41.8801 46.3286 41.8458 46.3286 41.8047C47.1088 41.9679 47.9031 42.0552 48.7002 42.0652L50.6879 42.1474L49.6872 40.4407C49.2348 39.6798 49.5981 38.8436 50.263 37.4385C50.6322 36.7125 50.9372 35.9556 51.1746 35.1765C51.5313 35.4476 51.9431 35.6371 52.381 35.7317C52.5843 35.7895 52.7936 35.824 53.0047 35.8346C53.6976 35.8653 54.3792 35.6518 54.9308 35.2314L56.0275 34.5459L55.3832 33.8605C55.8278 33.4029 56.1424 32.835 56.2948 32.2155L56.569 31.2353L55.6094 30.8994C54.5401 30.5224 54.4578 30.0221 54.2385 28.8431C54.1568 28.2715 54.0284 27.7076 53.8546 27.1569C54.2379 27.0494 54.5901 26.8523 54.8821 26.5817C55.1741 26.3111 55.3976 25.975 55.534 25.601L55.9178 24.5797L55.0199 24.1547C54.0568 23.6917 53.2073 23.0224 52.5318 22.1944C52.9651 21.8241 53.3334 21.3839 53.6216 20.8921C53.9449 21.0084 54.2856 21.0687 54.6292 21.0703C55.0207 21.0664 55.4077 20.985 55.7676 20.8309C56.1276 20.6768 56.4535 20.453 56.7266 20.1724L57.4121 19.4184L56.7266 18.6233Z" fill="white"/>
<path fill-rule="evenodd" clip-rule="evenodd" d="M19.9261 31.9207V23.6955C19.898 22.9276 19.7332 22.1709 19.4395 21.4609H25.8209C26.1708 21.8811 26.6088 22.2191 27.104 22.4511C27.5991 22.6831 28.1392 22.8033 28.686 22.8033C29.2328 22.8033 29.7728 22.6831 30.268 22.4511C30.7631 22.2191 31.2012 21.8811 31.5511 21.4609H37.9394C37.6432 22.1702 37.4783 22.9273 37.4527 23.6955V31.9207H19.9261ZM28.6997 43.1824C27.8086 42.2913 27.1712 42.1954 24.7653 42.1954C21.8933 42.1954 19.9672 40.5092 19.9672 37.8154V32.4005H37.4938V37.7949C37.4938 40.4886 35.5472 42.1748 32.6958 42.1748C30.2899 42.1748 29.6524 42.2708 28.7614 43.1618" fill="#FCE527"/>
<path d="M20.9394 44.1827V45.8277L19.5137 46.4035C20.9473 47.0498 22.4422 47.5504 23.9759 47.8977L24.7847 45.2382C23.4755 44.9858 22.1894 44.6259 20.9394 44.1621" fill="white"/>
<path d="M28.6987 46.4041C27.467 46.4195 26.2367 46.3162 25.0248 46.0957L24.168 48.8374C27.1382 49.5985 30.2523 49.5985 33.2226 48.8374L32.3658 46.0957C31.1561 46.3157 29.9281 46.419 28.6987 46.4041Z" fill="white"/>
<path d="M36.4381 44.1836C35.1875 44.6404 33.9013 44.9935 32.5928 45.2392L33.4016 47.8712C34.9332 47.5245 36.4259 47.0239 37.8569 46.377L36.4312 45.8012L36.4381 44.1836Z" fill="white"/>
<path d="M17.9581 17.6768C20.1926 16.4499 25.6487 13.8178 21.9473 10.9664C21.4401 10.5757 20.8849 10.2261 20.4188 9.79429C19.843 10.2398 20.6381 11.3434 20.8369 11.7478C20.8369 11.7478 19.6031 11.8712 19.3084 11.8712C17.4029 11.8712 15.4083 10.7333 16.4227 8.57422C15.6619 8.73187 15.5728 9.45843 15.3397 10.0822C14.8531 9.75317 14.01 9.04717 13.3588 9.14998C13.8866 10.843 16.1006 12.3647 17.8416 12.7074C16.0937 13.6601 12.8585 14.3661 11.1586 12.3167C9.96592 14.6266 11.6315 15.5931 13.256 16.8063C7.04597 19.6371 7.9576 22.8176 3.88611 25.3263C4.4139 25.573 6.77179 25.0795 6.98428 25.0452C6.38276 25.7169 5.85004 26.4471 5.39407 27.2249C5.09931 27.9933 4.89684 28.7941 4.79089 29.6102C4.73631 30.1662 4.54665 30.7004 4.23843 31.1663C3.93021 31.6322 3.51277 32.0157 3.02246 32.2834C3.50227 33.1539 4.56469 32.4753 5.01022 32.3588C4.89469 32.9358 4.68881 33.491 4.40019 34.0039C6.49076 33.8668 5.5243 29.4526 7.62173 30.515C7.75856 30.5834 7.88049 30.6781 7.98049 30.7939C8.0805 30.9096 8.15659 31.044 8.20439 31.1893C8.25218 31.3346 8.27073 31.4879 8.25896 31.6404C8.24719 31.7929 8.20533 31.9416 8.13581 32.0778C6.76494 34.9155 9.88367 37.4173 9.71916 39.9055C10.4868 39.9055 11.282 39.9055 11.7755 38.843C12.1217 39.4683 12.4196 40.119 12.6665 40.7897L13.2903 39.7273C13.5288 40.6942 14.0708 41.5593 14.8368 42.1958C15.6028 42.8323 16.5526 43.2067 17.5468 43.2641C16.4844 41.5848 17.7593 39.2954 15.1821 36.8621C15.6558 36.5351 16.1006 36.1682 16.5118 35.7654C13.352 36.1356 10.0482 33.6337 11.5493 32.4479C12.5295 31.6734 12.9544 33.2842 14.4692 33.01L13.8798 32.5028C14.0854 32.2971 14.3253 32.0298 14.5652 31.8173C14.0834 31.7362 13.6194 31.5715 13.1943 31.3307L13.5782 30.7001C9.87681 30.7001 9.78085 27.8624 11.282 27.7527C11.9674 27.6979 12.8996 29.0002 15.1821 28.7329C14.9284 28.342 14.743 27.9109 14.6337 27.458C15.2205 27.4592 15.8028 27.3571 16.3542 27.1564C15.2438 27.0124 14.9833 26.6423 14.0306 25.9363L15.1067 25.5387C13.6193 24.7642 13.6947 23.4002 13.6193 21.9882C14.435 22.4611 15.3946 23.1877 16.4227 22.845C16.6695 22.7627 16.8203 22.6531 16.8271 22.3994C15.3603 21.8237 14.4281 19.5686 17.9307 17.6768M15.2575 17.8961C13.304 19.9867 14.1471 21.2411 14.572 21.6249C13.8455 21.4673 12.7556 20.5419 13.0024 19.644C12.7693 19.925 12.5363 20.2198 12.317 20.5351C11.8303 21.1794 11.3985 21.8168 11.0146 22.4337C10.4252 24.1953 11.5082 26.0185 13.3588 26.8274C12.5556 26.7125 11.8181 26.3198 11.2746 25.7174C10.7311 25.115 10.416 24.3411 10.384 23.5304C9.5005 25.0404 9.01686 26.7508 8.9789 28.4998C8.99654 28.9978 9.04231 29.4944 9.11598 29.9872C9.58893 30.8851 10.3498 31.2141 11.7001 31.3581C10.4731 31.4335 9.82198 31.3581 9.28734 30.8166C10.1236 34.4083 14.0306 37.527 15.6276 40.1933C14.0374 38.137 10.7336 35.0389 9.57522 32.8044C9.49135 34.2621 9.88871 35.7071 10.7062 36.917C9.22565 35.4638 9.11598 33.2636 9.21194 31.975C8.80928 30.9737 8.59099 29.9078 8.56763 28.8288C8.53207 27.8666 8.60334 26.9034 8.78012 25.9569C7.84793 27.2866 6.49762 27.7938 5.83274 29.8159C5.96298 27.2112 7.88905 27.1701 9.36274 24.0034C9.98951 22.6172 10.7566 21.2988 11.6521 20.069C10.3429 20.3997 9.17203 21.1363 8.30717 22.1733C9.25307 19.9319 14.7228 17.4163 17.2178 14.983C16.4638 15.1407 13.3931 15.2229 12.1182 14.3661C14.4281 14.9899 19.5757 14.277 21.5155 12.9473C20.1446 14.8734 17.259 15.0036 13.7015 18.8215C14.2032 18.44 14.743 18.1116 15.3123 17.8413" fill="white"/>
<path d="M52.5595 29.6112C52.4536 28.795 52.2512 27.9943 51.9563 27.2259C51.5122 26.443 50.9885 25.708 50.3935 25.0325C50.606 25.0325 52.9639 25.5603 53.4917 25.3136C49.4133 22.8117 50.3318 19.6313 44.1218 16.7936C45.7531 15.5804 47.4187 14.6139 46.226 12.304C44.5262 14.3603 41.2841 13.6749 39.543 12.6947C41.2703 12.352 43.4912 10.8235 44.0258 9.13729C43.3404 9.03447 42.5315 9.74047 42.0449 10.0695C41.8118 9.44573 41.7227 8.69861 40.9688 8.56152C41.9832 10.7275 39.9817 11.8516 38.0762 11.8585C37.7815 11.8585 36.5545 11.7351 36.5545 11.7351C36.7533 11.3307 37.5484 10.2271 36.9658 9.7816C36.4997 10.2203 35.9514 10.5698 35.4441 10.9537C31.7428 13.8188 37.2057 16.4714 39.4402 17.6778C42.9428 19.5696 42.0106 21.7904 40.5438 22.4005C40.5438 22.6541 40.7083 22.7637 40.9482 22.846C41.9695 23.1887 42.9291 22.4553 43.7448 21.9892C43.6968 23.4012 43.7927 24.7309 42.2368 25.5398L43.3129 25.9373C42.3876 26.6227 42.1066 27.0134 40.9962 27.1574C41.5476 27.3577 42.1299 27.4598 42.7166 27.459C42.6041 27.9108 42.4189 28.3414 42.1683 28.7339C44.4508 29.0081 45.3692 27.7057 46.0684 27.7537C47.5695 27.8634 47.4804 30.7011 43.7722 30.7011L44.156 31.3317C43.7311 31.5729 43.2671 31.7376 42.7852 31.8183C43.0319 32.0171 43.2718 32.2844 43.4706 32.5038L42.8811 33.011C44.3891 33.2852 44.8209 31.6401 45.8011 32.4489C47.2953 33.6347 43.9984 36.1366 40.8385 35.7665C41.2501 36.1688 41.6949 36.5357 42.1683 36.8631C39.591 39.2964 40.8591 41.5927 39.8035 43.272C40.7977 43.2109 41.7465 42.8344 42.5121 42.1971C43.2776 41.5598 43.8198 40.6949 44.0601 39.7283L44.6838 40.7907C44.9321 40.1206 45.2299 39.4699 45.5749 38.8441C46.0752 39.8859 46.8772 39.9065 47.6312 39.9065C47.4598 37.4184 50.5786 34.9165 49.2077 32.0788C49.1374 31.9438 49.0944 31.7963 49.0812 31.6446C49.068 31.493 49.0848 31.3403 49.1306 31.1951C49.1764 31.05 49.2504 30.9153 49.3483 30.7988C49.4462 30.6823 49.5661 30.5862 49.7012 30.516C51.7986 29.4536 50.8253 33.8678 52.9227 34.0049C52.6314 33.4933 52.4254 32.9377 52.3127 32.3598C52.7582 32.4764 53.8207 33.1549 54.3005 32.2844C53.812 32.0144 53.3961 31.6303 53.0882 31.1649C52.7803 30.6994 52.5895 30.1664 52.532 29.6112M48.6114 26.0059C48.7902 26.9521 48.8615 27.9156 48.8238 28.8778C48.7985 29.9566 48.5803 31.0221 48.1795 32.024C48.2755 33.3126 48.1795 35.5128 46.6853 36.966C47.5009 35.7552 47.8981 34.3109 47.8162 32.8534C46.6579 35.0879 43.3609 38.1723 41.7639 40.2423C43.3609 37.576 47.2473 34.4641 48.1041 30.8656C47.5626 31.4276 46.9183 31.4825 45.6914 31.4071C47.0623 31.2426 47.7957 30.9136 48.2686 30.0362C48.3429 29.5435 48.3887 29.0468 48.4057 28.5488C48.3657 26.7992 47.8797 25.0887 46.9937 23.5794C46.9618 24.3901 46.6467 25.164 46.1032 25.7664C45.5596 26.3688 44.8221 26.7615 44.0189 26.8764C45.8628 26.0675 46.9526 24.2443 46.3631 22.4827C45.9793 21.8658 45.5475 21.2352 45.0608 20.5841C44.8209 20.2756 44.581 19.974 44.3754 19.693C44.6221 20.5909 43.5391 21.5163 42.8057 21.6739C43.2033 21.2901 44.0464 20.0357 42.1203 17.9451C42.69 18.2146 43.2299 18.5432 43.7311 18.9253C40.1805 15.0869 37.2605 14.9841 35.9171 13.0511C37.8637 14.3809 43.0045 15.1074 45.3144 14.47C44.0395 15.3199 40.9619 15.2445 40.2148 15.0869C42.7166 17.5202 48.2001 20.0426 49.1254 22.2771C48.2606 21.2401 47.0897 20.5035 45.7805 20.1728C46.6768 21.4021 47.444 22.7205 48.0699 24.1072C49.5298 27.2671 51.497 27.3082 51.6067 29.9197C50.9213 27.8634 49.5915 27.3836 48.6593 26.0607" fill="white"/>
<path d="M31.5577 21.4541C31.2204 21.8906 30.7856 22.2419 30.288 22.48C29.7904 22.718 29.244 22.8362 28.6925 22.825C28.4186 22.8242 28.1454 22.7966 27.8769 22.7427C27.9595 23.1235 28.1699 23.4645 28.4732 23.7092C28.4194 23.9325 28.4105 24.1642 28.447 24.391C28.4835 24.6178 28.5647 24.835 28.6858 25.0302C28.807 25.2253 28.9657 25.3944 29.1528 25.5277C29.3399 25.661 29.5515 25.7558 29.7755 25.8066C29.8237 26.0459 29.9348 26.268 30.0975 26.4499C30.2602 26.6319 30.4685 26.7671 30.7009 26.8416L30.0154 27.671C29.9036 27.8067 29.76 27.9127 29.5974 27.9797C29.4348 28.0466 29.2582 28.0724 29.0832 28.0548L25.8686 27.6916C26.0056 27.3351 25.6355 26.9239 24.6211 27.1021L25.8823 23.5652L25.0803 21.9339L23.6203 23.1814L23.5107 26.8896L22.8801 26.5812C22.0712 26.2316 21.8313 27.7053 22.6059 27.7121H22.9143C22.8971 27.7828 22.9023 27.8572 22.9294 27.9248C22.9564 27.9923 23.0039 28.0498 23.0651 28.0891C23.0265 28.1105 22.9944 28.1417 22.972 28.1797C22.9496 28.2177 22.9378 28.2609 22.9378 28.305C22.9378 28.3491 22.9496 28.3924 22.972 28.4303C22.9944 28.4683 23.0265 28.4996 23.0651 28.5209C23.024 28.5447 22.989 28.5777 22.9628 28.6173C22.9365 28.6568 22.9198 28.7019 22.9138 28.749C22.9078 28.7961 22.9128 28.8439 22.9284 28.8888C22.9439 28.9336 22.9696 28.9743 23.0034 29.0076C22.9485 29.0964 22.9146 29.1965 22.9042 29.3004C22.8939 29.4043 22.9074 29.5092 22.9438 29.607C22.9802 29.7049 23.0384 29.7931 23.1141 29.8651C23.1897 29.937 23.2808 29.9907 23.3804 30.022C23.8465 30.1454 24.1344 29.6451 24.2304 29.3366L29.234 30.8857C29.5435 30.9959 29.8783 31.0144 30.198 30.939C30.5178 30.8636 30.809 30.6975 31.0367 30.4607L32.3391 29.316C32.2385 29.6269 32.2523 29.9635 32.378 30.2651C32.5037 30.5668 32.7329 30.8136 33.0245 30.9611C32.9794 31.2812 32.9611 31.6044 32.9697 31.9276H37.473V23.7023C37.4979 22.9319 37.6628 22.1724 37.9596 21.461H31.5714L31.5577 21.4541Z" fill="white"/>
<path d="M24.0661 35.3002L24.1621 35.4235C24.2992 35.5881 24.3746 35.5538 24.5322 35.4647L24.7584 35.3413C24.9023 35.2316 25.8345 35.5881 25.8825 34.8135C25.9853 35.3893 25.2999 36.6094 25.7112 37.2879L26.2664 38.2064H24.4431C24.3673 38.2057 24.293 38.2275 24.2296 38.269C24.1662 38.3105 24.1164 38.3698 24.0867 38.4395L23.6069 39.4265C23.5528 39.5343 23.5282 39.6544 23.5354 39.7747C23.5426 39.8951 23.5815 40.0114 23.648 40.1119L23.9702 40.4752C24.1291 40.3342 24.2495 40.1549 24.3197 39.9543L24.1758 39.8103C24.1233 39.7673 24.0886 39.7063 24.0785 39.6392C24.0684 39.5721 24.0835 39.5037 24.1209 39.4471L24.4157 38.837C24.4291 38.7876 24.453 38.7417 24.4858 38.7023C24.5186 38.663 24.5595 38.6312 24.6057 38.6091C24.6519 38.587 24.7023 38.5751 24.7534 38.5742C24.8046 38.5733 24.8554 38.5835 24.9023 38.604L26.376 38.9193C26.4857 38.9193 26.6571 39.0015 26.7667 38.8165C26.8481 38.6793 26.9748 38.5748 27.1249 38.521C27.2751 38.4672 27.4393 38.4675 27.5892 38.5217C28.3981 38.6451 30.2693 38.837 30.9342 38.0556C31.7156 39.0975 33.2441 39.0975 33.1481 39.639L32.8123 41.4828H33.2989L33.5937 39.6595C33.5937 39.4471 33.7582 39.1523 33.5251 38.9741C33.4292 38.8987 33.388 38.8644 33.1755 38.4943C32.8945 38.0076 32.9151 37.2811 32.6409 36.6505C32.7232 36.5261 32.8388 36.4273 32.9746 36.3655C33.1103 36.3037 33.2607 36.2813 33.4086 36.3009C33.9501 36.4311 34.094 37.3633 34.8617 38.1242C34.8051 37.7692 34.7014 37.4235 34.5533 37.096C34.8574 37.3263 35.0941 37.6341 35.2387 37.9871C35.255 38.128 35.3037 38.2632 35.381 38.3821C35.4583 38.501 35.5621 38.6004 35.6842 38.6725C35.8625 38.7411 36.0818 38.6725 36.2943 38.3915C36.2943 38.3915 35.7871 37.706 35.4169 37.2057C35.197 36.8418 34.8889 36.5393 34.5211 36.3261C34.1533 36.1128 33.7377 35.9957 33.3126 35.9856C33.0141 36.0281 32.7287 36.1358 32.4764 36.3009C31.4277 35.7114 30.612 36.3009 30.2899 36.3009L28.3295 36.1844C28.0486 36.121 27.8031 35.9515 27.6441 35.7114C27.6598 35.169 27.4834 34.6384 27.1461 34.2133C26.8087 33.7881 26.3321 33.4958 25.8003 33.3878C25.8003 33.3878 25.8414 33.0862 25.7249 32.9834L25.3136 33.4975L24.1758 33.0794L25.0668 33.8128L24.1004 34.9575C24.0608 34.9989 24.0359 35.0523 24.0297 35.1093C24.0235 35.1663 24.0363 35.2238 24.0661 35.2728" fill="white"/>
<path d="M22.7774 37.6298C22.5032 37.8423 22.517 38.137 22.6815 38.4729L22.846 38.7813L23.2778 38.4523L23.1818 38.2398C23.142 38.1779 23.1257 38.1038 23.1357 38.0309C23.1458 37.958 23.1816 37.8911 23.2367 37.8423L23.8536 37.3762C23.9068 37.3239 23.9727 37.2864 24.0447 37.2671C24.1168 37.2479 24.1926 37.2477 24.2648 37.2665L25.5603 37.5407C25.4432 37.3639 25.3553 37.1695 25.2998 36.9649L24.0797 36.8073C24.0001 36.8011 23.9201 36.8127 23.8454 36.8411C23.7707 36.8696 23.7033 36.9142 23.6479 36.9718L22.7774 37.6298Z" fill="white"/>
<path d="M31.0771 41.4823H31.5638L32.3521 39.5425C32.3807 39.4902 32.4128 39.4399 32.448 39.3917C32.1514 39.2788 31.8648 39.1412 31.5912 38.9805C31.79 39.2478 31.9408 39.3575 31.8585 39.6042L31.0771 41.4823Z" fill="white"/>
<path d="M31.4892 15.2513L32.394 10.0283L28.9668 11.2004V16.5879L31.4892 15.2513ZM29.5357 11.7282L31.8251 10.8851C31.8251 10.8851 31.3795 11.2484 30.8517 11.6117C30.4351 11.876 29.9972 12.1053 29.5426 12.2971L29.5357 11.7282ZM29.5357 12.9894L31.592 12.2423C31.3523 12.4769 31.0906 12.6881 30.8106 12.8729C30.3934 13.1362 29.9556 13.3654 29.5014 13.5583L29.5357 12.9894ZM29.5357 14.3603L31.3727 13.6748C31.3727 13.6748 31.3727 13.901 30.8449 14.2575C30.4281 14.5216 29.9902 14.7509 29.5357 14.9429V14.3603Z" fill="white"/>
<path d="M25.361 19.8776L25.4364 20.001H26.1218V20.1244C26.133 20.248 26.1583 20.3698 26.1972 20.4877C26.3269 20.8715 26.565 21.2096 26.8827 21.461C27.3898 21.8522 28.0179 22.0534 28.6579 22.0299C30.351 22.0299 31.1186 20.9332 31.194 20.1244V20.001H31.8795L31.9549 19.8776C32.6403 18.8289 33.4423 17.6705 34.3882 17.4992L31.7972 15.9981L28.6991 17.7185L25.5255 15.9912L22.9414 17.4923C23.8873 17.6568 24.703 18.8221 25.3747 19.8708" fill="white"/>
<path d="M28.4252 16.5811V11.1936L24.998 10.0215L25.9028 15.2445L28.4252 16.5811ZM27.8495 14.8881C27.3951 14.6957 26.9573 14.4664 26.5403 14.2026C26.0056 13.8394 26.0056 13.6132 26.0056 13.6132L27.8495 14.2986V14.8881ZM27.8495 11.7214V12.2766C27.3948 12.0847 26.9569 11.8555 26.5403 11.5911C26.0056 11.2279 25.5601 10.8646 25.5601 10.8646L27.8495 11.7214ZM27.8495 12.9826V13.5378C27.395 13.3455 26.9572 13.1163 26.5403 12.8523C26.2599 12.668 25.9982 12.4568 25.7589 12.2217L27.8495 12.9826Z" fill="white"/>
<path d="M28.6996 7.71777C26.7324 7.71777 25.2724 8.36208 24.9365 9.08864L28.6996 10.6035L32.4557 9.11606C32.1336 8.36208 30.6668 7.74519 28.6996 7.74519" fill="white"/>
<path d="M28.6995 5.56524C30.0568 5.56968 31.3911 5.91623 32.579 6.57283C32.7183 6.11075 32.9067 5.66495 33.1411 5.24309L32.25 5.38017L31.5646 3.8448L30.1937 4.53023L28.6995 3.09082L27.2189 4.55765L25.848 3.87222L25.142 5.38017L24.251 5.24309C24.4846 5.66531 24.673 6.11103 24.813 6.57283C26.003 5.91511 27.3398 5.56853 28.6995 5.56524Z" fill="white"/>
<path d="M53.2373 17.4033C53.7402 17.3429 54.2156 17.1408 54.6082 16.8206C53.58 16.5465 51.4277 15.7719 49.5908 16.1352C48.9807 16.2175 48.6449 16.4642 48.8642 16.6013C50.1821 17.665 51.2335 19.0216 51.935 20.5631C52.2001 20.1891 52.3656 19.7537 52.416 19.2981C52.4664 18.8424 52.3999 18.3814 52.2229 17.9585C53.7788 18.8975 54.1832 19.3293 54.9029 19.1717C54.4351 18.5114 53.8714 17.9246 53.2304 17.4307" fill="white"/>
<path d="M5.44251 20.5633C6.15338 19.0237 7.21433 17.6717 8.54067 16.6152C8.76001 16.4781 8.41729 16.2313 7.81411 16.1491C5.97714 15.7995 3.81802 16.5809 2.78987 16.8345C3.18279 17.154 3.65801 17.356 4.16074 17.4171C3.51943 17.9107 2.95569 18.4975 2.48828 19.1581C3.21484 19.3363 3.61925 18.884 5.16833 17.9449C4.99508 18.3686 4.93066 18.8289 4.98094 19.2839C5.03123 19.7388 5.19462 20.174 5.45621 20.5496" fill="white"/>
<path fill-rule="evenodd" clip-rule="evenodd" d="M16.2109 37.0135C16.8963 36.4446 17.52 36.1635 17.4926 34.7927C16.4165 35.341 13.38 35.3136 12.0982 33.5589C11.735 33.0585 12.0982 32.8118 12.4684 33.2025C13.3389 34.1895 14.9565 33.744 15.5391 33.4561C15.4429 33.0819 15.2544 32.7378 14.9908 32.4553C15.2101 32.236 15.8339 31.9138 15.9641 31.3586C15.4241 31.1958 14.8678 31.0924 14.3054 31.0502C14.4734 30.9013 14.5927 30.7053 14.6477 30.4877C14.7027 30.2701 14.6909 30.0409 14.6138 29.8301C13.2909 30.2345 11.6664 29.6862 11.2894 29.1995C10.9124 28.7129 11.2894 28.2673 11.6047 28.5895C12.2902 29.2749 15.5049 30.07 16.7112 28.8705C16.2828 28.7521 15.9139 28.4784 15.6762 28.1028C16.7935 27.9931 17.6845 27.3351 17.7325 26.5126C16.9895 26.5629 16.2446 26.4458 15.5528 26.1699C15.8016 26.1172 16.0308 25.9963 16.2148 25.8208C16.3988 25.6452 16.5303 25.422 16.5947 25.176C14.5384 25.0526 14.3945 23.5378 14.3807 23.2842C15.7105 24.0519 18.0547 23.7092 17.4446 21.8242C16.3411 21.7625 15.2238 19.9736 18.2672 18.3354C21.0089 16.8411 24.1756 15.2235 23.8946 12.5709C23.7164 10.871 20.9129 9.71259 20.5634 8.84894C19.3981 9.40414 19.1925 10.0485 19.686 11.1314C19.686 11.1314 17.0814 11.3919 16.8757 9.76057C16.8754 9.39566 16.9564 9.03527 17.1129 8.70563C17.2694 8.376 17.4975 8.08542 17.7805 7.85506C17.4858 7.85506 15.5254 7.32727 14.9359 8.92434C13.8393 8.17721 12.8796 8.20463 12.1599 8.99288C13.3389 9.67832 14.0723 12.0979 16.0258 12.8108C14.6549 13.5647 12.393 13.2494 11.077 10.9327C9.83631 12.8039 9.12346 14.6546 11.7624 16.6286C6.91636 18.8357 6.96434 23.0443 2.74206 25.0526C3.16703 26.1973 4.0718 26.1973 5.21648 26.0191C3.39322 28.3838 4.94916 30.8651 2.06348 31.8727C2.33765 32.8392 2.87914 33.6069 3.94157 33.3258C3.63998 33.7988 3.4412 33.7851 2.96825 34.306C4.54475 35.2999 6.39543 34.5802 6.83411 31.3929C6.9095 30.824 7.6909 31.1804 7.42358 31.7356C5.62774 35.4507 10.1653 38.2473 8.5614 40.9684C9.98026 40.9067 11.0564 40.7971 11.6459 40.3241C11.9402 40.8378 12.0784 41.4262 12.0434 42.0172C12.3371 41.9901 12.6115 41.8594 12.8175 41.6484C13.0235 41.4373 13.1476 41.1598 13.1675 40.8656C13.6816 42.3599 15.5117 43.9638 18.4454 43.9638C16.958 41.7704 18.418 39.5153 16.2109 37.0135ZM13.3115 39.7552L12.6877 40.8176C12.4408 40.147 12.1429 39.4962 11.7967 38.871C11.2963 39.9129 10.4943 39.9334 9.74035 39.9334C9.898 37.4179 6.76556 34.916 8.13643 32.0783C8.20671 31.9433 8.24968 31.7958 8.26291 31.6442C8.27614 31.4926 8.25936 31.3398 8.21353 31.1947C8.16769 31.0495 8.09371 30.9149 7.9958 30.7983C7.89789 30.6818 7.77798 30.5857 7.64292 30.5156C5.54549 29.4531 6.51881 33.8673 4.42138 34.0044C4.71 33.4916 4.91587 32.9364 5.03141 32.3594C4.58588 32.4759 3.52345 33.1545 3.04365 32.284C3.53396 32.0163 3.9514 31.6328 4.25962 31.1668C4.56784 30.7009 4.7575 30.1667 4.81207 29.6108C4.91075 28.7953 5.10634 27.9946 5.39469 27.2255C5.83879 26.4442 6.36004 25.7094 6.95063 25.0321C6.73814 25.0321 4.3871 25.5599 3.85246 25.3131C7.9308 22.8113 7.01232 19.6308 13.2224 16.7931C11.591 15.5799 9.92542 14.6135 11.1249 12.3035C12.8248 14.3598 16.0601 13.6744 17.8079 12.6942C16.0806 12.3515 13.8598 10.823 13.332 9.13682C13.9832 9.03401 14.8263 9.74001 15.3129 10.069C15.546 9.44527 15.642 8.69814 16.3959 8.56106C15.3883 10.7202 17.383 11.8511 19.2816 11.858C19.5763 11.858 20.8101 11.7346 20.8101 11.7346C20.6114 11.3302 19.8162 10.2267 20.392 9.78113C20.8581 10.2198 21.4133 10.5694 21.9205 10.9532C25.6219 13.8183 20.159 16.471 17.9244 17.6773C14.4219 19.5691 15.3609 21.8242 16.8209 22.4C16.8209 22.6536 16.6564 22.7633 16.4165 22.8455C15.3952 23.1882 14.4287 22.4548 13.6131 21.9887C13.661 23.4007 13.5651 24.7305 15.1279 25.5393L14.0517 25.93C14.9771 26.6154 15.2581 27.0061 16.3754 27.1501C15.8239 27.3504 15.2416 27.4525 14.6549 27.4517C14.7642 27.9046 14.9496 28.3357 15.2033 28.7266C12.9208 29.0007 12.0091 27.6984 11.3031 27.7464C9.79519 27.8561 9.89115 30.6938 13.5994 30.6938L13.2155 31.3244C13.6406 31.5653 14.1045 31.73 14.5864 31.811C14.3396 32.0098 14.1066 32.2771 13.9009 32.4965L14.4904 33.0037C12.9756 33.2779 12.5506 31.6328 11.5705 32.4416C10.0762 33.6274 13.3732 36.1293 16.533 35.7591C16.1215 36.1616 15.6767 36.5285 15.2033 36.8558C17.7805 39.2891 16.5056 41.5853 17.568 43.2646C16.5744 43.2043 15.626 42.8279 14.8615 42.1904C14.0969 41.5528 13.5562 40.6876 13.3183 39.7209" fill="#222220"/>
<path fill-rule="evenodd" clip-rule="evenodd" d="M9.25338 30.8447C9.78802 31.4068 10.4392 31.4616 11.6661 31.3862C10.2952 31.2217 9.55497 30.8927 9.08202 30.0154C9.01113 29.5224 8.96766 29.0258 8.95179 28.528C8.98976 26.7789 9.4734 25.0685 10.3569 23.5586C10.3902 24.3689 10.7058 25.142 11.249 25.7442C11.7923 26.3463 12.5291 26.7394 13.3317 26.8555C11.4811 26.0467 10.3981 24.2234 10.9875 22.4619C11.3714 21.845 11.8101 21.2144 12.2899 20.5632C12.5366 20.2548 12.7697 19.9532 12.9753 19.6721C12.7285 20.5701 13.8115 21.4954 14.5381 21.653C14.1474 21.2692 13.2975 20.0149 15.2235 17.9243C14.6567 18.1951 14.1192 18.5236 13.6196 18.9045C17.1702 15.066 20.0901 14.9632 21.4336 13.0303C19.5486 14.3326 14.4079 15.0797 12.0911 14.3943C13.366 15.2442 16.4436 15.1688 17.1907 15.0112C14.682 17.4445 9.21226 19.9669 8.28007 22.2014C9.14578 21.1621 10.3196 20.4252 11.6318 20.0971C10.7363 21.3269 9.96918 22.6453 9.34249 24.0315C7.88937 27.1914 5.91532 27.2325 5.8125 29.844C6.49794 27.822 7.82083 27.3079 8.75987 25.985C8.58359 26.9316 8.51233 27.8947 8.54739 28.857C8.5712 29.9359 8.78946 31.0017 9.1917 32.0031C9.09574 33.2917 9.1917 35.492 10.6859 36.9451C9.86847 35.7352 9.47111 34.2903 9.55498 32.8325C10.7134 35.067 14.0103 38.1515 15.6074 40.2215C14.0103 37.5551 10.1239 34.4433 9.26709 30.8447" fill="#222220"/>
<path fill-rule="evenodd" clip-rule="evenodd" d="M45.7667 20.1246C47.0761 20.4549 48.2471 21.1916 49.1117 22.2289C48.1658 19.9875 42.6891 17.472 40.201 15.0387C40.955 15.1963 44.0257 15.2786 45.3006 14.4218C42.9907 15.0524 37.85 14.3327 35.9033 13.0029C37.2742 14.9359 40.1667 15.0592 43.7173 18.8771C43.2161 18.495 42.6762 18.1664 42.1065 17.8969C44.06 19.9875 43.2169 21.2419 42.7919 21.6257C43.5185 21.4681 44.6083 20.5427 44.3616 19.6448C44.5946 19.9258 44.8345 20.2206 45.047 20.5359C45.5337 21.1802 45.9655 21.8176 46.3494 22.4345C46.9388 24.1961 45.849 26.0193 44.0052 26.8282C44.8071 26.7119 45.543 26.3185 46.0851 25.7162C46.6273 25.114 46.9415 24.3409 46.9731 23.5312C47.859 25.0405 48.345 26.751 48.3851 28.5006C48.3675 28.9986 48.3217 29.4952 48.248 29.988C47.7751 30.8859 47.0142 31.2149 45.6639 31.3589C46.8977 31.4343 47.542 31.3589 48.0767 30.8174C47.2404 34.4091 43.3266 37.5278 41.7364 40.1941C43.3334 38.1378 46.6304 35.0397 47.7888 32.8052C47.8716 34.2628 47.4743 35.7074 46.6578 36.9178C48.1383 35.4646 48.248 33.2644 48.1521 31.9689C48.5522 30.9693 48.7704 29.9061 48.7964 28.8296C48.834 27.8674 48.7627 26.9039 48.5839 25.9577C49.5161 27.2874 50.8664 27.7946 51.5312 29.8167C51.401 27.212 49.4749 27.1709 47.9944 24.0042C47.3687 22.6174 46.6016 21.2989 45.705 20.0698" fill="#222220"/>
<path fill-rule="evenodd" clip-rule="evenodd" d="M52.0999 26.0465C53.2445 26.2248 54.1562 26.2248 54.5743 25.0801C50.3589 23.0718 50.4 18.8632 45.554 16.6561C48.2134 14.682 47.5006 12.8314 46.2394 10.9601C44.9302 13.2769 42.6751 13.5922 41.2906 12.8382C43.2372 12.1528 43.9775 9.71948 45.1564 9.02034C44.4641 8.22523 43.4977 8.22523 42.4078 8.91067C41.8115 7.3136 39.858 7.84139 39.5633 7.84139C39.8466 8.07142 40.075 8.36194 40.2315 8.69164C40.3881 9.02135 40.4689 9.38191 40.468 9.7469C40.2624 11.3508 37.6646 11.1178 37.6646 11.1178C38.1924 10.0348 37.9593 9.39047 36.7872 8.83527C36.4308 9.69892 33.6342 10.8573 33.456 12.5572C33.175 15.2167 36.3212 16.8274 39.0835 18.3217C42.1268 19.9667 41.0095 21.7489 39.906 21.8106C39.2959 23.7024 41.6333 24.0382 42.9699 23.2705C42.9699 23.5241 42.7917 25.039 40.7559 25.1623C40.8214 25.4071 40.9535 25.6289 41.1374 25.8031C41.3213 25.9773 41.5499 26.0972 41.7978 26.1494C41.106 26.425 40.3611 26.5422 39.6181 26.4921C39.6935 27.3146 40.5846 27.9726 41.6744 28.0823C41.4387 28.4582 41.0726 28.734 40.6462 28.8568C41.8526 30.0563 45.0947 29.2681 45.7527 28.5758C46.0543 28.2605 46.4382 28.706 46.0612 29.1858C45.6842 29.6656 44.0597 30.2277 42.7368 29.8233C42.6647 30.0398 42.6601 30.2732 42.7238 30.4923C42.7874 30.7115 42.9163 30.9061 43.0933 31.0502C42.5423 31.0945 41.9976 31.1979 41.4688 31.3587C41.5921 31.9139 42.2227 32.236 42.4421 32.4554C42.1729 32.7274 41.9752 33.0618 41.8663 33.4287C42.4558 33.7166 44.0734 34.1621 44.9371 33.1751C45.2866 32.7844 45.6705 33.0311 45.3141 33.5315C44.0392 35.2862 40.9958 35.3136 39.9197 34.7653C39.9197 36.1362 40.4817 36.4172 41.2014 36.9861C39.0012 39.5222 40.4543 41.7841 38.8984 43.9912C41.832 43.9912 43.6964 42.3942 44.1762 40.8931C44.1962 41.1873 44.3203 41.4648 44.5263 41.6758C44.7323 41.8868 45.0067 42.0176 45.3004 42.0446C45.2685 41.4539 45.4065 40.8664 45.6979 40.3516C46.2942 40.8314 47.3772 40.9411 48.7892 40.9959C47.1853 38.2542 51.7297 35.4781 49.927 31.7631C49.6597 31.2079 50.4411 30.8515 50.5165 31.4204C50.9415 34.6076 52.8059 35.3273 54.3892 34.3335C53.9163 33.8125 53.7038 33.8262 53.4159 33.3533C54.4783 33.6343 55.0198 32.8666 55.294 31.9002C52.4152 30.8857 53.9643 28.4113 52.141 26.0465M52.3809 32.3731C52.4938 32.9509 52.6999 33.5065 52.9909 34.0182C50.8935 33.8811 51.8668 29.4669 49.7694 30.5293C49.4978 30.6686 49.2922 30.9095 49.1972 31.1995C49.1022 31.4896 49.1256 31.8054 49.2622 32.0784C50.633 34.9161 47.5075 37.4179 47.6857 39.9061C46.9111 39.9061 46.1092 39.9061 45.6294 38.8436C45.2841 39.4693 44.9863 40.12 44.7383 40.7903L44.1145 39.7278C43.8757 40.694 43.3347 41.5586 42.5703 42.196C41.806 42.8334 40.8582 43.2102 39.8649 43.2715C40.9204 41.5922 39.6524 39.3029 42.2296 36.8627C41.7559 36.5357 41.311 36.1688 40.8999 35.766C44.0666 36.1362 47.3635 33.6343 45.8624 32.4485C44.8822 31.674 44.4504 33.2847 42.9425 33.0106L43.5319 32.5033C43.3263 32.2977 43.0864 32.0304 42.8465 31.8179C43.3284 31.7372 43.7924 31.5725 44.2174 31.3313L43.8335 30.7007C47.5349 30.7007 47.6308 27.863 46.1297 27.7533C45.4443 27.6985 44.5121 29.0008 42.2296 28.7335C42.4805 28.3411 42.6657 27.9105 42.778 27.4585C42.1913 27.4591 41.609 27.357 41.0575 27.157C42.1748 27.013 42.4284 26.6429 43.3811 25.9369L42.305 25.5393C43.8678 24.7579 43.765 23.4008 43.813 21.9888C42.9973 22.4617 42.0308 23.1883 41.0164 22.8456C40.7696 22.7633 40.612 22.6536 40.612 22.4C42.0788 21.8243 43.011 19.5692 39.5084 17.6774C37.2739 16.471 31.811 13.8184 35.5123 10.9533C36.0196 10.5626 36.5679 10.213 37.034 9.78117C37.6166 10.2267 36.8215 11.3303 36.6227 11.7347C36.6227 11.7347 37.8565 11.858 38.1444 11.858C40.0499 11.858 42.0514 10.7202 41.0369 8.56109C41.7978 8.71874 41.8869 9.44531 42.1131 10.0691C42.5997 9.74004 43.4428 9.03404 44.094 9.13686C43.5662 10.8299 41.3522 12.3516 39.6112 12.6943C41.3591 13.647 44.5944 14.353 46.2942 12.3036C47.4869 14.6135 45.8213 15.58 44.1899 16.7932C50.4068 19.624 49.4884 22.8044 53.5599 25.3131C53.0321 25.5599 50.6742 25.0664 50.4617 25.0321C51.0567 25.7075 51.5804 26.4426 52.0245 27.2255C52.3193 27.9939 52.5218 28.7946 52.6277 29.6108C52.6856 30.1658 52.8767 30.6986 53.1845 31.1639C53.4924 31.6293 53.908 32.0135 54.3961 32.284C53.9163 33.1545 52.8538 32.4759 52.4083 32.3594" fill="#222220"/>
<path fill-rule="evenodd" clip-rule="evenodd" d="M22.7492 39.3239L23.6334 38.57L23.4963 38.3026C23.4003 38.1107 23.4483 38.097 23.5511 38.0216L24.0172 37.672C24.0676 37.6344 24.1268 37.6102 24.1892 37.6018C24.2516 37.5934 24.3151 37.6011 24.3736 37.6241L25.7445 37.9531H24.2982C24.1711 37.9481 24.0459 37.9859 23.9428 38.0605C23.8397 38.135 23.7645 38.242 23.7293 38.3643L23.6265 38.57L23.2427 39.3513C23.1536 39.5168 23.1195 39.7063 23.1454 39.8924C23.1713 40.0785 23.2558 40.2515 23.3866 40.3864L23.6539 40.7085L23.1193 41.8121H23.5785L23.9555 41.0444C24.2703 40.754 24.5061 40.3884 24.641 39.982C24.4833 39.8517 24.3668 39.7558 24.4559 39.5775L24.6273 39.2143C24.6821 39.0909 24.7027 39.0429 24.8672 39.0772L26.3408 39.3925C26.4508 39.4492 26.5776 39.4637 26.6976 39.4334C26.8175 39.4031 26.9222 39.3301 26.992 39.228C27.1908 38.9195 27.2182 38.9538 27.6774 39.0018L28.4314 39.084C29.2797 39.1932 30.1406 39.0248 30.8853 38.6042C31.0224 38.9264 31.3034 39.1663 31.4336 39.413C31.4816 39.5021 31.4336 39.6324 31.3377 39.7969L30.522 41.8121H31.8243L32.5577 39.9682C32.6123 39.8245 32.6964 39.6938 32.8045 39.5844L32.3864 41.8121H33.6476L33.9834 39.605C34.0588 39.1183 33.9834 38.9538 33.7778 38.755C33.25 38.3095 33.2637 37.3842 33.0924 36.8084C33.1878 36.7537 33.2987 36.732 33.4077 36.7467C33.6819 36.7467 33.8875 37.4733 34.2165 37.9256C34.8608 38.8373 35.745 39.838 36.7595 38.426C36.663 38.2682 36.5529 38.1191 36.4304 37.9805L36.1494 37.6515C35.9849 37.4664 35.2035 36.5753 34.8745 36.2806C34.573 35.9804 34.1793 35.7901 33.7567 35.7404C33.3341 35.6907 32.907 35.7844 32.544 36.0064C31.5159 35.4649 30.4329 36.0064 30.1793 36.0064L28.4109 35.8968C28.3524 35.8946 28.2953 35.8777 28.245 35.8478C28.1947 35.8179 28.1528 35.7758 28.123 35.7254L28.452 35.6157C28.1435 34.334 27.369 33.2647 26.0187 33.0796C26.0187 33.0796 25.9364 32.6752 25.7308 32.5998L25.3264 33.0728C25.2084 33.0892 25.0931 33.1215 24.9837 33.1687L23.2564 32.5244L24.5861 33.8199C24.5861 33.8199 23.9007 34.7726 23.6882 34.9577C23.6561 34.9896 23.6306 35.0275 23.6132 35.0692C23.5958 35.111 23.5868 35.1558 23.5868 35.201C23.5868 35.2463 23.5958 35.2911 23.6132 35.3328C23.6306 35.3746 23.6561 35.4125 23.6882 35.4444L23.9418 35.7734C24.072 35.9447 24.216 35.9379 24.4216 35.8282L24.7026 35.6774C24.826 35.5746 25.2441 35.7802 25.3881 35.6157C25.3144 35.9536 25.2753 36.2981 25.2716 36.6439L24.1063 36.5068C24.016 36.4842 23.9215 36.4836 23.8308 36.5051C23.7402 36.5266 23.656 36.5695 23.5854 36.6302L22.5915 37.391C22.4297 37.5171 22.318 37.6968 22.2766 37.8977C22.2351 38.0987 22.2666 38.3078 22.3653 38.4877L22.7492 39.3239ZM32.3453 39.5433L31.557 41.4831H31.0703L31.8586 39.605C31.9408 39.3651 31.7832 39.2485 31.5913 38.9812C31.8647 39.1424 32.1513 39.2799 32.4481 39.3925C32.4128 39.4406 32.3808 39.491 32.3521 39.5433M24.7575 35.3347L24.5313 35.4512C24.3736 35.5403 24.2982 35.5815 24.1612 35.4101L24.0652 35.2867C24.0354 35.2377 24.0226 35.1803 24.0288 35.1232C24.035 35.0662 24.0598 35.0129 24.0995 34.9714L25.0659 33.8473L24.1749 33.1139L25.3058 33.532L25.724 33.0111C25.8473 33.1139 25.8062 33.4155 25.8062 33.4155C26.338 33.5235 26.8147 33.8158 27.152 34.2409C27.4893 34.666 27.6657 35.1966 27.65 35.7391C27.8098 35.9771 28.0554 36.1441 28.3355 36.2052L30.3027 36.3217C30.6317 36.3217 31.4405 35.698 32.4892 36.3217C32.7421 36.1565 33.0271 36.0467 33.3254 35.9996C33.7502 36.0109 34.1653 36.1286 34.5329 36.3417C34.9005 36.5548 35.2088 36.8567 35.4297 37.2196C35.7998 37.6857 36.3071 38.4054 36.3071 38.4054C36.0877 38.6659 35.8752 38.7482 35.697 38.6865C35.5749 38.6144 35.4711 38.515 35.3938 38.3961C35.3165 38.2771 35.2678 38.1419 35.2515 38.001C35.1066 37.6482 34.8699 37.3406 34.5661 37.11C34.7134 37.4377 34.8171 37.7834 34.8745 38.1381C34.1068 37.3773 33.9629 36.452 33.4214 36.3217C33.2731 36.2992 33.1214 36.3195 32.9842 36.3802C32.847 36.4409 32.7299 36.5395 32.6468 36.6644C32.921 37.295 32.9005 38.0353 33.1815 38.5083C33.394 38.8715 33.4351 38.9058 33.5311 38.9881C33.7573 39.1526 33.627 39.4405 33.5927 39.6735L33.298 41.4968H32.8113L33.1335 39.7078C33.2295 39.1663 31.7078 39.1663 30.9195 38.1244C30.2341 38.9058 28.3834 38.707 27.5746 38.5905C27.4246 38.5363 27.2604 38.536 27.1103 38.5898C26.9602 38.6436 26.8335 38.7481 26.7521 38.8853C26.6493 39.0635 26.4711 39.0086 26.3614 38.9881L24.8877 38.6728C24.8413 38.6522 24.7909 38.6417 24.7401 38.6422C24.6893 38.6427 24.6391 38.654 24.593 38.6754C24.547 38.6968 24.506 38.7278 24.4729 38.7664C24.4397 38.805 24.4153 38.8502 24.4011 38.899L24.1063 39.509C24.0703 39.5661 24.0561 39.6341 24.0662 39.7008C24.0762 39.7675 24.1099 39.8284 24.1612 39.8723L24.2982 40.0231C24.2278 40.2216 24.1074 40.3986 23.9487 40.5372L23.6265 40.1739C23.555 40.0755 23.5131 39.9586 23.5058 39.8372C23.4985 39.7157 23.5261 39.5947 23.5854 39.4884L24.0652 38.4946C24.095 38.4249 24.1447 38.3655 24.2081 38.3241C24.2716 38.2826 24.3458 38.2608 24.4216 38.2615H26.2449L25.6897 37.3499C25.2716 36.6644 25.9639 35.4512 25.861 34.8755C25.8062 35.6431 24.874 35.2936 24.7301 35.3964M22.7766 37.6309L23.6402 36.9455C23.695 36.8867 23.7621 36.8408 23.8368 36.8111C23.9115 36.7815 23.9919 36.7688 24.072 36.7741L25.2921 36.9318C25.3476 37.1364 25.4355 37.3308 25.5526 37.5075L24.2571 37.2334C24.1849 37.2159 24.1094 37.2167 24.0375 37.2359C23.9657 37.2551 23.8998 37.2919 23.8459 37.343L23.229 37.8091C23.1726 37.8571 23.1359 37.9241 23.1258 37.9974C23.1157 38.0708 23.1329 38.1452 23.1741 38.2067L23.2701 38.4192L22.8383 38.7413L22.6738 38.4329C22.5093 38.1039 22.4955 37.8023 22.7697 37.5898" fill="#222220"/>
<path fill-rule="evenodd" clip-rule="evenodd" d="M26.5327 14.2154C26.9497 14.4792 27.3875 14.7084 27.8419 14.9008V14.3456L25.998 13.6602C25.998 13.6602 25.998 13.8864 26.5327 14.2496" fill="#222220"/>
<path fill-rule="evenodd" clip-rule="evenodd" d="M27.8424 13.5445V12.9893L25.7861 12.2422C26.0252 12.4776 26.2869 12.6889 26.5675 12.8728C26.9847 13.1363 27.4225 13.3655 27.8767 13.5582" fill="#222220"/>
<path fill-rule="evenodd" clip-rule="evenodd" d="M27.8421 12.2831V11.721L25.5527 10.8779C25.5527 10.8779 25.9983 11.2412 26.5329 11.6045C26.9496 11.8688 27.3875 12.0981 27.8421 12.2899" fill="#222220"/>
<path fill-rule="evenodd" clip-rule="evenodd" d="M34.2715 19.8783H36.6157C36.5288 19.6527 36.3689 19.4626 36.1614 19.3384C35.954 19.2142 35.7109 19.163 35.471 19.1929C35.2273 19.1855 34.9863 19.2456 34.7747 19.3666C34.563 19.4876 34.3888 19.6646 34.2715 19.8783Z" fill="#222220"/>
<path fill-rule="evenodd" clip-rule="evenodd" d="M31.8245 10.878L29.5352 11.7211V12.2763C29.9898 12.0844 30.4277 11.8552 30.8443 11.5908C31.379 11.2275 31.8177 10.8643 31.8177 10.8643" fill="#222220"/>
<path fill-rule="evenodd" clip-rule="evenodd" d="M31.379 13.6261L29.5352 14.3115V14.8667C29.9894 14.6742 30.4273 14.4449 30.8443 14.1813C31.379 13.818 31.379 13.5918 31.379 13.5918" fill="#222220"/>
<path fill-rule="evenodd" clip-rule="evenodd" d="M31.6335 12.2422L29.5771 12.9893V13.5446C30.0316 13.3524 30.4695 13.1231 30.8863 12.8591C31.1666 12.6747 31.4283 12.4635 31.6677 12.2285" fill="#222220"/>
<path fill-rule="evenodd" clip-rule="evenodd" d="M21.9064 19.1929C21.6665 19.163 21.4234 19.2142 21.216 19.3384C21.0085 19.4626 20.8486 19.6527 20.7617 19.8783H23.1059C22.9885 19.6646 22.8144 19.4876 22.6027 19.3666C22.3911 19.2456 22.1501 19.1855 21.9064 19.1929Z" fill="#222220"/>
<path fill-rule="evenodd" clip-rule="evenodd" d="M33.3401 9.38366C33.3401 8.06762 31.1261 6.88867 28.686 6.88867C26.2458 6.88867 24.0319 8.06762 24.0319 9.38366L24.0799 9.70581L25.0532 15.299L20.4745 17.9859C20.1501 18.1976 19.8742 18.4757 19.6651 18.8018C19.456 19.1278 19.3184 19.4945 19.2613 19.8777H20.1043C20.1641 19.4108 20.3977 18.9835 20.7585 18.6812C21.1193 18.3788 21.5808 18.2236 22.051 18.2463C23.1134 18.3012 23.744 18.9318 24.3746 19.8777L24.5323 20.1244L24.7653 20.4877H17.9795C18.5485 21.4695 18.8817 22.5699 18.9528 23.7024V37.7949C18.9528 41.4209 21.7425 43.1551 24.7584 43.1551C27.0889 43.1551 27.4042 43.0522 28.6928 44.334C29.9746 43.0454 30.2899 43.1551 32.6272 43.1551C35.6432 43.1551 38.4329 41.4278 38.4329 37.7949V23.6887C38.5038 22.5562 38.837 21.4556 39.4062 20.474H32.6204L32.8534 20.1107L33.0179 19.864C33.6417 18.9386 34.2723 18.2875 35.3416 18.2326C35.8115 18.2137 36.2714 18.3725 36.6296 18.6773C36.9878 18.9822 37.218 19.4107 37.2745 19.8777H38.1107C38.0568 19.4968 37.9234 19.1315 37.7191 18.8056C37.5148 18.4797 37.2442 18.2004 36.9249 17.9859L32.3119 15.299L33.2853 9.70581L33.3401 9.38366ZM24.9778 10.028L28.405 11.2001V16.5876L25.8689 15.251L24.9778 10.028ZM25.8277 21.4542C26.3354 22.1112 27.0676 22.5578 27.884 22.7085C27.9693 23.0902 28.1791 23.4326 28.4804 23.6818C28.4266 23.9051 28.4176 24.1369 28.4542 24.3637C28.4907 24.5904 28.5718 24.8077 28.693 25.0028C28.8142 25.198 28.9729 25.3671 29.1599 25.5004C29.347 25.6337 29.5587 25.7285 29.7827 25.7793C29.8302 26.0177 29.9403 26.2393 30.1018 26.4212C30.2632 26.603 30.47 26.7387 30.7012 26.8143L30.0157 27.6437C29.9043 27.7798 29.7608 27.8862 29.5981 27.9532C29.4354 28.0202 29.2586 28.0457 29.0835 28.0275L25.8689 27.6642C26.0059 27.3078 25.6358 26.8965 24.6214 27.0747L25.8826 23.5379L25.0875 21.934L23.6275 23.1815L23.5178 26.8897L22.8941 26.5812C22.0784 26.2317 21.8385 27.7053 22.613 27.7122H22.9215C22.9051 27.7812 22.9101 27.8536 22.9358 27.9197C22.9615 27.9858 23.0067 28.0425 23.0654 28.0823C23.0286 28.105 22.9981 28.1368 22.977 28.1746C22.9559 28.2124 22.9449 28.255 22.9449 28.2982C22.9449 28.3415 22.9559 28.3841 22.977 28.4219C22.9981 28.4597 23.0286 28.4914 23.0654 28.5142C23.0232 28.5369 22.987 28.5695 22.9599 28.609C22.9328 28.6486 22.9155 28.694 22.9095 28.7416C22.9034 28.7892 22.9088 28.8376 22.9252 28.8826C22.9416 28.9277 22.9685 28.9682 23.0037 29.0008C22.9488 29.0896 22.9149 29.1897 22.9045 29.2936C22.8942 29.3975 22.9077 29.5024 22.9441 29.6002C22.9805 29.6981 23.0387 29.7864 23.1144 29.8583C23.19 29.9302 23.2811 29.9839 23.3807 30.0153C23.84 30.1386 24.1278 29.6383 24.2238 29.3298L29.2275 30.8789C29.5369 30.99 29.8718 31.0089 30.1918 30.9335C30.5117 30.8581 30.803 30.6915 31.0302 30.4539L32.3325 29.3093C32.232 29.6202 32.2458 29.9567 32.3714 30.2584C32.4971 30.56 32.7264 30.8068 33.0179 30.9543C32.9768 31.2771 32.9585 31.6023 32.9631 31.9276H19.9398V23.7024C19.9115 22.9324 19.7467 22.1735 19.4532 21.461L25.8277 21.4542ZM31.2084 24.5729C31.073 24.835 31.0087 25.1279 31.0219 25.4226C31.0351 25.7173 31.1254 26.0034 31.2838 26.2522L31.0713 26.4647C30.1323 26.3482 29.7621 24.9499 29.7621 24.9499C29.7517 25.0753 29.7517 25.2014 29.7621 25.3269C29.4852 25.2285 29.2494 25.0398 29.0928 24.7911C28.9361 24.5424 28.8677 24.2483 28.8985 23.956C29.1118 24.074 29.3436 24.1551 29.5839 24.1959L29.6456 23.7847C29.3716 23.7496 29.1136 23.6358 28.9031 23.4569C28.6926 23.278 28.5386 23.0418 28.4598 22.7771H28.3707H28.7203C29.0846 22.775 29.4468 22.722 29.7964 22.6194C29.9464 22.8113 30.1336 22.9709 30.3468 23.0887C30.56 23.2064 30.7948 23.28 31.037 23.3048C30.9644 23.7194 31.0244 24.1464 31.2084 24.5249M32.5793 28.2263C32.4822 28.3567 32.408 28.5028 32.3599 28.6581L31.839 29.1379C31.8601 28.7508 31.792 28.3641 31.6398 28.0075C31.4877 27.651 31.2557 27.3342 30.9616 27.0816L31.5168 26.5332L31.6265 26.6429C31.5847 26.8081 31.5763 26.9801 31.6018 27.1486C31.6272 27.3171 31.686 27.4788 31.7747 27.6244C31.8635 27.7699 31.9803 27.8963 32.1184 27.9961C32.2566 28.0959 32.4132 28.1672 32.5793 28.2057M30.0706 28.0344L30.5024 27.6094C30.7999 27.8571 31.0318 28.1743 31.1776 28.533C31.3235 28.8916 31.3788 29.2806 31.3386 29.6657L30.8657 30.0975C30.774 30.184 30.6728 30.2599 30.5641 30.3237C30.6702 29.9304 30.6807 29.5174 30.5949 29.1192C30.509 28.721 30.3293 28.349 30.0706 28.0344ZM29.1452 28.3908C29.3062 28.4107 29.4695 28.3871 29.6182 28.3222C29.8285 28.645 29.956 29.0146 29.9895 29.3983C30.023 29.7821 29.9614 30.1682 29.8101 30.5225C29.5918 30.5222 29.3747 30.4899 29.1658 30.4265L29.0013 30.3785C29.287 29.7519 29.3334 29.0424 29.1315 28.3839M28.0417 28.2468L28.6517 28.3222C28.7626 28.9607 28.6615 29.6179 28.3638 30.1935L27.6784 29.9878C27.9852 29.4619 28.1194 28.853 28.0622 28.2468M26.7873 28.1029L27.5208 28.192C27.5761 28.7712 27.4567 29.3537 27.178 29.8645L26.4309 29.6451C26.7198 29.1858 26.8453 28.6424 26.7873 28.1029ZM23.8057 27.9041C23.7508 27.9309 23.6897 27.9422 23.6289 27.9369C23.5681 27.9315 23.5099 27.9097 23.4606 27.8738C23.4112 27.8378 23.3726 27.7891 23.3489 27.7329C23.3252 27.6766 23.3172 27.615 23.3259 27.5545C23.5064 27.4578 23.7094 27.4106 23.9141 27.4178C24.1188 27.425 24.3179 27.4864 24.4911 27.5957C24.6693 27.7122 24.8201 28.0343 25.0669 28.2331C25.0206 28.5525 24.9449 28.8668 24.8407 29.1722C24.7104 29.1654 24.5848 29.1216 24.4786 29.0459C24.3723 28.9702 24.2899 28.8658 24.241 28.7448C24.192 28.6239 24.1786 28.4915 24.2023 28.3633C24.2259 28.235 24.2857 28.1161 24.3746 28.0206C24.3083 27.9359 24.2143 27.8771 24.1091 27.8545C24.0039 27.832 23.8941 27.8471 23.7988 27.8973M23.319 29.2681C23.4688 29.3242 23.6257 29.3589 23.7851 29.3709C23.7819 29.4081 23.771 29.4442 23.753 29.4769C23.735 29.5096 23.7104 29.5382 23.6807 29.5608C23.651 29.5834 23.6169 29.5995 23.5805 29.6081C23.5442 29.6168 23.5065 29.6177 23.4698 29.6109C23.4358 29.6005 23.4044 29.5829 23.3778 29.5593C23.3512 29.5357 23.33 29.5067 23.3157 29.4741C23.3014 29.4416 23.2943 29.4063 23.2948 29.3708C23.2954 29.3352 23.3037 29.3002 23.319 29.2681ZM22.6336 27.2941C22.5942 27.2743 22.5627 27.2416 22.5446 27.2015C22.5264 27.1613 22.5227 27.1161 22.5339 27.0734C22.5452 27.0308 22.5708 26.9934 22.6064 26.9674C22.642 26.9414 22.6855 26.9285 22.7296 26.9308C22.9352 26.9308 23.2162 27.1707 23.4835 27.2872C23.2022 27.3341 22.915 27.3341 22.6336 27.2872M23.319 28.7198C23.4698 28.8637 23.9154 28.8089 23.9154 28.8089V28.898C23.7234 29.1585 23.1819 29.0419 23.3053 28.7198M23.9085 28.4251C23.5932 28.5484 23.2642 28.3771 23.367 28.1714C23.5178 28.3085 23.9291 28.24 23.9291 28.24L23.9085 28.4251ZM24.3746 24.7237L23.7646 26.9445L23.9702 23.3597L24.9161 22.5509L25.3959 23.6064L24.2238 27.0747L24.546 24.7306C24.546 24.566 24.4431 24.5523 24.4157 24.7306M24.4569 27.4175C24.7476 27.3988 25.0396 27.4126 25.3274 27.4586C25.4713 27.5203 25.3753 27.7533 25.1903 27.7259C24.9358 27.6487 24.69 27.5454 24.4569 27.4175ZM25.5193 27.959L26.2596 28.0481C26.3121 28.5602 26.2018 29.0759 25.9443 29.5217L25.2588 29.3161C25.4267 28.8769 25.5261 28.4146 25.5536 27.9452M37.487 37.8018C37.5199 38.5606 37.3395 39.3133 36.9664 39.9748C36.5932 40.6363 36.0422 41.18 35.3758 41.5443L35.8488 40.5847H35.3895L34.7864 41.8185C34.1043 42.0706 33.3818 42.1961 32.6547 42.1886C30.2488 42.1886 29.6113 42.2846 28.7203 43.1756C27.8292 42.2914 27.1917 42.1886 24.7859 42.1886C24.0537 42.1951 23.3265 42.0673 22.6405 41.8116L23.2505 40.5778H22.805L22.2703 41.6608C22.1401 41.5991 22.0236 41.5374 21.9002 41.4689L22.3389 40.5847H21.8865L21.5643 41.2701C21.0358 40.8726 20.611 40.3536 20.3258 39.757C20.0407 39.1604 19.9035 38.5038 19.9261 37.8429V32.4006H37.4527L37.487 37.8018ZM37.9736 21.461C37.6764 22.1723 37.5114 22.9319 37.487 23.7024V31.9276H36.5274C36.1529 31.3729 35.8812 30.7553 35.7254 30.1044C35.6438 30.4116 35.6273 30.7324 35.6768 31.0464C35.7264 31.3604 35.841 31.6605 36.0133 31.9276H34.7795C34.5055 31.3327 34.314 30.7031 34.2106 30.0564C33.8405 30.4745 34.0735 31.6123 34.3066 31.9276H33.4909C33.4695 31.5174 33.5088 31.1063 33.6074 30.7075C33.1756 30.6253 32.7232 30.406 32.7232 29.9262C32.7987 30.0073 32.8939 30.0677 32.9996 30.1013C33.1053 30.1349 33.2178 30.1407 33.3264 30.1181L33.676 29.8439C32.5244 29.8782 32.4696 28.617 33.3812 28.0206C32.4627 28.0206 31.7842 27.5066 32.1132 26.5332C31.9595 26.4347 31.827 26.3065 31.7236 26.156C31.6201 26.0056 31.5477 25.836 31.5107 25.6573C31.4737 25.4785 31.4727 25.2941 31.5079 25.115C31.5431 24.9358 31.6137 24.7655 31.7156 24.614C31.5452 24.3832 31.4384 24.1116 31.4059 23.8265C31.3735 23.5414 31.4164 23.2528 31.5305 22.9895C31.0588 22.9944 30.6038 22.8149 30.2625 22.4892H30.1871C30.7321 22.2695 31.2063 21.9044 31.558 21.4336L37.9736 21.461ZM34.4848 17.4992C33.532 17.6637 32.7164 18.829 32.0515 19.8777L31.9761 20.001H31.2906V20.1244C31.2152 20.9332 30.4476 22.0299 28.7545 22.0299C28.115 22.05 27.488 21.8491 26.9793 21.461C26.6613 21.2099 26.4231 20.8717 26.2938 20.4877C26.2553 20.3698 26.2301 20.2479 26.2184 20.1244V20.001H25.533L25.3616 19.8777C24.6762 18.829 23.8742 17.6706 22.9283 17.4992L25.5124 15.9981L28.6997 17.7185L31.8733 15.9913L34.4848 17.4992ZM31.5237 15.251L28.9876 16.5876V11.1932L32.4148 10.0211L31.5237 15.251ZM28.6997 10.6037L24.9298 9.11634C25.252 8.36236 26.7256 7.74547 28.6928 7.74547C30.66 7.74547 32.12 8.38978 32.449 9.11634L28.6997 10.6037Z" fill="#222220"/>
<path fill-rule="evenodd" clip-rule="evenodd" d="M37.0551 26.7669V26.3557C35.787 26.3557 35.4991 24.834 35.4991 24.834C35.4316 25.0673 35.4212 25.3133 35.4687 25.5515C35.5163 25.7896 35.6204 26.0128 35.7722 26.2023C35.9241 26.3918 36.1193 26.542 36.3413 26.6403C36.5634 26.7385 36.8059 26.782 37.0482 26.7669" fill="#222220"/>
<path fill-rule="evenodd" clip-rule="evenodd" d="M35.4575 29.2959L35.3341 28.9052C34.258 29.1794 33.696 27.4727 33.696 27.4727C33.624 27.7198 33.6186 27.9815 33.6804 28.2314C33.7421 28.4812 33.8689 28.7103 34.0477 28.8954C34.2265 29.0805 34.4511 29.2151 34.6987 29.2854C34.9463 29.3557 35.2081 29.3594 35.4575 29.2959Z" fill="#222220"/>
<path fill-rule="evenodd" clip-rule="evenodd" d="M36.2394 27.7125C34.9507 27.9181 34.423 26.417 34.423 26.417C34.3837 26.613 34.3851 26.815 34.4271 27.0104C34.4691 27.2059 34.5508 27.3906 34.6671 27.5532C34.7834 27.7158 34.9319 27.8527 35.1033 27.9556C35.2747 28.0584 35.4654 28.125 35.6636 28.1511C35.6166 28.3637 35.6319 28.5853 35.7078 28.7894C35.7836 28.9934 35.9167 29.1712 36.0911 29.3015C36.2655 29.4318 36.4738 29.5089 36.691 29.5237C36.9082 29.5385 37.125 29.4903 37.3155 29.3849L37.1921 29.0148C37.0208 29.0804 36.8326 29.0878 36.6566 29.0359C36.4806 28.984 36.3266 28.8756 36.2183 28.7276C36.1099 28.5795 36.0533 28.3999 36.0571 28.2164C36.0609 28.033 36.125 27.8559 36.2394 27.7125Z" fill="#222220"/>
<path fill-rule="evenodd" clip-rule="evenodd" d="M35.4375 23.428V23.0168C33.7376 22.6672 33.8747 21.4951 33.8747 21.4951C33.8088 21.7283 33.7996 21.9738 33.8478 22.2113C33.8959 22.4487 34.0001 22.6713 34.1517 22.8603C34.3032 23.0494 34.4977 23.1996 34.7189 23.2983C34.9402 23.3971 35.1818 23.4415 35.4238 23.428" fill="#222220"/>
<path fill-rule="evenodd" clip-rule="evenodd" d="M24.6481 40.5781L24.0381 41.8188H24.4973L25.1074 40.5781H24.6481Z" fill="#222220"/>
<path fill-rule="evenodd" clip-rule="evenodd" d="M25.567 40.5781L24.9639 41.8188H25.4231L26.0263 40.5781H25.567Z" fill="#222220"/>
<path fill-rule="evenodd" clip-rule="evenodd" d="M29.2546 40.5781L28.6445 41.8188H29.1038L29.7138 40.5781H29.2546Z" fill="#222220"/>
<path fill-rule="evenodd" clip-rule="evenodd" d="M30.1794 40.5781L29.5693 41.8188H30.0286L30.6318 40.5781H30.1794Z" fill="#222220"/>
<path fill-rule="evenodd" clip-rule="evenodd" d="M28.3356 40.5781L27.7256 41.8188H28.1848L28.7949 40.5781H28.3356Z" fill="#222220"/>
<path fill-rule="evenodd" clip-rule="evenodd" d="M33.7168 41.8188H34.176L34.7861 40.5781H34.3268L33.7168 41.8188Z" fill="#222220"/>
<path fill-rule="evenodd" clip-rule="evenodd" d="M26.4919 40.5781L25.8818 41.8188H26.3411L26.9511 40.5781H26.4919Z" fill="#222220"/>
<path fill-rule="evenodd" clip-rule="evenodd" d="M27.4108 40.5781L26.8008 41.8188H27.2669L27.8701 40.5781H27.4108Z" fill="#222220"/>
<path fill-rule="evenodd" clip-rule="evenodd" d="M25.3267 33.9356C25.2895 33.9301 25.2514 33.936 25.2176 33.9526C25.1838 33.9693 25.1558 33.9959 25.1375 34.0288C25.1192 34.0618 25.1114 34.0995 25.1152 34.137C25.1189 34.1745 25.134 34.21 25.1584 34.2387C25.1829 34.2674 25.2155 34.2879 25.2519 34.2976C25.2884 34.3072 25.3269 34.3055 25.3623 34.2927C25.3977 34.2799 25.4284 34.2565 25.4502 34.2258C25.4721 34.195 25.484 34.1584 25.4844 34.1207C25.4864 34.0756 25.4713 34.0315 25.442 33.9971C25.4128 33.9628 25.3716 33.9408 25.3267 33.9356Z" fill="#222220"/>
<path fill-rule="evenodd" clip-rule="evenodd" d="M28.6989 6.05295C30.2146 6.0097 31.7027 6.46478 32.9349 7.34842C33.128 6.35105 33.4996 5.39672 34.0316 4.53128L32.5099 4.70264L31.7148 3.00962L30.1863 3.80472L28.6989 2.33789L27.2184 3.81158L25.6761 3.00962L24.881 4.70264L23.3594 4.53128C23.8928 5.39604 24.2644 6.35063 24.4561 7.34842C25.6904 6.46381 27.181 6.0087 28.6989 6.05295ZM25.1484 5.36751L25.8612 3.83899L27.2321 4.52443L28.6989 3.09187L30.1863 4.5587L31.5572 3.87327L32.2426 5.40864L33.1337 5.27155C32.8995 5.69353 32.7111 6.13931 32.5716 6.6013C31.3858 5.93918 30.0502 5.59158 28.6921 5.59158C27.3339 5.59158 25.9983 5.93918 24.8125 6.6013C24.6721 6.13964 24.4837 5.69396 24.2504 5.27155L25.1484 5.36751Z" fill="#222220"/>
<path fill-rule="evenodd" clip-rule="evenodd" d="M30.2481 3.02268C30.3544 3.03223 30.4601 2.99941 30.5423 2.93137C30.6244 2.86332 30.6764 2.76557 30.6868 2.6594C30.6338 2.37439 30.5317 2.10074 30.3852 1.85059C30.3852 1.85059 29.8986 2.37152 29.8849 2.59086C29.8772 2.69598 29.9109 2.79995 29.9787 2.8806C30.0466 2.96126 30.1433 3.01224 30.2481 3.02268Z" fill="#222220"/>
<path fill-rule="evenodd" clip-rule="evenodd" d="M32.7361 3.92759C32.7828 3.95244 32.834 3.96773 32.8866 3.97255C32.9393 3.97738 32.9924 3.97164 33.0428 3.95568C33.0933 3.93972 33.14 3.91386 33.1803 3.87961C33.2206 3.84537 33.2537 3.80342 33.2776 3.75623C33.3399 3.47262 33.3515 3.18023 33.3119 2.89258C33.3119 2.89258 32.6675 3.18046 32.5647 3.37924C32.5164 3.4739 32.5073 3.58379 32.5394 3.68513C32.5714 3.78646 32.6421 3.8711 32.7361 3.92073" fill="#222220"/>
<path fill-rule="evenodd" clip-rule="evenodd" d="M27.1359 3.02268C27.242 3.01393 27.3404 2.96367 27.4097 2.88283C27.479 2.80198 27.5136 2.69707 27.5061 2.59086C27.5061 2.37152 27.0057 1.85059 27.0057 1.85059C26.8597 2.10098 26.7577 2.37454 26.7041 2.6594C26.7145 2.76429 26.7655 2.86095 26.8462 2.92881C26.9268 2.99666 27.0308 3.03034 27.1359 3.02268Z" fill="#222220"/>
<path fill-rule="evenodd" clip-rule="evenodd" d="M24.6414 3.92757C24.7342 3.87676 24.8034 3.79162 24.8341 3.69039C24.8649 3.58916 24.8547 3.47991 24.8059 3.38607C24.703 3.1873 24.0587 2.89941 24.0587 2.89941C24.0211 3.18746 24.035 3.4799 24.0999 3.76306C24.1238 3.81025 24.1568 3.8522 24.1971 3.88645C24.2374 3.9207 24.2842 3.94656 24.3346 3.96252C24.385 3.97848 24.4381 3.98421 24.4908 3.97939C24.5435 3.97456 24.5947 3.95928 24.6414 3.93442" fill="#222220"/>
<path fill-rule="evenodd" clip-rule="evenodd" d="M54.5476 17.6297C55.0675 17.4068 55.4787 16.9882 55.6923 16.4645C54.3214 16.2726 50.7503 14.7646 47.7961 15.9915C48.8996 14.9428 49.8935 14.8057 49.9895 13.2978C50.109 13.4084 50.2522 13.4902 50.4081 13.537C50.5641 13.5838 50.7287 13.5944 50.8893 13.568C51.05 13.5415 51.2025 13.4787 51.3352 13.3844C51.4679 13.2901 51.5773 13.1667 51.6551 13.0236C51.3535 12.1257 50.5858 12.8522 50.4761 12.6055C50.3665 12.3587 51.4426 12.7083 51.6825 11.5431C50.812 11.2415 50.5515 11.9543 50.3939 11.7898C50.2362 11.6253 50.9491 11.3306 50.435 10.4189C49.5302 10.9467 50.0032 11.5499 49.8113 11.6116C49.6193 11.6733 49.7633 10.9741 48.7626 11.0084C48.6666 12.0846 49.7016 12.1188 49.5302 12.2902C49.3589 12.4615 49.0504 11.6733 48.2964 12.0914C48.2838 12.2727 48.3155 12.4543 48.3889 12.6205C48.4623 12.7867 48.5751 12.9325 48.7176 13.0453C48.8601 13.158 49.0279 13.2343 49.2065 13.2676C49.3852 13.3008 49.5692 13.29 49.7427 13.2361C49.6262 14.888 48.1114 14.607 47.001 16.4439C49.3931 17.6709 50.4693 19.8094 51.943 21.2831C52.4644 20.7193 52.9071 20.0876 53.259 19.405C53.4386 19.5857 53.6522 19.7291 53.8875 19.827C54.1228 19.9249 54.3751 19.9752 54.6299 19.9752C54.8847 19.9752 55.137 19.9249 55.3722 19.827C55.6075 19.7291 55.8211 19.5857 56.0007 19.405C55.4524 18.8429 55.4318 18.418 54.5956 17.6503M52.2788 17.9519C52.4565 18.3746 52.5233 18.8358 52.473 19.2916C52.4226 19.7474 52.2567 20.1828 51.9909 20.5565C51.2818 19.0178 50.2233 17.6659 48.8996 16.6084C48.6872 16.4713 49.0162 16.2246 49.6262 16.1423C51.4632 15.7928 53.6154 16.5742 54.6436 16.8278C54.2509 17.1464 53.7752 17.3462 53.2727 17.4035C53.9128 17.8984 54.4763 18.4851 54.9452 19.1445C54.2255 19.3228 53.8142 18.8635 52.2583 17.9313" fill="#222220"/>
<path fill-rule="evenodd" clip-rule="evenodd" d="M36.8836 45.4859V43.4639C34.9442 44.3223 32.8712 44.8394 30.7558 44.9924L30.6393 45.7121C30.8586 45.7121 31.1328 45.7669 31.4961 45.7943C29.6129 46.0505 27.7038 46.0505 25.8207 45.7943C26.184 45.7943 26.4581 45.7464 26.6775 45.7121L26.5609 44.9924C24.4594 44.8355 22.4006 44.3185 20.4743 43.4639V45.479L18.418 46.3496C20.1629 47.2284 22.0027 47.9045 23.9015 48.3647L23.6547 49.2078C26.9889 50.1519 30.5197 50.1519 33.854 49.2078L33.6072 48.3647C35.5058 47.9039 37.3455 47.2278 39.0907 46.3496L36.8836 45.4859ZM19.5147 46.3975L20.9404 45.8218V44.1767C22.1907 44.6361 23.4768 44.9915 24.7857 45.2391L23.9768 47.8712C22.4431 47.524 20.9482 47.0234 19.5147 46.377M28.6995 49.434C27.1743 49.424 25.6558 49.2331 24.1756 48.8651L25.0324 46.1234C27.4624 46.5315 29.9434 46.5315 32.3734 46.1234L33.2302 48.8651C31.7477 49.2328 30.2269 49.4237 28.6995 49.434ZM33.4084 47.8918L32.5928 45.2391C33.902 44.987 35.1881 44.6271 36.4381 44.163V45.8081L37.8638 46.3838C36.4308 47.0316 34.9357 47.5322 33.4016 47.8781" fill="#222220"/>
<path fill-rule="evenodd" clip-rule="evenodd" d="M4.14008 19.3777C4.49314 20.0574 4.93577 20.6868 5.45612 21.2489C6.9298 19.7752 8.0128 17.6367 10.3981 16.4097C9.26714 14.5522 7.75233 14.8607 7.65637 13.2019C7.82946 13.2545 8.01272 13.2642 8.19041 13.2303C8.36811 13.1965 8.53491 13.1199 8.67649 13.0073C8.81808 12.8947 8.9302 12.7495 9.00324 12.584C9.07627 12.4185 9.10803 12.2377 9.09578 12.0572C8.33495 11.6391 8.06763 12.4685 7.862 12.256C7.65637 12.0435 8.7325 12.0504 8.62969 10.9742C7.62895 10.9742 7.81402 11.6597 7.57412 11.5774C7.33421 11.4952 7.85514 10.892 6.95037 10.3848C6.43629 11.3307 7.13544 11.6254 6.9915 11.7556C6.84756 11.8859 6.57338 11.2073 5.70288 11.5089C5.93592 12.6741 7.07375 12.1943 6.90924 12.5713C6.74474 12.9483 6.03189 12.0915 5.73029 12.9894C5.80708 13.1335 5.91604 13.258 6.04873 13.3531C6.18141 13.4483 6.33424 13.5116 6.49535 13.5381C6.65646 13.5646 6.82151 13.5537 6.97769 13.5061C7.13387 13.4584 7.27698 13.3755 7.3959 13.2636C7.49186 14.7784 8.48575 14.9018 9.5893 15.9574C6.63507 14.7304 3.05024 16.2384 1.69308 16.4303C1.9098 16.9527 2.32347 17.3689 2.84461 17.5887C1.96726 18.3975 1.96726 18.8225 1.43262 19.3845C1.43262 19.3845 2.54988 20.6115 4.17436 19.3845M2.50189 19.1515C2.97163 18.4906 3.53768 17.9037 4.18121 17.4105C3.67848 17.3493 3.20326 17.1474 2.81034 16.8279C3.8385 16.5537 5.99761 15.7791 7.83458 16.1424C8.43776 16.2247 8.78048 16.4714 8.56115 16.6085C7.2272 17.6654 6.15914 19.0199 5.44241 20.5635C5.18082 20.1879 5.01743 19.7527 4.96714 19.2978C4.91686 18.8428 4.98128 18.3825 5.15453 17.9588C3.60545 18.8979 3.19419 19.3297 2.46763 19.172" fill="#222220"/>
<path fill-rule="evenodd" clip-rule="evenodd" d="M27.3965 18.2529V19.144C27.5153 19.0319 27.6573 18.9473 27.8125 18.8964C27.9677 18.8454 28.1323 18.8293 28.2944 18.8493V20.131C28.2888 20.4485 28.204 20.7595 28.0477 21.0358H29.3294C29.1733 20.7594 29.0885 20.4484 29.0827 20.131V18.8424C29.2448 18.822 29.4095 18.8378 29.5648 18.8888C29.72 18.9398 29.8621 19.0246 29.9806 19.1372V18.2461H27.3965V18.2529Z" fill="#222220"/>
</svg>
